<?xml version="1.0" encoding="UTF-8" standalone="no"?>
<!-- Uploaded to: SVG Find, www.svgfind.com, Generator: SVG Find Mixer Tools -->

<svg
   fill="#000000"
   width="654.33661"
   height="669.15265"
   version="1.1"
   viewBox="0 0 418.77543 428.2577"
   id="svg1"
   xmlns="http://www.w3.org/2000/svg"
   xmlns:svg="http://www.w3.org/2000/svg">
  <defs
     id="defs1" />
  <path
     id="path1"
     style="fill:none;stroke:#000000;stroke-width:5.12;stroke-dasharray:none;stroke-opacity:1"
     d="m 402.49815,2.5799616 c -3.93308,0.36257 -7.2342,2.7395 -10.76373,4.28003 -27.96025,13.6381204 -55.89995,27.3199404 -83.89838,40.8781704 -4.37121,1.73601 -9.1285,1.92196 -13.71737,2.70641 -11.43782,1.76728 -23.00095,3.34166 -34.41665,5.25966 -9.10959,2.18468 -16.60598,10.01451 -18.25794,19.25646 -0.85091,4.46206 -0.22027,9.01086 -0.16541,13.51004 0.24161,6.44486 0.34661,12.898758 0.78873,19.333528 0.63999,6.07772 3.35051,11.72902 6.74809,16.73315 8.48796,13.6577 17.04351,27.27274 25.39751,41.0113 2.50713,4.95658 2.37217,10.9671 0.26256,16.03727 -1.44082,4.18467 -2.63358,8.4677 -4.34424,12.54988 -1.76165,2.78387 -5.75242,3.58473 -8.57939,2.02125 -4.26372,-1.56171 -9.05522,-0.8616 -13.08425,1.05506 -37.4169,14.36028 -74.83398,28.72011 -112.25078,43.08068 -0.95832,-2.25368 -1.94801,-4.85565 -4.31054,-5.98047 -2.74793,-1.32223 -6.23588,-0.32522 -8.08789,2.03516 -14.32776,13.78864 -28.718066,27.51383 -42.950466,41.40054 -4.98303,5.23546 -8.2073,11.77718 -11.63444,18.0598 -12.25679,22.39541 -24.47763,44.80983 -36.80231,67.16602 -2.50567,3.89059 -6.29035,6.66574 -9.48387,9.94308 -5.81074,5.63423 -11.75738,11.1719 -17.4396997,16.89515 -4.17783,5.03794 -3.81749,13.29689 1.03382,17.7753 3.26323,3.28016 6.7144397,6.36666 9.9611497,9.66461 2.21434,2.15995 4.33756,4.4434 6.78847,6.33768 4.97809,3.24154 12.16691,2.63968 16.40023,-1.5855 17.41547,-15.13801 34.64981,-30.48271 52.14161,-45.53056 9.860176,-7.82315 21.796716,-12.91837 34.205396,-14.9268 8.59971,-1.43095 17.09645,-2.83648 25.58978,-4.77557 1.81128,-0.41284 3.69094,-0.76037 5.24124,-1.85437 3.93559,-2.51404 6.31193,-7.29081 5.8395,-11.95101 -0.0208,-1.8767 -0.0396,-3.75342 -0.0623,-5.63009 29.95859,-3.66206 59.92379,-7.26645 89.87031,-11.00024 5.37314,-1.00886 10.47709,-3.03322 15.67661,-4.66542 19.72894,-6.63391 39.09559,-14.47541 57.6112,-24.0598 13.02829,-6.81931 25.69676,-14.53104 36.84774,-24.17298 1.81106,-1.69493 2.66714,-4.26206 2.33349,-6.71024 -0.27894,-2.53541 -0.81573,-5.03644 -1.15433,-7.56398 -0.24572,-1.67543 -0.55534,-3.39122 -0.38814,-5.0793 0.60908,-2.41265 2.77694,-3.85808 4.40437,-5.52306 4.61819,-4.57123 9.53857,-8.86043 13.80274,-13.77766 1.14977,-1.43763 2.3923,-3.27172 3.35936,-5.04282 1.93948,-3.50767 3.29797,-7.33065 4.0429,-11.26778 0.14529,-0.77221 0.31758,-1.89288 0.40415,-2.68685 0.35504,-3.16734 0.23003,-6.36176 0.39525,-9.54096 0.98904,-32.78702 2.0242,-65.57363 2.92322,-98.36273 -0.15243,-6.79295 -3.1643,-13.302938 -7.64199,-18.331588 -1.6962,-2.09245 -3.79365,-4.22057 -3.95954,-7.07006 -0.21831,-2.52514 1.10926,-4.80463 2.41163,-6.85433 10.54494,-18.5354 21.15405,-37.02597 31.5892,-55.62214 2.49949,-5.55178 0.183,-12.8613004 -5.25247,-15.7280504 -2.24102,-1.27255 -4.85741,-1.83106 -7.42414,-1.69587 z" />
</svg>
