<?xml version="1.0" encoding="UTF-8" standalone="no"?>
<!-- Uploaded to: SVG Find, www.svgfind.com, Generator: SVG Find Mixer Tools -->

<svg
   fill="#000000"
   width="661.0542"
   height="578.64697"
   version="1.1"
   viewBox="0 0 423.07468 370.33407"
   id="svg1"
   xmlns="http://www.w3.org/2000/svg"
   xmlns:svg="http://www.w3.org/2000/svg">
  <defs
     id="defs1" />
  <path
     id="path1"
     style="fill:none;stroke:#000000;stroke-width:5.12;stroke-dasharray:none;stroke-opacity:1"
     d="m 363.13187,2.5738433 c -2.41551,0.07275 -4.52912,1.4249761 -6.34453,2.9038668 C 333.2602,22.843437 309.71625,40.187358 286.2106,57.581603 c -5.00906,4.00592 -6.8046,11.5281 -4.01726,17.329882 1.24808,2.536912 2.65852,4.995642 3.70461,7.629072 3.09353,7.249403 4.83979,15.343246 3.4182,23.199103 -1.22766,7.00162 -4.99103,13.33643 -9.81683,18.46793 -2.36722,2.52652 -4.87071,4.96015 -7.66728,7.00842 -4.95015,3.32624 -11.04921,4.33248 -16.907,4.44819 -11.12383,0.20435 -22.08706,-2.50012 -32.82442,-4.85793 -3.15549,-0.68446 -6.46919,-1.29579 -9.77734,-1.20508 -2.03313,0.0334 -3.8749,0.19558 -5.88324,0.4815 -3.96214,0.56724 -7.715,1.49404 -11.56916,2.63706 -4.6994,1.38233 -9.29786,3.0886 -13.96448,4.56602 -3.59478,0.81241 -7.3135,0.32792 -10.9323,-0.0451 -12.19665,-1.53407 -24.09427,-4.76158 -36.21056,-6.768 -4.0794,-0.66253 -8.24287,-1.08264 -12.27605,-1.229 -8.78481,-0.34634 -17.62428,0.11352 -26.354521,-1.13953 -6.052423,-0.86024 -12.074015,-1.93409 -18.106971,-2.91791 -8.450445,-1.40494 -16.88866,-2.89007 -25.33944,-4.28822 -3.399085,-0.26578 -6.659386,2.74084 -6.576172,6.17188 0.0069,2.79118 1.147545,5.62779 0.236845,8.38133 -0.394936,1.44853 -1.337079,2.64107 -2.316373,3.73725 -2.88327,3.96119 -4.986662,8.41356 -7.196499,12.76723 -6.889178,14.03616 -12.964197,28.4519 -19.009669,42.86579 -3.102276,7.43824 -6.170561,14.89513 -9.10116,22.40072 -1.325837,5.77783 -2.34417,11.73026 -3.0936129,17.54299 -2.0094312,16.02259 -2.4763416,32.23575 -1.743016,48.40847 0.3733673,8.08484 1.0348821,16.24866 2.0092199,24.27508 1.225904,10.46136 2.97151,20.78446 5.237702,31.0684 0.642172,3.5578 -0.336117,7.11601 -0.726434,10.6432 -0.416181,2.50641 -0.543956,5.15009 0.405816,7.55786 0.638854,1.83458 1.930474,3.62129 3.269837,4.82434 1.943433,1.79969 4.566736,2.91782 7.12848,3.12851 7.65288,1.0335 15.283619,2.14777 22.93402,3.09023 4.168182,0.20285 8.291017,-2.13119 10.35407,-5.74378 1.342159,-1.92403 2.460163,-4.13697 2.399333,-6.53078 0.01258,-3.45262 -1.957897,-6.80098 -4.963015,-8.49342 -5.239098,-3.55844 -10.461754,-7.36769 -14.39195,-12.39803 -4.172904,-5.62706 -6.295386,-12.44943 -7.832528,-19.20138 -2.352663,-10.57336 -3.068399,-21.42721 -3.384269,-32.22831 -0.101223,-1.53344 0.393943,-3.15036 1.63639,-4.12606 1.212679,-1.07158 2.921691,-1.35505 4.477009,-1.05966 2.270963,0.19254 4.752102,0.77273 6.883237,-0.40589 2.256592,-1.12851 3.689018,-3.5638 3.777007,-6.06128 1.694956,-12.94117 3.443712,-25.87618 5.104996,-38.82122 0.299095,-2.94602 -0.521286,-5.88572 -2.056396,-8.41509 -2.080137,-3.56326 -4.283837,-7.0612 -6.22957,-10.69984 -1.301731,-2.81792 -1.148787,-6.098 -0.145829,-8.98203 3.426431,-12.61391 7.099541,-25.20559 12.164573,-37.274 1.862474,-4.36952 4.353172,-8.47378 7.490394,-12.04735 3.412475,-3.94977 7.436714,-7.40712 11.953103,-10.03274 2.486812,-1.2557 5.375327,-1.16833 8.052535,-0.71823 44.399308,5.3292 88.801208,10.63956 133.196608,15.99968 3.52745,0.50893 6.75709,2.19477 9.62305,4.25031 3.13396,2.01626 6.18058,4.1795 9.38539,6.07895 3.16479,1.3853 7.31209,-0.24163 8.57042,-3.49209 0.91526,-1.62698 1.54814,-3.44028 2.71279,-4.91026 1.39833,-1.46716 3.61708,-1.66543 5.49455,-1.21173 6.72409,0.92425 13.4138,1.65657 20.14,2.11878 5.37425,0.4102 10.88322,0.34172 16.18771,-0.10626 5.81364,-0.49703 11.74844,-1.46465 17.47958,-2.90609 2.44089,-0.61993 4.87625,-1.33594 7.20988,-2.14079 5.06351,-1.75354 10.03688,-3.96764 14.29267,-7.27251 3.48571,-2.54668 6.91391,-5.41815 10.19365,-8.32319 2.99429,-2.68745 6.07911,-5.52548 9.01255,-8.37337 5.33618,-5.15751 10.59846,-10.50868 15.68856,-15.91938 9.54144,-10.1424 18.69506,-20.607248 27.55475,-31.359598 6.41851,-7.792313 12.70692,-15.902295 18.22985,-24.440286 2.51661,-3.870301 4.92286,-7.845674 7.12953,-11.83901 3.66829,-6.712045 6.9812,-13.644529 9.50562,-20.871979 1.01437,-2.814432 0.31646,-6.127951 -1.75559,-8.287123 -1.49248,-1.676982 -3.68169,-2.629252 -5.91465,-2.70352 -7.58112,-0.869202 -15.17058,-1.693274 -22.7846,-2.215504 -1.70806,-0.07554 -3.73117,-0.307079 -5.38672,0.542969 -2.67821,1.236279 -4.49543,4.156594 -4.26894,7.121855 -0.0284,4.286718 -0.0607,8.59255 0.50527,12.850802 0.19861,1.368928 0.4499,2.972089 0.87305,4.386718 0.43441,1.549433 1.31113,2.904697 2.07421,4.298828 1.26591,2.719599 1.47385,6.281798 -0.55664,8.691407 -1.69666,1.840647 -4.36639,2.779607 -6.83789,2.394531 -2.63222,-0.576908 -4.30131,-3.056792 -5.01164,-5.504386 -1.2371,-3.749292 -0.76114,-7.84386 0.55544,-11.503559 0.79359,-2.453585 1.59242,-4.993352 1.34145,-7.606832 -0.14788,-7.360848 -0.23033,-14.725553 -0.49072,-22.082489 -0.4581,-4.0379012 -4.0724,-7.446858 -8.14703,-7.6073707 -0.36839,-0.030558 -0.736,-0.015831 -1.10492,-0.00591 z" />
</svg>
