<?xml version="1.0" encoding="UTF-8" standalone="no"?>
<!-- Uploaded to: SVG Find, www.svgfind.com, Generator: SVG Find Mixer Tools -->

<svg
   fill="#000000"
   width="673.57733"
   height="655.797"
   version="1.1"
   viewBox="0 0 431.0895 419.71008"
   id="svg1"
   xmlns="http://www.w3.org/2000/svg"
   xmlns:svg="http://www.w3.org/2000/svg">
  <defs
     id="defs1" />
  <path
     id="path1"
     style="fill:none;stroke:#000000;stroke-width:5.12;stroke-dasharray:none;stroke-opacity:1"
     d="m 92.056641,2.5761719 c -12.863905,0.295784 -25.541224,5.484178 -34.90881,14.3075391 -10.336858,9.596251 -16.762255,23.39028 -17.029276,37.530523 -0.173858,6.49117 0.907759,12.976598 2.898691,19.145831 5.095316,17.676211 10.036425,35.398115 15.418329,52.988535 3.728041,10.68531 10.298598,20.11889 17.613603,28.65205 10.599602,12.24314 23.049254,22.82998 36.551682,31.74257 3.65145,2.33976 7.28502,4.75044 10.45085,7.73491 7.66934,6.97481 13.48342,15.98645 17.14556,25.59335 1.32772,3.41992 2.44446,7.06545 3.28515,10.54493 0.29544,1.25739 0.54249,2.36387 0.79883,3.6289 0.19076,1.07733 0.45316,2.40881 0.63198,3.59053 0.56348,3.3444 0.83543,6.76179 1.08478,10.15175 1.10732,16.17556 4.65811,32.22062 10.91318,47.19702 5.90183,14.24972 13.87223,27.60904 23.2876,39.81098 5.31598,6.82552 11.31866,13.10025 17.80364,18.82202 5.22053,4.71109 10.86072,9.15164 14.77051,15.08868 1.98947,3.01766 3.62114,6.29456 4.71339,9.74332 0.95489,3.06664 0.87872,6.56062 -0.81151,9.36421 -2.00101,3.58757 -5.998,5.81662 -10.0697,5.92574 -4.00482,0.15304 -7.99488,-1.65788 -10.5715,-4.7188 -11.17583,-11.61605 -22.30035,-23.28079 -33.55215,-34.82132 -7.68091,-7.01512 -19.90394,-8.40529 -28.95583,-3.26986 -6.47377,3.17449 -12.81808,6.56736 -19.38245,9.49116 -9.78661,4.06635 -20.486877,5.78956 -31.060204,5.30358 -11.55073,-0.37117 -23.104416,-0.6563 -34.656467,-0.98922 -7.29873,-0.19035 -14.599007,-0.41139 -21.898086,-0.53167 -8.515169,0.35025 -16.6568936,5.56923 -20.434282,13.22585 -1.862556,3.6709 -2.5544523,7.77984 -3.3232633,11.78285 -1.1487794,8.14164 2.2217208,16.74019 8.6010303,21.93028 4.444322,3.7433 10.272926,5.72423 16.071828,5.60695 108.083104,0.002 216.167044,0.001 324.250344,-0.0306 12.89413,-0.19481 25.99008,-2.1025 37.79435,-7.51468 10.01814,-4.52094 18.72926,-11.87314 24.8485,-21.00517 6.82481,-10.10056 10.63721,-21.93638 12.72245,-33.86638 0.87698,-5.2335 1.71561,-10.53112 1.37755,-15.85507 -0.47208,-8.8796 -2.90936,-17.52491 -5.88865,-25.85871 -3.81933,-10.55568 -8.74549,-20.67757 -14.10079,-30.53096 -5.12344,-9.49373 -15.4679,-15.84747 -26.22847,-16.27578 -6.72097,-0.30788 -13.48404,1.61984 -19.09569,5.3163 -29.60167,18.30727 -59.17744,36.65796 -88.85508,54.8403 -5.93633,3.53677 -11.87587,7.33541 -18.59993,9.1901 -2.96497,0.87374 -6.4825,1.1075 -9.11364,-0.79108 -2.66571,-2.10829 -4.35684,-5.33757 -4.87579,-8.66893 -0.57562,-4.55367 1.47879,-8.99061 4.22735,-12.50295 1.45811,-1.92923 3.22945,-3.61692 4.57185,-5.62936 3.19032,-5.25234 2.23002,-12.75023 -2.49101,-16.78737 -5.80992,-5.20854 -11.64251,-10.38831 -17.40053,-15.65547 -13.82562,-12.61318 -27.37945,-25.54829 -40.20769,-39.12699 -4.59035,-4.8712 -9.10437,-9.95826 -13.14059,-15.22463 -8.62211,-11.37844 -16.11654,-23.80299 -23.22793,-36.28098 -10.18695,-17.9972 -19.45915,-36.459 -28.00137,-55.29084 -3.11582,-6.91119 -5.81589,-14.10587 -8.58592,-21.21111 -2.33441,-6.21271 -4.41368,-12.610929 -5.05392,-19.248325 -0.44989,-4.896357 0.22629,-10.122788 3.10275,-14.234231 3.08342,-4.295617 7.98373,-6.966555 13.01627,-8.30016 5.43529,-1.479707 11.38138,-0.297844 16.09703,2.696159 6.31469,3.793218 11.07902,9.615124 15.20192,15.613623 4.95785,7.426716 8.51068,15.558564 13.08601,23.223204 4.83006,8.15958 10.51754,16.07736 18.2498,21.72866 6.16722,4.49612 13.84743,7.1285 21.51771,6.63207 4.69965,-0.27189 9.05996,-2.76333 12.11087,-6.27897 2.9657,-3.39043 4.85418,-7.57003 6.34766,-11.77927 2.51785,-7.49984 3.62445,-15.39172 4.28977,-23.249123 0.73828,-9.25973 0.67342,-18.57484 0.0857,-27.841025 -0.65828,-8.243987 -3.25436,-16.201012 -6.47354,-23.772599 -1.50124,-3.442588 -3.09701,-6.854839 -4.94314,-10.126403 C 220.18497,27.171204 213.36658,22.882634 206.06786,21.924808 171.94657,16.132921 137.91086,9.8278548 103.86021,3.5826186 99.975056,2.8385225 96.012813,2.480704 92.056641,2.5761719 Z" />
</svg>
