<?xml version="1.0" encoding="UTF-8"?>
<svg id="a" version="1.1" viewBox="0 0 100 100" xmlns="http://www.w3.org/2000/svg" xmlns:cc="http://creativecommons.org/ns#" xmlns:dc="http://purl.org/dc/elements/1.1/" xmlns:rdf="http://www.w3.org/1999/02/22-rdf-syntax-ns#">
 <title>Aston Martin logo</title>
 <path d="m13.963 41.693c-0.192 0.0048-0.67045 0.03988-0.93125 0.47188-0.1232 0.2096-0.21759 0.5649 0.05281 1.0625 0 0.0032 0.54719 0.91531 0.54719 0.91531 0.2256 0.3648 0.48018 0.50074 1.0194 0.53594 0.0096 0 0.259 0.02565 0.435 0.33125l0.55844 0.98406c0.1184 0.2256 0.3969 0.7536 1.3425 0.88 0.0144 0.0032 0.29261 0.03196 0.44781 0.32156 0 0.0048 0.68969 1.2175 0.68969 1.2175 0.2016 0.3888 0.48331 0.53441 0.99531 0.69281l12.542 3.6831c0.4288 0.1248 0.60188 0.60656 0.60188 0.60656 0.3008 0.7744 0.68945 1.4112 2.6462 2.0016 0.0016 0 10.261 2.8 10.261 2.8 0.128 0.0416 1.3055 0.40006 2.1887-0.45594l2.4063-2.2962s0.09931-0.10063 0.23531-0.10063c0.136 0 0.235 0.10063 0.235 0.10063 0.0064 8e-3 2.4081 2.2978 2.4081 2.2978 0.8848 0.8544 2.0623 0.49758 2.1903 0.45438-0.0048 0 10.253-2.7984 10.258-2.8 1.9568-0.5904 2.3615-1.2384 2.6463-2.0016 0.0128-0.032 0.1792-0.4834 0.6-0.605 0 0 1.8943-0.55832 12.537-3.6831 0.5168-0.16 0.7984-0.30558 1-0.69438l0.68656-1.2047c0.152-0.296 0.4256-0.33125 0.44-0.33125 0.9568-0.1296 1.2353-0.65752 1.3569-0.88312l0.55656-0.98406c0.1744-0.3056 0.42255-0.33125 0.43375-0.33125 0.5376-0.0336 0.79346-0.17114 1.0191-0.53594-0.0048 0.0016 0.54719-0.91531 0.54719-0.91531 0.1168-0.2144 0.17281-0.41921 0.17281-0.61281 0-0.1616-0.04-0.31369-0.12-0.44969h-0.0016c-0.264-0.4336-0.72634-0.46228-0.93594-0.47188h-29.986c-0.8496 0-1.5375 0.25749-2.0447 0.76469-0.3632 0.3648-0.61446 0.83696-0.74406 1.4066-8e-3 0.0208-0.04314 0.13438-0.29594 0.13438h-5.9266c-0.256 0-0.29114-0.11841-0.29594-0.13281-0.1296-0.5712-0.3777-1.0433-0.7425-1.4081-0.5072-0.5056-1.1952-0.76469-2.0416-0.76469zm57.109 0.55531h14.949c0.1568 0.0064 0.36159 0.02396 0.46719 0.20156 0.0144 0.024 0.04156 0.07352 0.04156 0.16312 0 0.08-0.02372 0.19363-0.10531 0.34563l0.0016 0.0016c-8e-3 0.0128-0.53781 0.89281-0.53781 0.89281-0.0992 0.1648-0.1647 0.24155-0.5775 0.26875h-16.317c0.1824-0.3072 0.33779-0.58704 0.47219-0.83344 0.0032-0.0096 0.58065-1.04 1.6062-1.04zm-57.093 0.0031h14.949c1.0112 0 1.6097 1.04 1.6097 1.04 0.1296 0.2448 0.28655 0.52464 0.47375 0.83344h-16.318v-0.0016c-0.3792-0.0272-0.4609-0.07355-0.5825-0.26875 0.0032 0-0.49594-0.82881-0.53594-0.89281-0.0816-0.152-0.11042-0.26562-0.10562-0.34562 0.0096-0.2016 0.14711-0.35829 0.51031-0.36469zm16.198 0h13.778c0.6944 0 1.2481 0.20316 1.6481 0.60156 0.2896 0.288 0.48944 0.66878 0.59344 1.1344 0 0 0.02092 0.0815 0.04812 0.1375h-14.731c-0.2272-0.3696-0.59687-1.0381-0.59687-1.0381-0.0176-0.0336-0.26706-0.48011-0.73906-0.83531zm25.87 0h13.776c-0.4752 0.3552-0.72341 0.80171-0.73781 0.83531-0.1616 0.296-0.35848 0.64772-0.59688 1.0381h-14.734c0.0304-0.0528 0.04812-0.1375 0.04812-0.1375 0.1056-0.4656 0.30731-0.84638 0.59531-1.1344 0.3984-0.4 0.95178-0.60156 1.6494-0.60156zm-24.264 2.3041h2.92v0.56781l0.0016 0.0016-2.4353 0.16187c-0.176-0.2528-0.33425-0.49765-0.48625-0.73125zm3.3566 0h29.714v4.1744h-29.706l0.0016 0.0031s-0.0081-0.0065-0.0097-0.0081zm-19.693 0.0016h15.821c0.152 0.2416 0.31983 0.49909 0.50063 0.76469l-13.88 0.92156c-0.2192 0.0256-0.85258 0.07688-1.1694-0.0031l-0.0016 0.0016c-0.3824-0.1296-0.50414-0.35995-0.58094-0.50875-0.2304-0.3968-0.53769-0.98874-0.68969-1.1759zm49.84 0h2.9313c-0.1504 0.2336-0.31661 0.47685-0.48781 0.73125l-2.4434-0.16156v-0.0019zm3.4466 0.0016h15.819c-0.0416 0.0528-0.08 0.10874-0.12 0.17594h-0.0032l-0.56812 0.99844c-0.08 0.1472-0.1983 0.37595-0.5775 0.50875-0.3168 0.08-0.95205 0.02872-1.1713 0.0031l-13.877-0.92159c0.1792-0.2656 0.34421-0.52309 0.49781-0.76469zm-31.741 0.66562-1.2703 2.8416h0.34562l0.0032-0.0175c0.1072-0.344 0.23696-0.67215 0.36656-0.99375 0 0 0.01736-0.04483 0.02376-0.06562h0.98562c0.1296 0.3008 0.26561 0.6481 0.41281 1.0625l0.0066 0.01438h0.47344l-1.2222-2.8416h-2e-3zm2.4672 0c-0.5584 0-0.915 0.31188-0.915 0.79188s0.36465 0.6336 0.68625 0.76c0.2912 0.1136 0.56469 0.22088 0.56469 0.55688 0 0.3152-0.23338 0.55844-0.52938 0.55844-0.272 0-0.45275-0.11516-0.62875-0.40156l-0.0081-0.01281h-0.07375l-0.08469 0.38562h0.0032l0.0097 0.01125c0.152 0.1616 0.48951 0.24 0.67031 0.24 0.5968 0 1.0128-0.38585 1.0128-0.93625 0-0.456-0.34404-0.59185-0.67844-0.72625-0.2992-0.1136-0.58063-0.22552-0.58063-0.56312 0-0.256 0.20324-0.44156 0.47844-0.44156 0.2208 0 0.38708 0.11654 0.47188 0.33094l0.0081 0.01781h0.07188l0.12-0.36-0.01436-0.01281c-0.16-0.1456-0.40966-0.19844-0.58406-0.19844zm4.3888 0c-0.8848 0-1.5053 0.59518-1.5053 1.4544s0.6031 1.4369 1.4975 1.4369 1.5503-0.60338 1.5503-1.4994c0-0.96-0.77606-1.3903-1.5441-1.3903zm10.603 0-1.2706 2.8416h0.34719l5e-3 -0.0175c0.1056-0.3488 0.23509-0.6784 0.36469-1 0 0 0.01768-0.04177 0.02408-0.05937h0.98094c0.136 0.3072 0.27674 0.6625 0.41594 1.0625l0.0062 0.01438h0.47375l-1.2209-2.8416h-0.0016zm-1.7841 0.0575v0.0016h-0.0975l-0.67531 1.2209s-0.42563 0.77585-0.46563 0.84625c-0.4144-0.6928-0.78875-1.424-1.1087-2.0528l-0.0081-0.01438h-0.14218v0.0225c-0.04 0.4128-0.27846 2.0849-0.38406 2.7297l-5e-3 0.02875h0.33938v-0.02562c0-0.3904 0.0673-0.97451 0.1425-1.5953 0 0 0.02872-0.27339 0.04312-0.38219 0.0448 0.088 0.56778 1.0848 0.76938 1.4928l0.2275 0.46531h0.075l0.0066-0.01594c0.232-0.5344 0.55974-1.1472 1.0109-1.9488 0.064 0.4784 0.14891 1.4368 0.19531 1.9856v0.0225h0.42875l-0.0047-0.02875c-0.0944-0.6736-0.20153-1.5665-0.32313-2.7297v-0.0225zm-12.347 0.0016v0.29281l0.0272-0.0047c0.24-0.0256 0.47365-0.04656 0.85125-0.04656v2.5491h0.40156v-2.5491c0.28 0 0.55501 0.01616 0.80781 0.04656l0.0272 0.0047v-0.29281h-0.0238zm5.5072 0v2.7825h0.27188v-2.1519h0.0081c0.0128 0.0144 1.72 1.9006 1.72 1.9006l0.21438 0.25125h0.15531v-2.7825h-0.2722v2.0578h-0.0062c-0.016-0.0176-1.9009-2.0578-1.9009-2.0578zm10.208 0v2.7809h0.4v-1.3328h0.11687c0.0144 0.0176 0.31219 0.36781 0.31219 0.36781l0.47188 0.60969 0.25906 0.35531h0.52344s-1.053-1.3152-1.0994-1.3728c0.5008-0.1024 0.80344-0.38874 0.80344-0.77594 0-0.4256-0.30095-0.63219-0.91375-0.63219zm2.0128 0v0.29281l0.0272-0.0047c0.2368-0.0256 0.47216-0.04656 0.84656-0.04656v2.5491h0.40469v-2.5491c0.2816 0 0.55373 0.01616 0.80813 0.04656l0.03032 0.0047v-0.29281h-0.03036zm2.445 0v2.7825h0.3775v-2.7825zm0.97125 0v2.7825h0.27188v-2.1519h0.0047c0.0144 0.0144 1.7184 1.9006 1.7184 1.9006 0.0032 0 0.21594 0.25125 0.21594 0.25125h0.15687v-2.7825h-0.27504v2.0578h-5e-3c-0.0144-0.0176-1.8991-2.0578-1.8991-2.0578zm-17.578 0.12344c0.3216 0 0.62561 0.1407 0.81281 0.3775 0.2064 0.264 0.24812 0.53606 0.24812 0.86406 0 0.0192 0.0032 0.0367 0.0032 0.0575 0 0.2656-0.10884 0.64624-0.35844 0.91344l-0.0016-0.0016c-0.1952 0.208-0.4447 0.31688-0.7375 0.31688-0.648 0-1.0688-0.47685-1.0688-1.2113 0-0.8128 0.42059-1.3166 1.1022-1.3166zm12.839 0.06281c0.1022-1e-3 0.20147 0.0018 0.27187 0.01375 0.2768 0.0432 0.41594 0.20484 0.41594 0.47844s-0.18405 0.48479-0.49125 0.54719c-0.17218 0.03348-0.38217 0.02729-0.48656 0.0225v-1.0529c0.0824-0.0032 0.1878-0.0081 0.29-0.0091zm-22.022 0.10812h0.0016v0.59375l-1.6306 0.21906c-0.176-0.2272-0.34382-0.45271-0.50062-0.67031zm30.584 0 2.1394 0.1425c-0.1584 0.2176-0.32646 0.44311-0.50406 0.67031l-1.6353-0.21906zm-33.221 0.17438c0.1584 0.2304 0.33104 0.46566 0.51344 0.70406l-13.298 1.7841c-0.5056 0.0688-0.6623-0.0975-0.6975-0.1375l-0.66406-1.1712c-0.0432-0.0864-0.09619-0.16162-0.15219-0.22562 0.0848-8e-3 14.298-0.95375 14.298-0.95375zm35.869 0 14.13 0.93938c0.0192 0 0.07829 8e-3 0.16469 0.01438-0.0576 0.0672-0.11208 0.14228-0.15688 0.23188 0 0-0.54698 0.96184-0.66218 1.1634-0.0272 0.0368-0.18402 0.20786-0.69282 0.13906l-13.298-1.7841c0.184-0.2384 0.35532-0.47366 0.51532-0.70406zm-30.978 0.08344c0.0384 0.0912 0.37753 0.87358 0.40313 0.93438h-0.805c0.0288-0.0608 0.36187-0.84318 0.40187-0.93438zm17.459 0c0.0432 0.0912 0.37932 0.87358 0.40812 0.93438h-0.805c0.024-0.0608 0.35848-0.84318 0.39688-0.93438zm-19.712 0.77156v0.6875l-0.75688 0.15688c-0.1952-0.224-0.38084-0.44642-0.55844-0.66562zm30.582 0.0012 1.3216 0.17906c-0.176 0.2192-0.36136 0.44162-0.55656 0.66562-0.3392-0.072-0.6066-0.12648-0.765-0.15688zm-32.398 0.24469c0.1824 0.2304 0.37285 0.4639 0.57125 0.6975l-9.1391 1.8784c-0.336 0.072-1.3135 0.22089-1.8159 0.08969h0.0016c-1.3776-0.4048-2.496-0.73295-2.9744-0.87375zm34.222 0 13.357 1.7919-2.9712 0.87219c-0.4992 0.1344-1.4783-0.01612-1.8175-0.08812-0.0048 0-6.2561-1.2848-9.1409-1.8784 0.2016-0.2336 0.39201-0.4671 0.57281-0.6975zm-1.8241 0.88469 0.43375 0.08812c-0.1424 0.1536-0.28495 0.3089-0.43375 0.4625zm-30.582 0.0034v0.54375c-0.144-0.152-0.28642-0.30546-0.42562-0.45906 0.1744-0.0336 0.31682-0.06389 0.42562-0.08469zm-0.91688 0.18562c0.272 0.3072 0.5601 0.6144 0.8625 0.92l-6.1234 1.8909c-0.0144 0.0048-0.84941 0.28179-1.4878 0.11219l-0.0016-0.0016c-1.0224-0.2992-2.0978-0.61459-3.1122-0.91219 0.2704-0.0384 0.46556-0.07836 0.48156-0.08156 0 0 6.6241-1.3614 9.3809-1.9278zm32.424 0 9.3759 1.9278c0.0208 0.0032 0.21589 0.04316 0.48469 0.08156l-3.1041 0.91219c-0.6432 0.1712-1.48-0.10739-1.4928-0.11219h-0.0094l-6.1184-1.8894c0.304-0.3056 0.59206-0.6128 0.86406-0.92zm-22.584 1.2381v0.0019h1.4416l-3.6944 3.8525c-0.6224-0.2784-1.2319-0.58698-1.8319-0.92938 1.7728-1.2672 3.6207-2.5922 4.0847-2.925zm-8.0287 0.0019h3.5728l-2.3184 1.0862h-0.0016c-0.0352-0.0288-0.88961-0.74705-1.2528-1.0862zm4.5984 0h2.6847l-3.7487 2.6831c-0.6528-0.392-1.285-0.82558-1.8994-1.2944 1.408-0.6608 2.7138-1.272 2.9634-1.3888zm5.4766 0h1.2209l-2.8447 4.8175c-0.7696-0.216-1.5169-0.47854-2.2497-0.78094 1.552-1.6192 3.4206-3.5662 3.8734-4.0366zm1.725 0h1.0366l-1.5006 5.4125c-0.8384-0.112-1.656-0.27016-2.4528-0.47656 1.0896-1.8464 2.5505-4.3167 2.9169-4.9359zm1.4863 0h0.89781v5.616c-0.8208-8e-3 -1.6243-0.05759-2.4147-0.14719zm1.3312 0h0.89594l1.5184 5.4688c-0.7888 0.0912-1.5952 0.13919-2.4144 0.14719zm1.3456 0h1.0353l2.9166 4.9359c-0.7984 0.2064-1.6142 0.36456-2.4494 0.47656zm1.5425 0h1.2238l3.8691 4.0366c-0.7312 0.3056-1.4817 0.56334-2.2481 0.78094zm1.8238 0h1.44l4.0866 2.9247c-0.5952 0.3424-1.2063 0.65285-1.8303 0.93125-1.3456-1.4064-2.9666-3.0944-3.6962-3.8544zm2.1872 0h2.6866l2.96 1.3888c-0.6128 0.4704-1.2479 0.90238-1.8975 1.2944-1.4288-1.0208-2.9363-2.1007-3.7491-2.6831zm3.7106 0h3.5759c-0.3664 0.3616-1.2239 1.0622-1.2559 1.0862-0.8672-0.4064-1.7152-0.80305-2.32-1.0862zm-25.827 0.02875c0.44 0.4256 0.90878 0.84942 1.4144 1.2606l-3.3122 1.5506c-0.216 0.1104-0.85738 0.35992-1.2894 0.24312-0.1328-0.0368-1.5889-0.46394-3.4609-1.0159 0.1792-0.0416 0.29619-0.0818 0.31219-0.085-0.0048 0.0032 5.1359-1.5854 6.3359-1.9534zm30.003 0 6.3425 1.9566c0.0144 0.0048 0.12775 0.0418 0.30375 0.085l-3.4591 1.0144v-0.0016c-0.4352 0.1168-1.0718-0.1328-1.2862-0.24 0 0-1.6385-0.76502-3.3169-1.5506 0.5024-0.4144 0.97434-0.83815 1.4159-1.2638zm-1.7919 1.5631 3.5037 1.64c0.0224 0.0096 0.38254 0.19184 0.82094 0.27344-0.208 0.2384-0.30713 0.48641-0.32313 0.53281l-0.0016 0.0019c-0.1824 0.4736-0.37604 0.9597-1.6784 1.4525-0.5344 0.1648-1.1777-0.31016-1.1809-0.31656-0.0032 0-1.4494-1.0386-3.1006-2.2178 0.6704-0.4144 1.3248-0.86865 1.96-1.3662zm-26.419 0.0016c0.6336 0.496 1.2865 0.95216 1.9569 1.3666l-3.0944 2.2125c-0.0112 0.0096-0.65431 0.48648-1.1903 0.31688-1.2944-0.4864-1.4914-0.97429-1.6738-1.4447-0.0144-0.0432-0.11036-0.2943-0.32156-0.5375 0.4368-0.0816 0.80163-0.26568 0.82563-0.27688-0.0048 0.0032 1.7519-0.82088 3.4975-1.6369zm2.3647 1.6066c0.6208 0.3648 1.2529 0.69279 1.9009 0.98719l-1.8047 1.8766c-0.1568 0.1664-0.66099 0.57444-1.0722 0.47844v0.0016l-2.7441-0.7503c0.2736-0.1168 0.45927-0.25751 0.47687-0.27031-0.0032 0.0016 1.5311-1.0959 3.2431-2.3231zm21.69 0.0047 3.2466 2.3247c0.0144 0.0096 0.19828 0.15042 0.47188 0.26562-0.72 0.1984-2.2544 0.61594-2.2544 0.61594l-0.0016-0.0016-0.48968 0.13438c-0.4112 0.096-0.91348-0.31204-1.0719-0.47844 0 0-0.78872-0.82056-1.8031-1.8766 0.648-0.2944 1.2814-0.62246 1.9022-0.98406zm-19.365 1.1696c0.7616 0.3248 1.5409 0.60308 2.3425 0.83188l-0.97625 1.6512c-0.12 0.2128-0.51826 0.77756-0.85906 0.72156l-0.0016 0.0016-2.9538-0.80312c0.3072-0.176 0.51834-0.39525 0.53594-0.41125 0 0 0.84499-0.87988 1.9122-1.9919zm17.038 0 1.9087 1.9919c0.0192 0.016 0.22874 0.23525 0.53594 0.41125l-2.9534 0.80312c-0.34206 0.05408-0.73778-0.50918-0.85282-0.71688l-0.97937-1.6591c0.8016-0.2304 1.5793-0.50711 2.3409-0.83031zm-14.264 0.95031c0.8352 0.2208 1.688 0.39031 2.5616 0.51031l-0.49906 1.8v0.0031s-0.11852 0.53287-0.48812 0.75687c-0.1696 0.1024-0.36148 0.12659-0.59188 0.07219l-2.5809-0.70406c0.3152-0.256 0.52656-0.62401 0.56656-0.69281 0 0.0032 0.43508-0.73922 1.0319-1.7456zm11.49 0.0016 1.035 1.7519c0.0368 0.0656 0.2464 0.43056 0.56 0.68656l-2.5806 0.70406h0.0016c-0.2304 0.0544-0.42419 0.02861-0.59219-0.07219-0.36-0.2192-0.47825-0.723-0.48625-0.755l-0.49906-1.805c0.8736-0.12 1.728-0.28951 2.5616-0.51031zm-2.9984 0.56469 0.51188 1.845c0.0144 0.0624 0.1168 0.46719 0.4 0.78719-0.3904-0.1104-0.51025-0.22582-1.0063-0.71062 0 0-1.3874-1.3264-1.8594-1.7744 0.6608-0.0224 1.3138-0.06879 1.9538-0.14719zm-5.4959 0.0034c0.6432 0.0752 1.2926 0.12322 1.9534 0.14562-0.528 0.504-2.2353 2.1309-2.2353 2.1309h2e-3c-0.1952 0.1888-0.41779 0.29775-0.63219 0.35375 0.2848-0.3216 0.38716-0.72639 0.40156-0.78719z" stroke="#000" stroke-width=".16"/>
 <metadata>
  <rdf:RDF>
   <cc:Work rdf:about="">
    <dc:title>Aston Martin logo</dc:title>
   </cc:Work>
  </rdf:RDF>
 </metadata>
</svg>
