<?xml version="1.0" encoding="UTF-8"?>
<svg version="1.1" viewBox="0 0 100 100" xmlns="http://www.w3.org/2000/svg" xmlns:cc="http://creativecommons.org/ns#" xmlns:dc="http://purl.org/dc/elements/1.1/" xmlns:rdf="http://www.w3.org/1999/02/22-rdf-syntax-ns#">
 <title>Cadillac logo</title>
 <path d="m80.33 38.576-60.66 0.011719 4.084 5.7598c0.4482 2.448 1.6168 8.7589 1.75 9.3691 0.3852 1.7658 0.57016 2.8397 4.0352 3.6641 4.6224 1.08 15.158 3.2132 20.461 4.043 5.2974-0.8316 15.84-2.964 20.461-4.0566 3.465-0.8244 3.65-1.8963 4.0352-3.6621 0.1314-0.6138 1.3018-6.9211 1.75-9.3691l4.084-5.7598zm-57.436 1.0801h54.217l-3.2305 4.6016c-0.8064 4.788-1.3082 7.8477-1.5098 8.9277-0.351 1.8648-0.41384 2.6691-2.3398 3.1875-3.834 0.9108-14.932 3.1905-20.033 3.9609-5.1012-0.7722-16.203-3.0609-20.033-3.9609-1.9188-0.5184-1.9798-1.3227-2.3398-3.1875-0.207-1.071-0.70517-4.1451-1.5098-8.9277l-3.2207-4.6016zm2.1719 1.7031 1.6484 2.3398h5.3184l-1.0059-1.748h18.043v1.748h0.60352v-2.3398h-24.607zm25.268 0v3.5156h8.4863v-3.5156h-8.4863zm9.0645 1.0957v1.2461h13.859l0.87109-1.2422-14.73-0.003906zm-32.465 1.8086 0.29102 1.75h22.441v-1.75h-22.732zm32.465 1.1562v3.5137h12.891l0.58789-3.5137h-13.479zm-32.078 1.1367 0.39648 2.3867h5.207l-0.18945-1.8242h16.334v1.8242h0.60352v-2.3867h-22.352zm23.014 0.001953v1.2598h8.4863v-1.2598h-8.4863zm0 2.9453v2.373h0.60352v-1.7695h16.039c-0.0216 0.18-0.17965 1.3596-0.24805 1.7754h5.0645l0.4043-2.3789h-21.863zm-22.523 0.001953 0.61523 3.5137h12.26v-3.5137h-12.875zm13.453 1.1152v1.2598h8.4082v-1.2598h-8.4082zm9.0703 1.8066v1.7422h21.033l0.33984-1.7422h-21.373zm-9.0723 1.1523v4.3398c3.1392 0.6174 6.2109 1.1876 8.4141 1.5332v-5.873h-8.4141zm9.0723 1.1133v4.7676c5.346-0.8748 15.726-2.9334 19.506-3.873 0.8532-0.2124 1.1055-0.47089 1.2441-0.67969a1.08 1.08 0 0 0 0.11328-0.21484h-20.863zm-21.514 0.00586a1.3086 1.3086 0 0 0 0.11524 0.2168l0.005859-0.001954c0.1386 0.2088 0.39439 0.45319 1.2422 0.68359 0.4104 0.1008 0.86625 0.2014 1.498 0.3418h9v-1.2402h-11.861zm22.119 0.5957h14.859c-0.711 0.8388-2.1753 1.088-10.711 2.7188-0.837 0.1602-3.1892 0.56414-4.1504 0.74414l0.001953-3.4629z"/>
 <metadata>
  <rdf:RDF>
   <cc:Work rdf:about="">
    <dc:title>Cadillac logo</dc:title>
   </cc:Work>
  </rdf:RDF>
 </metadata>
</svg>
