<?xml version="1.0" encoding="UTF-8"?>
<svg id="uuid-ae37354c-03c2-499c-96f1-c7a5939bd82b" version="1.1" viewBox="0 0 100 100" xmlns="http://www.w3.org/2000/svg" xmlns:cc="http://creativecommons.org/ns#" xmlns:dc="http://purl.org/dc/elements/1.1/" xmlns:rdf="http://www.w3.org/1999/02/22-rdf-syntax-ns#">
 <title>Scuderia Ferrari logo</title>
 <g transform="matrix(.32 0 0 .32 25.202 15.95)" fill-rule="evenodd">
  <path d="m154.91 19.23c0.03-1.44 0.05-2.89 0.08-4.34l-77.65-14.89-77.34 14.67c0.02 1.33 0.04 2.76 0.06 4.28 0.33-0.06 74.94-14.02 77.29-14.18 0.54-0.04 74.16 13.81 77.56 14.46z" fill="#006a00"/>
  <path d="m77.97 212.62 4.02-2.7c1.59-1.06 3.17-2.14 4.74-3.24 6.47-4.49 12.37-9.1 18.14-14.46 3.02-2.8 5.91-5.74 8.67-8.8 7.7-8.56 14.27-17.99 19.84-28.05 2.05-3.7 3.97-7.47 5.76-11.3 0.71-1.52 1.39-3.04 2.04-4.58 2.3-5.55 4.32-11.26 6.06-17.05 0.53-1.81 1.03-3.62 1.49-5.44 0.92-3.58 1.72-7.19 2.42-10.82 0.59-3.07 1.1-6.14 1.54-9.22 2.07-12.84 2.07-30.27 1.95-54.23 0-1.98 0.01-3.97 0.03-5.95v-0.1l-4.07-1.81c-48.37-21.52-98.64-21.45-147.05 0.22l-3.25 1.45c0.13 9.46 0.28 19.27 0.41 26.83l0.09 5.28c0.04 2.24 0.09 4.48 0.14 6.72 0.04 1.61 0.1 3.23 0.16 4.84 0.04 1.07 0.09 2.15 0.15 3.22 0.08 1.52 0.17 3.04 0.29 4.55 0.05 0.67 0.11 1.34 0.18 2.01 0.25 3.06 0.61 6.11 1.08 9.14 0.52 3.32 1.15 6.62 1.89 9.9 2.27 10.08 5.48 20.1 9.38 29.66 4.33 10.59 10 21.74 16.67 31.03 1.3 1.81 2.64 3.61 4 5.38 4.85 6.29 10.07 12.22 15.88 17.65 1.84 1.72 3.74 3.39 5.68 4.99 2.17 1.79 4.4 3.52 6.68 5.18 2.29 1.66 4.6 3.27 6.96 4.84 1.23 0.82 2.47 1.64 3.71 2.45 1.33 0.87 2.66 1.74 3.99 2.6 0.08-0.05 0.18-0.11 0.29-0.17z"/>
  <path d="m103.8 170.38h1.36c0.07 0 0.09 0 0.16-0.02 0.7-0.18 0.81-0.16 1.26-0.57 0.63-0.57 1.55-1.44 1.35-1.83-0.33-0.64-0.64 0.14-1.44 0.54-0.11 0.05-0.21 0.07-0.37 0.07-0.56 0.02-1.88-0.04-1.88-0.04s0.38-1.19 0.7-2.06c0.67-1.82 1.46-2.84 2.62-4.53 0.04-0.06 0.06-0.07 0.13-0.08 4.48-0.45 5.96-0.43 9.88-2.19 0.78-0.35 1.72-0.8 1.72-0.8l-0.12-0.58s-1.86 0.49-3.23 0.79c-2.62 0.58-5.63 0.78-8.13 0.55-6-0.55-6.5-1.65-10.6-0.59-1.75 0.45-3.6 1.36-4.43 3.01-0.54 1.06-0.58 2.32 0.19 3.36 0.53 0.72 1.69 0.87 2.47 0.68 1.07-0.26 2.17-0.82 2.59-1.66 0.13-0.26 0.39-1.02 0.29-1.18-0.15-0.25-0.44 0.15-0.7 0.41-0.94 0.89-2.31 0.91-2.96 0.06-0.86-1.14 0.32-2.21 1.48-2.68 1.37-0.56 2.53-0.47 4.1-0.19 1.79 0.32 4.74 1.01 4.74 1.01s-1.54 1.7-2.19 2.72c-0.87 1.37-1.8 3.77-2.01 3.88-0.22 0.11-0.49 0.1-0.91 0.22-1.04 0.29-1.67 0.88-2.14 1.68-0.07 0.12-0.11 0.25-0.04 0.35 0.09 0.12 0.31 0.27 0.31 0.27s0.27-0.22 0.48-0.38c0.42-0.31 1-0.45 1.44-0.3 0.16 0.06 0.15 0.16 0.14 0.43 0 0.07 0 0.09-0.04 0.16-1.35 2.78-2.11 4.92-4.23 6.87-1.79 1.64-4.9 1.82-6.77 0.3-1.11-0.9-1.98-2.68-1.71-4.1 0.07-0.35 0.22-0.84 0.39-0.89 0.21-0.06 0.59 0.28 0.94 0.41 0.55 0.2 1.45-0.25 1.77-0.75 0.53-0.82 0.34-1.82-0.38-2.39-0.65-0.51-1.75-0.46-2.46-0.07-2.25 1.23-2.05 4.97-1.11 6.8 1.27 2.46 3.93 3.87 6.46 3.8 2.7-0.08 5.01-1.43 7.02-3.64 0.19-0.21 0.36-0.41 0.53-0.63 1.4-1.78 2.17-3.95 3.2-5.91 0.07-0.13 0.11-0.23 0.11-0.28v-0.04zm-50.77-0.23v-0.02s-0.38-0.05-0.66-0.04c-0.94 0.03-2.02 1.03-2.4 1.81-0.74 1.5-0.51 3.81 0.26 5.13 1.1 1.88 2.86 3 4.92 3.55 2.73 0.73 6.26-0.15 8.2-1.96 1.82-1.69 2.55-3.78 2.22-6.28-0.19-1.45-0.75-2.61-1.75-3.55-0.3-0.29-2.53-1.67-3.2-2-1.17-0.57-6.25-2.42-6.91-4.29-0.3-0.86 0-1.78 0.85-2.18 1.59-0.76 3.32-0.22 4.95 0.52 1 0.45 2.3 1.35 2.97 2.26 0.55 0.75 1.27 1.99 1.51 2.1 0.18 0.08 0.32 0.03 0.43-0.13 0.1-0.16-0.49-1.62-0.81-2.75-0.26-0.91-0.19-2.47-0.41-3.07-0.09-0.25-0.23-0.39-0.52-0.29-0.31 0.1-0.56 0.5-0.89 0.66-0.91 0.47-2.93-0.69-3.7-0.96-1.77-0.62-4.54-0.28-5.87 1.27-0.82 0.95-1.12 1.69-1.18 2.79-0.02 0.37-0.03 0.65-0.01 0.91 0.14 1.87 2.24 3.47 3.64 4.32 0.43 0.26 0.82 0.48 1.03 0.57 2.04 0.91 5.6 2.32 6.16 2.72 1.66 1.18 2.16 3.24 1.16 5.19-1.86 3.6-8.12 3.58-10.86 0.76-0.78-0.8-1.48-2.33-1-3.53 0.23-0.57 0.48-0.18 1.26-0.04 0.8 0.14 1.69-0.75 1.85-1.37 0.18-0.74-0.07-1.46-0.71-1.84-0.14-0.08-0.29-0.16-0.44-0.23-0.07-0.03-0.08-0.04-0.08-0.05zm24.26 38.88-3.63-2.49c-2.27-1.55-6.43-4.2-9.1-6.02-0.78-0.53-10.31-8.28-11.4-9.27-1.81-1.65-7.01-6.7-8.3-8.07-0.85-0.9-9.54-11.42-10.34-12.52-1.09-1.49-6.53-9.67-7.58-11.38-8.1-13.32-13.29-26.12-17.33-41.13-0.72-2.68-2.29-9.26-2.74-11.49-1.23-6.12-2.33-14.17-2.81-20.65-0.18-2.41-0.28-4.74-0.37-7.5-0.35-10.29-0.81-39.65-0.81-39.65s0.12-0.07 0.31-0.18c49.23-22.34 99.98-22.2 149.09 0.4 0 0.01 0.02 0.02 0.02 0.03 0.08 0.13 0.09 0.28 0.11 0.43 0.07 0.58-0.71 38.08-0.85 40.89-0.53 10.72-1.33 17.79-3.73 29.18-0.42 1.99-2.44 9.98-3.03 11.97-0.56 1.88-3.79 11.36-4.51 13.22-7.11 18.37-16.93 34.35-30.52 48.71-1.25 1.32-7.23 7.1-8.66 8.37-1.04 0.93-11.34 9.03-12.38 9.75-1.73 1.19-5.01 3.28-8.1 5.26l-3.35 2.14zm-48.87-113.27h-0.04s0.01 0.52 0.08 0.78c0.15 0.61 1.47 0.13 2.1-0.1 1.67-0.62 4.29-2.04 4.55-3.82 0.13-0.84-0.38-0.81-0.92-2.22-0.14-0.37-0.09-0.66 0.15-1.06 0.18-0.3 0.44-0.59 0.59-0.9 0.12-0.24 0.18-0.5 0.22-0.78 0.34-2.02 0.35-2.6 1.74-4.3 1.21-1.49 3.26-3.62 3.95-4.65 0.57-0.85 1.05-1.77 1.44-2.48 0.12-0.23 0.26-0.44 0.44-0.54 0.14-0.08 0.95-0.05 1.22 0.04 0.39 0.13 0.62 0.33 0.96 0.75 0.85 1.07 1.83 2.89 2.4 3.48 1.48 1.52 3.94 3.66 3.88 3.79-0.22 0.49-1.74-0.44-2.25-0.71-0.31-0.17-4.11-1.19-4.95-1.33-2.58-0.43-3.59-0.84-5.49 0.81-1.22 1.06-1.95 2.44-2.09 3.77-0.04 0.36 1.54 13.04 1.66 13.41 0.24 0.71 0.51 1.68 0.52 2.03 0.02 1.18-0.22 1.49 0.52 2.68 0.41 0.66 1.01 1.21 1.44 1.88s0.92 2.27 1.44 3.4c0.33 0.71 1.94 3.38 2.9 4.2 0.87 0.74 1.46 0.44 2.16-0.53 1.08-1.49 1.11-5.16 0.49-6.55-0.24-0.54-0.64-0.98-1.19-1.23-0.73-0.33-2.19-0.66-2.19-0.66s-0.22-2.43-0.47-3.22c-0.16-0.51-0.43-0.9-0.67-1.33-1.18-2.18-1.04-4.34-1.14-6.94-0.02-0.58-0.07-1.18-0.22-1.74-0.22-0.79-0.56-2.05-0.52-2.22 0.12-0.45 0.62-0.81 1.11-0.78 1.13 0.08 1.96 0.98 2.86 1.66 0.51 0.39 3.2 1.89 4.77 2.77 0.56 0.31 1.22 0.79 1.48 1.07 0.24 0.27 0.42 0.57 0.64 0.87 0.57 0.74 1.52 1.53 2.29 1.83 1.99 0.76 2.36 0.34 3.14 1.2 0.39 0.42 1.16 1.58 1.7 2.48 0.58 0.96 1.07 1.83 1.62 2.66 0.4 0.61 3.05 3.77 3.67 4.38 1.33 1.31 11.35 9.49 13.05 11.12 0.38 0.36 2.16 2.06 2.38 2.88 0.05 0.2 0.04 0.45-0.13 0.52-0.08 0.03-0.17 0-0.26-0.04-0.19-0.08-2.63-2.58-2.99-3.07-0.19-0.25-3.67-3.02-3.86-3.07-0.2-0.05-0.42-0.09-0.42-0.09s-0.16 0.55-0.25 0.98c-0.29 1.38-0.03 4.5 0.15 5.54 0.65 3.8 2.25 7.73 4.25 11.3 1.04 1.85 2.62 4.4 2.62 4.4s-0.37 0.99-0.7 1.54c-0.52 0.89-0.98 1.01-2.11 1.03-2.06 0.05-5 0.08-6.13 0-2.8-0.2-7.37-0.76-8.31-0.7-0.51 0.03-1 0.1-1.48 0.22-0.29 0.08-0.58 0.18-0.89 0.26-0.79 0.2-3.88 0.17-5.17 0.41-1.36 0.25-3.72 1.11-4.58 2.19-0.64 0.82-0.25 1.31 0.59 1.91 0.34 0.24 2.63 1.27 3.21 1.44 1.23 0.36 3.1 0.86 3.88-0.24 0.21-0.29 0.36-0.66 0.59-0.96 0.45-0.6 1.04-0.98 1.66-0.87 0.48 0.09 0.95 0.4 1.44 0.52 0.28 0.07 1.01 0.02 1.49-0.09 2.78-0.64 3.12-0.71 6.79-0.39 1.18 0.1 4.74 0.67 5.62 0.89 2 0.5 5.27 1.41 5.87 1.48 0.9 0.1 1.64 0.1 2.14-0.49 0.2-0.23 0.89-1.74 0.92-2.02 0.04-0.29-0.11-1.26-0.26-1.7-0.98-2.89-1.72-3.95-2.11-6.17-0.1-0.61-0.24-4.35-0.18-5.06 0.13-1.68 0.64-3.68 1.37-5.32 1.11-2.5 2.75-4.32 3.36-6.58 0.27-0.98 0.55-2.55 0.55-2.55s0.15 0 0.26 0.04c0.33 0.12 0.21 1.46 0.19 1.66-0.05 0.48-0.25 1.13-0.48 1.7-0.66 1.65-2.55 4.87-3.36 6.83-1.23 2.97-1.29 6.24-0.55 9.75 0.41 1.96 1.59 5.59 2.48 7.13 1.01 1.76 2.8 4.49 2.92 4.95 0.16 0.68-0.18 1.33-0.67 2.09-0.24 0.37-2.23 2.47-2.71 2.86-2.81 2.27-7.87 6.34-8 6.55-0.37 0.61-0.6 1.24-1.04 1.82-0.36 0.47-2.54 2.04-3.83 3.14-0.37 0.32-1.47 1.61-1.63 1.94-0.34 0.66-0.68 1.48-0.08 1.81 0.58 0.31 2.57 0.49 2.92 0.52 2.18 0.14 3.66 0.02 5.47-0.7 0.77-0.31 1.31-0.79 1.07-1.62-0.19-0.65-0.5-1.07-0.26-1.7 0.12-0.32 0.41-0.56 0.75-0.75 1.14-0.65 1.65-0.65 2.09-1.83 0.09-0.24 0.13-0.48 0.22-0.7 0.14-0.33 0.47-0.73 0.78-1.09 2.37-2.75 2.92-3.46 5.59-5.52 0.71-0.55 2.95-1.97 3.42-2.18 0.9-0.39 2.08-0.8 2.26-1.74 0.16-0.88 0.06-2.91-0.26-3.69-0.25-0.61-0.8-1.24-1.15-1.88-0.9-1.66-0.84-3.61-0.07-5.21 0.31-0.64 0.61-1.13 1-1.59 0.4-0.48 5.13-3.7 7-5.28 1.49-1.27 4.6-5.01 5.19-7.24 0.35-1.31 0.72-3.69 0.92-3.97 0.27-0.36 0.81-0.31 1.11 0.14 0.41 0.61 0.38 1.58 0.29 2.31-0.16 1.39-0.61 3.54-0.85 4.88-0.07 0.4-0.05 1.09 0.04 1.4 0.15 0.54 0.48 1.26 0.48 1.26s0.11-1.05 0.29-1.81c0.27-1.08 0.69-1.58 0.89-2.33 0.17-0.62 0.13-2.48 1-2.62 0.48-0.08 0.6 0.8 0.66 1.37 0.17 1.5-0.07 2.68-0.73 4.3-0.66 1.61-3.05 4.58-2.74 6.41 0.06 0.36 0.26 1 0.48 1.28 0.19 0.25 0.55 0.6 0.55 0.6v-1.53c0-0.07 0-0.09 0.03-0.16 0.3-0.88 0.66-1.52 1.3-2.38 1.84-2.47 2.29-2.47 3.25-4.78 0.61-1.46 0.82-2.46 1-4.03 0.05-0.44-0.09-2.34-0.19-2.59-0.07-0.19-1.36-2.06-0.85-2.44 0.44-0.33 1.44 1.34 1.55 1.59 0.77 1.65 0.54 2.5 0.59 4.47 0.03 1.15 0.37 2.35 1.22 3.46 0.12 0.15 0.26 0.31 0.37 0.24 0.04-0.03 0.06-0.08 0.07-0.15 0.09-0.4-0.44-2.61-0.41-3.55 0.02-0.59 0.59-1.98 0.78-2.81 0.08-0.36 0.08-0.75 0-1.14-0.24-1.17-1.08-3.35-1-3.57 0.11-0.29 0.96-0.42 1.99-0.83 3.38-1.31 5.95-4.84 6.8-7.72 0.61-2.08 0.82-4.25 0.59-6.54-0.51-5.18-1.37-5.67-0.46-10.46 0.09-0.48 0.19-0.89 0.38-1.33 0.4-0.88 2.07-2.99 2.56-4.02 0.5-1.04 0.59-1.69 0.43-2.96-0.08-0.63-0.27-0.97-0.59-0.7-0.24 0.2-0.94 2.13-1.55 3.44-0.16 0.34-2.09 2.84-2.45 3.18-0.7 0.65-1.28 1.12-1.65 0.3-0.45-0.99-0.33-2.55-0.07-3.44 0.17-0.59 0.41-1.18 0.74-1.77 0.69-1.23 2.49-3.33 3.14-4.51 0.45-0.8 1.46-3.13 1.18-3.99-0.17-0.54-0.47-0.46-0.81-0.06-0.37 0.44-1.2 1.87-1.74 2.78-0.32 0.54-0.71 1.09-1.07 1.44-0.61 0.58-1.57 1.27-1.77 1.64-0.04 0.07-0.06 0.14-0.11 0.23-0.23 0.38-2.38 2.04-2.38 2.04s-0.11-1.35-0.09-2.23c0.04-2.02 1.5-5.38 2.77-6.85 1.09-1.27 3.25-3.29 3.32-3.56 0.07-0.28-0.03-0.45-0.37-0.37-0.31 0.08-0.63 0.3-0.95 0.52-1.62 1.13-2.57 1.75-3.71 2.97-1.3 1.38-2.39 2.96-3.03 4.53-1.03 2.51-1.21 5.43-0.81 8.02 0.28 1.8 1.1 4.5 1.55 6.72 0.62 3.06 0.93 8.33 0.15 11.45-0.6 2.4-1.89 4.44-3.78 6.1-1.36 1.19-2.68 1.78-4.6 2.47-0.26 0.09-0.49 0.17-0.85 0.22-0.67 0.09-1.77 0.08-1.77 0.08s-0.99-3.29-1.67-4.83c-1.18-2.7-4.61-6.64-6.54-8.54-0.77-0.75-3.04-2.67-3.78-3.19-1.04-0.73-2.36-1.56-3.02-2.12-2.29-1.96-5.41-6.53-6.61-9.48-0.93-2.29-1.29-4.38-0.74-6.69 0.17-0.69 0.37-0.88 1.04-0.59 0.46 0.2 0.85 0.61 1.33 0.89 0.5 0.28 2.18 0.53 3.14 0.89 0.34 0.13 0.64 0.29 0.96 0.52 1.11 0.78 3.05 2.44 3.44 2.55 0.2 0.06 0.45 0.08 0.59-0.07 0.29-0.32-0.28-0.56-0.61-0.78-0.26-0.17-0.58-0.55-0.79-0.9-0.78-1.3-0.8-1.59-1.97-2.46-0.14-0.1-0.27-0.19-0.43-0.26-0.38-0.15-1.06-0.16-1.26-0.46-0.07-0.11-0.04-0.19 0.1-0.24 0.46-0.2 1.93 0.31 2.23 0.48 0.79 0.45 1.98 1.61 2.33 1.7 0.16 0.04 0.27-0.01 0.33-0.26 0.09-0.38-0.12-0.69-0.33-0.92-0.85-0.95-2.79-2.57-4.03-2.92-0.83-0.23-1.01-0.12-1.92-0.63-0.37-0.21-0.55-0.45-0.31-0.59 0.1-0.06 2.82 0.56 3.23 0.74 1.11 0.48 4.11 2.04 5.87 2.03 0.98 0 2.63-0.39 3.34-1.03 0.13-0.12 0.41-0.38 0.42-0.55 0.01-0.15-0.04-0.37-0.04-0.37s-0.18 0-0.33 0.04c-0.21 0.04-0.68 0.44-1 0.67-0.18 0.12-1.29 0.37-1.66 0.37-0.75 0-1.51-0.18-2.05-0.63-0.74-0.61-1.72-1.91-2.44-2.44-0.69-0.51-1.6-0.62-2.83-1.03-0.75-0.26-1.82-0.75-2.42-1.11-0.06-0.04-0.38-0.25-0.21-0.34 0.03-0.02 0.07-0.02 0.08-0.06v-0.04s1.54 0.53 2.74 0.69c0.87 0.12 3.97-0.23 4.39-0.1 0.77 0.24 1.64 0.88 2.25 1 0.31 0.06 0.45-0.05 0.39-0.35-0.02-0.07-0.03-0.09-0.08-0.13-1.49-1.21-2.73-2.51-4.48-2.73-0.35-0.04-1.58 0.01-1.58-0.29 0-0.12 0.47-0.27 0.8-0.34 0.77-0.16 1.57 0 2.37 0.44 1.07 0.59 1.07 0.79 1.96 1 0.77 0.18 2.15 0.42 2.75 0.04 0.2-0.13 0.15-0.54-0.02-0.66-0.21-0.15-0.81-0.2-1.22-0.33-0.18-0.06-0.32-0.13-0.46-0.22-0.74-0.46-1.69-1.41-2.31-1.7-1.53-0.71-2.56-0.21-3.58-1.46-0.21-0.26-0.21-0.46-0.01-0.54 0.13-0.05 0.88 0.11 1.16 0.26 0.58 0.31 1.81 1.35 2.29 0.81 0.39-0.44-1.06-1.03-1.74-1.71-0.17-0.18-0.33-0.49-0.19-0.61 0.05-0.04 0.13-0.03 0.22 0 0.65 0.19 1.96 1.07 2.85 1.37 0.4 0.14 0.71 0.15 1.03 0.33 0.43 0.24 1.75 2.11 2.54 1.74 0.44-0.21-0.2-0.66-0.47-0.9-0.36-0.34-0.87-1.45-1.29-2.15-0.65-1.05-1.32-1.52-2.28-1.9-0.46-0.18-1-0.48-1.29-0.74-0.64-0.57-1.12-1.53-1.62-1.92-0.28-0.22-0.61-0.32-1.04-0.52-0.69-0.31-0.84-0.42-0.72-0.68 0.14-0.29 0.32-0.3 0.8-0.28 0.08 0 0.09 0 0.16 0.03 1.24 0.38 3.5 1.01 3.71 1.16 0.44 0.32 0.75 0.76 1.18 1.14 1.09 0.97 2.4 1.44 3.71 1.33 0.52-0.04 1.2-0.12 1.11-0.52-0.04-0.17-0.2-0.32-0.38-0.44-0.52-0.34-1.82-0.53-2.48-0.92-0.87-0.51-0.89-1.09-1.27-2.06-0.3-0.77-0.94-1.48-1.57-1.97-0.85-0.65-2.02-1.19-2.78-1.85-0.27-0.24-1.35-1.35-0.98-1.63 0.07-0.05 0.2-0.03 0.33 0 0.73 0.18 2.19 1.12 3.36 1.52 0.87 0.29 1.89 0.41 2.4 0.7 0.7 0.4 1.45 1.26 1.96 1.48 0.19 0.08 1.65 0.45 2.09 0.15 0.27-0.18 0-0.52-0.29-0.7-0.42-0.27-1.03-0.36-1.41-0.63-0.12-0.09-0.22-0.19-0.31-0.31-0.21-0.27-0.36-0.62-0.59-0.89-0.4-0.47-1.56-1-1.96-1.47-0.34-0.4-0.47-0.94-0.78-1.37-0.5-0.7-1.85-1.54-2.62-1.86-1.04-0.43-2.67-0.9-2.67-0.9s0-0.18 0.05-0.31c0.1-0.29 0.69-0.35 0.96-0.35 0.76 0.02 1.39 0.55 2.18 1 0.5 0.28 1.22 0.57 1.7 0.66 0.45 0.09 0.89 0.11 1.37 0.22 1.97 0.46 2.73 1.35 3.97 0.63 0.3-0.17 0.37-0.45 0.11-0.59-0.23-0.12-0.67-0.09-1.05-0.18-0.44-0.11-1.19-0.74-1.74-1.07-0.62-0.38-1.59-0.45-2.5-0.92-0.24-0.13-2.3-2.17-2.34-2.33-0.04-0.15 0.07-0.28 0.26-0.22 0.36 0.11 0.9 0.68 1.4 1 0.8 0.51 2.16 0.63 3.18 0.44 0.79-0.14 1.05-0.31 1.55-0.3 0.25 0 1.15 0.35 1.35 0.52 0.04 0.03 1.23 1.56 1.54 1.22 0.02-0.03 0.04-0.06 0.06-0.07h0.04c0.06 0 0.03-0.32-0.04-0.52-0.14-0.43-1.22-1.35-1.6-1.59-1.97-1.25-2.47-0.99-4.78-1.41-1.02-0.18-1.11-0.68-2.04-1.76-0.34-0.39-0.7-0.7-1.08-0.93-0.82-0.48-2.69-0.98-2.39-1.66 0.09-0.21 0.2-0.16 0.54-0.15 0.07 0 0.09 0 0.16 0.03 1.78 0.56 3.77 1.39 5.13 1.42 1.54 0.03 2.49-0.37 3.44 0.04 0.55 0.24 1.19 0.75 1.77 0.96 0.46 0.17 1.28 0.33 1.18-0.07-0.1-0.42-0.94-0.79-1.35-1.07-0.48-0.33-0.89-0.85-1.33-1.18-0.49-0.37-1.64-0.8-2.31-0.89-0.5-0.06-0.88 0.03-1.33-0.07-0.43-0.1-2.15-1.33-3.07-1.88-0.27-0.16-0.52-0.28-0.92-0.41-0.81-0.26-2.27-0.59-2.27-0.59s0.39-0.27 0.75-0.48c0.59-0.34 3-1.03 3.58-0.92s1.1 0.59 1.52 0.44c0.47-0.17 0.41-0.45 0.15-0.79-0.52-0.68-1.35-1.13-1.92-1.2-1.09-0.14-4.77 0.14-5.06 0-0.06-0.03-0.11-0.06-0.16-0.08-0.15-0.06-0.33-0.06-0.5-0.11s-1.09-1.03-1.68-1.62c-0.7-0.7-1.59-1.09-2.38-1.18-0.54-0.07-1.25-0.05-1.87-0.07-0.07 0-0.09 0-0.14-0.06-0.65-0.7-1.33-1.52-1.96-2.08-0.6-0.54-1.16-0.84-2.03-1.66-0.5-0.47-1.11-1.11-1.11-1.11s-0.62 1.81-0.79 2.59c-0.05 0.23-0.06 0.38 0 0.56 0.3 0.9 0.77 1.05 0.21 1.51-0.45 0.37-0.9 0.34-1.57 0.21-0.85-0.17-2.52-1.08-3.48-1.28-0.43-0.09-1.03-0.12-1.55-0.07-0.94 0.08-2.48 0.38-2.48 0.38s0.22 0.22 0.45 0.36c0.39 0.24 1.2 0.2 1.59 0.41 0.18 0.09 0.21 0.19 0.06 0.3-0.48 0.34-1.85 0.01-2.31 0.04-0.26 0.01-1.58 0.36-1.85 0.66-0.06 0.07-0.07 0.15 0.02 0.23 0.03 0.03 0.04 0.03 0.12 0.02 0.67-0.05 1.58-0.19 2.01-0.14 0.89 0.11 2.44 0.83 3.03 0.85 0.3 0.01 0.73-0.03 0.74 0.17 0 0.05-0.04 0.11-0.11 0.17-0.16 0.14-0.46 0.31-0.37 0.44 0.02 0.02 0.06 0.03 0.11 0.04 0.51 0.04 1.05-0.16 1.14 0.16 0.02 0.06 0.04 0.15 0.04 0.15s-1.59 0.6-2.66 1.13c-1.23 0.61-1.79 1.13-2.62 1.62-0.59 0.36-4.45 2.11-5.84 2.4-1.92 0.4-2.91 0.25-3.92 1.23-0.75 0.74-1.99 2.92-2.11 4.05-0.05 0.53 0.1 1.81 0.33 2.2 0.15 0.26 0.34 0.31 0.66 0.31 0.43 0 2.31-0.34 2.81-0.52 0.7-0.24 1.67-0.77 1.96-0.24 0.27 0.5-1.04 0.9-1.55 1.01-0.82 0.18-2.06 0.28-1.96 0.92 0.09 0.55 1.03 0.84 1.51 0.89 0.36 0.03 0.73 0.03 1.11-0.04 0.87-0.16 2-0.78 2.88-1 0.38-0.09 1.03-0.11 1.51-0.04 1.75 0.25 5.33 1.28 6.21 1.33 0.86 0.05 1.78-0.07 2.67-0.11 0.08 0 0.09 0 0.14 0.05 0.95 0.88 0.39 1.85-0.16 3.27-0.4 1.04-2.24 4.98-2.66 5.69-0.37 0.62-0.75 1.19-1.18 1.8-0.53 0.74-2.63 3.2-3.04 3.56-0.71 0.62-1.2 0.92-1.87 1.79-1.21 1.57-1.58 2.79-3.14 3.72-0.72 0.43-1.76 0.7-2.55 1.03-0.51 0.22-1.07 0.55-1.76 1.07-1.01 0.76-2.53 1.98-2.53 1.98s-6.88-4.39-7.19-4.75c-0.2-0.24-0.34-0.47-0.54-0.72-1.2-1.53-2.9-2.51-4.77-2.79-2.79-0.42-4.21 2.21-5.65 4.71-1.05 1.82-2.45 4.1-3.1 5.41-0.46 0.91-0.85 1.82-1.33 2.73-1.01 1.93-2.42 3.89-3.4 5.65-0.23 0.42-0.44 0.82-0.55 1.26-0.2 0.77-0.11 1.64-0.33 2.44-0.22 0.78-0.78 1.55-1.07 2.25-0.17 0.42-0.27 0.92-0.36 1.67-0.11 0.87-0.23 2.13-0.23 2.13zm46.48-64.42c-0.03 0.1 0.04 0.26 0.11 0.39 0.29 0.52 1.66 1.26 2.4 1.38 0.49 0.08 0.73 0 0.7-0.55-0.01-0.23-0.11-0.42-0.22-0.63-0.45-0.83-1.82-2.92-1.96-2.99-0.12-0.06-0.21 1.01-0.55 1.57-0.17 0.28-0.41 0.6-0.48 0.83z" fill="#ffc800"/>
  <g fill="#fff">
   <path d="m87.59 36.54c0.08 0.28-0.41 0.21-0.48 0.2-0.3-0.05-1.66-0.38-1.37-0.89 0.26-0.46 1.03-0.28 1.31-0.05 0.18 0.15 0.46 0.47 0.54 0.74z"/>
   <path d="m89.06 39.74c0 0.06-0.08 0.13-0.16 0.17-0.33 0.17-1.58-0.34-1.72-0.61-0.17-0.32 0.12-0.52 0.48-0.57 0.49-0.07 0.8 0.14 1.14 0.57 0.11 0.14 0.23 0.32 0.25 0.44z"/>
   <path d="m78.61 39.98s-0.03 0.13-0.07 0.18c-0.21 0.23-0.47-0.32-0.64-0.48-0.18-0.16-0.41-0.23-0.66-0.29-0.26-0.06-0.76-0.17-0.69-0.43 0.05-0.16 0.34-0.21 0.52-0.21 0.74 0.02 1.35 0.4 1.55 1.22z"/>
   <path d="m66.29 42.72s-0.08 0.03-0.12 0c-0.06-0.05-0.11-0.21-0.11-0.21s1.14-0.42 1.96-0.72c0.79-0.29 2-0.86 2.33-1.11 0.26-0.19 1.41-1.25 1.68-1.05 0.3 0.22-0.24 0.85-0.55 1.2-1.3 1.45-2.51 1.53-5.04 1.87-0.08 0-0.09 0.01-0.14 0.02z"/>
   <path d="m75.14 41.49v0.04l-0.38-0.03c-0.07 0-0.09 0-0.13-0.04-0.39-0.33 0.11-0.99 0.45-1.22s1.32-0.42 1.65-0.33c0.74 0.19 1.62 1.44 1.44 2.22-0.1 0.42-0.39 0.66-0.7 0.55-0.34-0.12-0.84-0.77-1.2-1.07-0.15-0.13-0.34-0.2-0.58-0.19-0.23 0.01-0.55 0.07-0.55 0.07z"/>
   <path d="m87.79 42.42 3.12 0.29c0.08 0 0.09 0.01 0.15 0.06 0.23 0.16 0.39 0.25 0.3 0.36-0.21 0.23-1.31 0.12-1.48 0.15-0.51 0.09-2.22 1.43-2.44 0.44-0.06-0.25 0.02-0.78 0.15-1 0.08-0.13 0.2-0.3 0.2-0.3z"/>
   <path d="m61.03 45.89c0.14 0.3-0.06 0.49-0.26 0.59-0.23 0.11-0.52 0.25-0.75 0.44-0.57 0.48-1.01 1.3-1.27 0.52-0.17-0.52 0.35-2.09 1.07-2.25 0.48-0.11 0.96 0.17 1.22 0.7z"/>
   <path d="m90.88 46.81c0.04 0.1-0.09 0.21-0.13 0.22-0.17 0.06-1.01-0.13-1.12-0.16-0.23-0.07-0.84-0.32-0.71-0.59 0.17-0.33 0.85-0.39 1.07-0.32 0.37 0.11 0.7 0.43 0.89 0.85z"/>
   <path d="m78.6 46.95-1.98 2.46c-0.05 0.06-0.06 0.07-0.13 0.1-0.14 0.07-0.27 0.14-0.43 0.19-0.48 0.15-1.41 0.13-1.76-0.07-0.18-0.1-0.09-0.26 0.11-0.41 0.51-0.38 1.43-0.62 2.22-1.15 0.78-0.52 1.48-1.36 1.85-1.48 0.16-0.05 0.18 0.01 0.16 0.21 0 0.07 0 0.09-0.06 0.15z"/>
   <path d="m66.13 47.8c0.16 0.32-0.34 0.75-0.56 0.83-0.26 0.09-0.56-0.15-0.52-0.48 0.05-0.35 0.5-0.68 0.81-0.55 0.11 0.04 0.22 0.14 0.26 0.21z"/>
   <path d="m81.42 48.7c0.09 0.51-0.32 1.1-0.66 1.29-0.22 0.12-1.46 0.58-1.74 0.44-0.05-0.02-0.05-0.07-0.04-0.13 0.04-0.13 2.31-1.82 2.37-1.76 0.04 0.04 0.07 0.11 0.07 0.15z"/>
   <path d="m91.1 49.51c0.09 0.33-0.18 0.35-0.44 0.3-0.44-0.1-1.88-0.42-1.66-0.89 0.22-0.48 1.1-0.43 1.42-0.18 0.16 0.12 0.32 0.29 0.5 0.5 0.08 0.1 0.16 0.2 0.19 0.28z"/>
   <path d="m82.2 50.14c0.18 0.38-0.35 1-0.57 1.18-0.08 0.07-0.15 0.11-0.24 0.15-0.21 0.09-2.34 0.15-2.62 0.07-0.17-0.04-0.22-0.11-0.07-0.26 0.2-0.2 1.56-0.36 2.29-0.66 0.36-0.15 0.61-0.37 1.04-0.49 0.08-0.02 0.16-0.04 0.18 0z"/>
   <path d="m91.44 52.39h-0.04v0.04h-0.37c-0.48 0-2.21-0.41-1.85-1.05 0.25-0.44 1.1-0.43 1.49-0.16 0.21 0.15 0.44 0.44 0.61 0.63 0.07 0.08 0.13 0.14 0.15 0.28 0.01 0.11 0 0.26 0 0.26z"/>
   <path d="m91.4 55.31c0.08 0.3-0.32 0.27-0.48 0.24-0.28-0.06-2.17-0.42-1.81-1.04 0.3-0.52 1.17-0.43 1.53-0.16 0.35 0.26 0.65 0.57 0.76 0.96z"/>
   <path d="m91.55 58.49c0.07 0.13-0.1 0.28-0.13 0.3-0.39 0.14-2.18-0.61-2.25-0.65-0.36-0.21-0.48-0.44-0.12-0.75 0.37-0.32 1.13-0.29 1.54-0.07 0.37 0.2 0.69 0.68 0.96 1.18z"/>
   <path d="m81.13 58.15c0.02 0.18 0.02 0.47 0 0.74-0.03 0.39-0.65 2.64-0.85 3.05-0.64 1.32-1.93 3.19-3.07 4.5-0.89 1.04-1.77 1.89-1.92 1.57-0.04-0.09 1.85-3.13 2.92-4.8 0.41-0.64 0.69-1.19 0.89-1.77 0.64-1.86 0.71-3.11 1.41-4.08 0.13-0.18 0.35-0.26 0.45-0.07 0.08 0.16 0.15 0.64 0.17 0.86z"/>
   <path d="m90.99 61.33c0.06 0.13-0.1 0.25-0.13 0.26-0.28 0.07-1.47-0.3-1.6-0.37-0.54-0.27-0.82-0.56-0.35-0.89 0.55-0.39 1.38-0.1 1.76 0.42 0.13 0.18 0.26 0.43 0.33 0.58z"/>
   <path d="m90.51 63.88c0.13 0.33-0.37 0.28-0.52 0.26-0.41-0.06-1.56-0.39-1.37-0.86 0.17-0.4 0.89-0.39 1.22-0.21 0.15 0.08 0.55 0.53 0.66 0.81z"/>
   <path d="m89.74 66.58c-0.44-0.05-1.01-0.14-1.29-0.46-0.17-0.19-0.05-0.41 0.29-0.5 0.22-0.06 0.49 0.02 0.69 0.15s0.45 0.45 0.46 0.59c0 0.05 0 0.1-0.06 0.12-0.04 0.01-0.09 0.02-0.08 0.06v0.04z"/>
   <path d="m89.22 68.68c0.04 0.08-0.04 0.16-0.09 0.19-0.31 0.15-1.09-0.21-1.24-0.46-0.08-0.13-0.04-0.27 0.13-0.35 0.44-0.22 0.99 0.16 1.2 0.63z"/>
   <path d="m45.1 69.64s-0.01 0.15-0.04 0.24c-0.03 0.13-0.09 0.14-0.17 0.16-0.74 0.17-1.23 0.25-1.61 0-0.22-0.14-0.08-0.33 0.21-0.52 0.46-0.31 1.12-0.5 1.5-0.01 0.02 0.02 0.04 0.05 0.05 0.08 0.02 0.04 0.02 0.04 0.03 0.04h0.03z"/>
   <path d="m88.63 70.6c0.02 0.05 0 0.16-0.04 0.22-0.14 0.19-0.88-0.14-1.05-0.26-0.16-0.11-0.26-0.24-0.2-0.38 0.16-0.37 0.68-0.26 0.91-0.06 0.14 0.13 0.32 0.34 0.39 0.48z"/>
   <path d="m87.7 72.54c0.13 0.18 0.17 0.34-0.03 0.39-0.16 0.04-0.77-0.14-0.86-0.32-0.12-0.23 0.18-0.35 0.37-0.35s0.39 0.1 0.52 0.27z"/>
   <path d="m73.66 74.67c0.08 0.12-0.07 0.25-0.09 0.26-0.29 0.15-0.56-0.14-1.13-0.44-0.76-0.41-2.69-0.59-3.25-0.63-0.44-0.03-2.31 0.22-2.59 0.33-0.52 0.22-1.34 0.7-1.18-0.07 0.18-0.91 2.93-1.24 3.55-1.26 1.47-0.05 3.02 0.28 4.27 1.37 0.17 0.15 0.33 0.32 0.42 0.44z"/>
   <path d="m39.97 73.93c0 0.07 0.01 0.18 0 0.3-0.02 0.18-1.8 2.99-2.22 3.49-0.28 0.34-0.73 0.85-0.92 0.52-0.24-0.4 0.44-1.61 0.66-2.02 0.23-0.41 1.31-2.59 2-2.66 0.29-0.03 0.43 0.03 0.48 0.37z"/>
   <path d="m86.89 74.65c0.06 0.1-0.04 0.21-0.1 0.23-0.17 0.06-0.64-0.09-0.71-0.26-0.04-0.09 0.02-0.21 0.13-0.26 0.17-0.08 0.55 0.05 0.68 0.28z"/>
   <path d="m48.71 78.99c-0.69-0.65-1.63-1.73-1.72-2.48-0.05-0.38 0.06-0.51 0.38-0.41 0.52 0.17 2.17 2.15 1.87 2.76-0.02 0.04-0.32 0.32-0.53 0.13z"/>
   <path d="m86.04 76.66c0.06 0.1-0.06 0.21-0.1 0.22-0.18 0.07-0.61-0.07-0.68-0.28-0.05-0.17 0.15-0.29 0.33-0.27 0.15 0.02 0.35 0.17 0.44 0.33z"/>
   <path d="m57.32 79.13-3.37 4.81c-0.04 0.06-0.05 0.07-0.09 0.07-0.51 0.06 0.28-1.41 0.51-1.85 0.68-1.31 1.22-2.56 2.2-3.25 0.26-0.19 0.81-0.46 0.83-0.16 0 0.06 0 0.15-0.02 0.23-0.01 0.07-0.02 0.09-0.06 0.15z"/>
   <path d="m39.89 83.5s0.01 0.12 0 0.18c-0.04 0.23-0.59 1.2-0.91 1.29-0.26 0.08-0.29-0.21-0.23-0.48 0.09-0.43 0.34-1 0.74-1.18 0.18-0.08 0.33-0.02 0.41 0.19z"/>
   <path d="m32.24 86.01c0.07 0.43-0.56 1.77-0.83 1.92-0.16 0.1-0.33 0.06-0.39-0.1-0.25-0.59 0.44-1.71 0.91-1.97 0 0 0.27-0.06 0.31 0.15z"/>
   <path d="m89.65 100.25c0.08 0.1-0.37 0-0.73-0.13-0.89-0.33-3.77-3.03-4.06-3.34-1.52-1.63-3.22-5.08-3.58-7.52-0.14-0.97-0.17-1.97 0.59-1.81 0.15 0.03 0.23 0.11 0.29 0.24 0.23 0.41 0.47 2.57 0.85 3.94 0.37 1.35 1.67 3.5 2.59 4.56 1.15 1.35 3.13 2.97 4.05 4.06z"/>
   <path d="m50.35 91.11c0.03 0.18-0.12 0.31-0.16 0.33-0.09 0.04-0.21 0.05-0.36 0.04-0.21-0.02-5.01-2.57-5.06-2.68s-0.02-0.28 0.16-0.38c0.54-0.3 2.73 0.84 3.27 1.15 0.06 0.04 1.73 0.95 2.03 1.34 0.05 0.07 0.1 0.15 0.11 0.21z"/>
   <path d="m39.1 92.27c0 0.17-0.02 0.42-0.02 0.68 0 0.86 0.84 4.14 0.74 4.37-0.05 0.12-0.19 0.21-0.39 0.1-0.29-0.16-0.78-1.16-0.86-1.4-0.19-0.53-0.54-3.34-0.18-4.14 0.08-0.18 0.26-0.27 0.46-0.15 0.09 0.06 0.24 0.31 0.25 0.54z"/>
   <path d="m30.32 93.51c0.09 0.43-0.16 1.31-0.46 1.51-0.22 0.15-0.44-0.16-0.5-0.44-0.07-0.31 0.07-1.5 0.55-1.48 0.19 0 0.36 0.19 0.41 0.41z"/>
   <path d="m74.6 112.27c0.04 0.08-0.2 0.05-0.42 0-0.25-0.06-1.25-0.69-1.58-1-1.18-1.1-3.02-2.41-4.37-3.6-0.66-0.57-1.2-1.12-1.77-1.73-0.23-0.24-4.74-5.26-5.17-6.93-0.09-0.33-0.05-0.57 0.26-0.52 0.14 0.03 0.26 0.12 0.39 0.22 0.57 0.46 4.38 5.41 6.39 7.57 1.12 1.21 3.33 2.96 5.23 4.78 0.43 0.41 0.89 0.9 1.05 1.2z"/>
   <path d="m120.88 101.83s0.08-0.1 0.13-0.13c0.65-0.34 0.78 2.93 0.79 3.51 0.05 3.33-0.25 6.24-2.29 8.59-0.55 0.63-2.66 2.77-3.47 3.08-0.1 0.04-0.2 0.06-0.27 0-0.02-0.03-0.04-0.06-0.06-0.07h-0.04c-0.03 0 0-0.11 0.04-0.22 0.13-0.35 2.29-2.46 3.21-3.64 1.33-1.7 2.01-4.8 2.07-6.85 0.04-1.45-0.12-3.2-0.11-4.27z"/>
   <path d="m89.55 108.36c0.02 0.06-0.02 0.16-0.07 0.24-0.18 0.3-1.81 1.18-2.07 1.54-0.52 0.73-0.21 2.41-1.04 2.05-1.06-0.46-0.21-2.48 0.72-3.29 0.48-0.42 1.81-1.03 2.24-0.78 0.1 0.05 0.2 0.15 0.22 0.22z"/>
   <path d="m45.55 111.9s-0.03 0.17-0.08 0.28c-0.1 0.21-0.45 0.24-0.59 0.2-0.33-0.11-0.81-0.89-0.92-1.22-0.05-0.14-0.08-0.3 0-0.38 0.03-0.02 0.06-0.04 0.07-0.06v-0.04c0-0.05 0.16-0.04 0.3 0 0.29 0.08 1.12 0.7 1.17 1.15 0 0.06 0 0.07 0.02 0.07z"/>
   <path d="m104.66 120.84c0.13 1.42-0.37 3.09-1 3.9-0.26 0.33-0.62 0.51-0.81 0.18-0.08-0.13-0.07-0.36-0.04-0.57 0.09-0.54 0.4-1.01 0.48-1.59 0.16-1.12-0.52-2.57 0.37-2.99 0.29-0.14 0.7 0.17 0.89 0.61 0.06 0.15 0.1 0.34 0.11 0.46z"/>
   <path d="m85.49 127.9c-0.14 0.65-0.62 1.73-0.78 2.55-0.07 0.38-0.06 0.71-0.04 1.07 0.05 0.62 0.19 1.56-0.11 1.77-0.32 0.23-0.58-0.32-0.7-0.89-0.32-1.46-0.33-2.83 0.29-3.86 0.21-0.34 0.82-1.11 1.16-0.91 0.09 0.05 0.19 0.18 0.17 0.26z"/>
   <path d="m80.05 140.77v0.02s-0.18 0-0.28-0.04c-0.31-0.11 0.02-0.48 0.19-0.63 0.22-0.2 0.76-0.45 0.87 0.04v0.11c0 0.05-0.01 0.06-0.07 0.1-0.28 0.21-0.32 0.24-0.63 0.35-0.07 0.03-0.08 0.03-0.08 0.04z"/>
   <path d="m64.24 141.46c0.05 0.09-0.04 0.19-0.09 0.22-0.21 0.12-0.68 0.11-0.83-0.04-0.24-0.23 0.04-0.32 0.26-0.37 0.32-0.07 0.51-0.07 0.67 0.18z"/>
   <path d="m74.88 141.86c0.21 0.17 0.1 0.34-0.04 0.44-0.45 0.33-2.74 0.31-3.24 0.33-1.42 0.05-2.66 0.08-3.88-0.52-0.16-0.08-0.51-0.38-0.37-0.64 0.02-0.04 0.05-0.07 0.09-0.09 0.04-0.04 0.06-0.04 0.13-0.03 1.6 0.18 3.74 0.48 4.81 0.51 0.8 0.02 1.58-0.02 2.38-0.04 0.08 0 0.09 0 0.13 0.04z"/>
   <path d="m54.01 142.01c0.15 0.33-0.46 0.75-0.63 0.81-0.35 0.13-0.54 0.05-0.79-0.15-0.33-0.26-0.25-0.51 0.13-0.7 0.22-0.11 0.99-0.21 1.11-0.15 0.08 0.05 0.16 0.12 0.18 0.18z"/>
   <path d="m92.88 150.8s0.01 0.1 0 0.18c-0.02 0.15-0.26 0.44-0.41 0.48-0.05 0.02-0.1 0.03-0.11 0.07v0.04h-0.18c-0.07 0-0.09 0-0.12-0.03-0.2-0.14-0.16-0.54-0.11-0.64 0.13-0.29 0.61-0.51 0.82-0.23 0.02 0.02 0.04 0.05 0.05 0.08 0.01 0.04 0.02 0.04 0.03 0.04h0.02z"/>
   <path d="m88.26 152.83c-0.72 0.9-4.74 5.1-5.57 5.28-0.1 0.02-0.24 0.02-0.27-0.1-0.06-0.21 0.33-0.75 0.44-0.9 0.28-0.37 4.33-4.18 4.56-4.29 0.16-0.07 0.5-0.25 0.65-0.18 0.09 0.04 0.23 0.13 0.19 0.18z"/>
   <path d="m78.91 159.99v-0.03s0.16-0.02 0.26 0c0.19 0.04 0.24 0.35 0.19 0.49-0.1 0.27-0.76 0.68-1 0.73-0.28 0.06-0.38-0.11-0.3-0.41 0.1-0.35 0.4-0.48 0.78-0.73 0.06-0.04 0.07-0.05 0.07-0.06z"/>
   <path d="m72.23 167.95-0.48 0.03c-0.08 0-0.09 0-0.14-0.04-0.06-0.04-0.12-0.11-0.15-0.17-0.02-0.04-0.02-0.04-0.03-0.04h-0.02s-0.02-0.24 0-0.41c0.04-0.31 0.7-1.06 0.83-1.18 0.44-0.4 1.14-0.58 1.28 0.15 0.1 0.52-0.29 0.4-0.79 0.7-0.06 0.04-0.11 0.08-0.13 0.13-0.06 0.14 0 0.4-0.07 0.57-0.04 0.08-0.1 0.13-0.15 0.2-0.05 0.06-0.06 0.06-0.14 0.07z"/>
  </g>
  <path d="m154.67 36.67c0.04-4.4 0.09-8.81 0.16-13.21l-77.49-13.92-77.18 13.96v2.63c0.04 3.32 0.1 6.84 0.15 10.4l3.25-1.45c48.42-21.67 98.68-21.74 147.05-0.22l4.07 1.81z" fill="#e10000"/>
 </g>
 <metadata>
  <rdf:RDF>
   <cc:Work rdf:about="">
    <dc:title>Scuderia Ferrari logo</dc:title>
   </cc:Work>
  </rdf:RDF>
 </metadata>
</svg>
