<?xml version="1.0" encoding="UTF-8"?>
<svg data-name="Layer 1" version="1.1" viewBox="0 0 100 100" xmlns="http://www.w3.org/2000/svg" xmlns:cc="http://creativecommons.org/ns#" xmlns:dc="http://purl.org/dc/elements/1.1/" xmlns:rdf="http://www.w3.org/1999/02/22-rdf-syntax-ns#">
 <title>Haas F1 Team logo</title>
 <path d="m53.512 23.297c-14.584 0.002278-26.396 11.956-26.396 26.703 0 0.528-4.3e-5 1.034 0.035157 1.5488h-3.4492a0.4048 0.4048 0 0 0-0.36914 0.25586c-0.0572 0.1364-3.12 5.5823-3.1992 5.7188-0.0792 0.1364-0.056343 0.2168 0.097657 0.2168h8.0039a26.444 26.444 0 0 0 25.277 18.963c14.59 0 26.4-11.954 26.4-26.703 0-14.747-11.812-26.701-26.396-26.703h-0.001953-0.001953zm-0.003907 6.0938a20.161 20.161 0 0 1 14.625 6.291c-1.606 2.7412-8.8 15.124-9.7812 16.928-0.5632-1.32-3.1585-1.0561-4.4961-1.0781-0.5808 0.9812-3.3145 6.1914-3.3145 6.1914h2.8652c1.3552 0 1.4728 1.4066 0.94922 2.291s-2.6738 4.6992-2.6738 4.6992h6.9121l13.311-23.504a20.5 20.5 0 0 1 1.9609 8.7949c0 11.365-9.1198 20.588-20.357 20.588v0.003906a20.17 20.17 0 0 1-14.221-5.8594h5.7188s16.425-29.253 16.482-29.385c0.0572-0.132 0.040182-0.19726-0.074219-0.19726h-6.7051c-0.1364 0-0.15376 0.040456-0.19336 0.097656s-9.2402 16.279-9.2402 16.279h-12.07c-0.038133-0.51627-0.05664-1.0326-0.05664-1.5488 0-11.361 9.1042-20.592 20.359-20.592zm-18.859 28.35h7.0312l-3.3926 5.9355a21.34 21.34 0 0 1-3.6387-5.9355z"/>
 <metadata>
  <rdf:RDF>
   <cc:Work rdf:about="">
    <dc:title>Haas F1 Team logo</dc:title>
   </cc:Work>
  </rdf:RDF>
 </metadata>
</svg>
