<?xml version="1.0" encoding="UTF-8"?>
<svg version="1.1" viewBox="0 0 100 100" xmlns="http://www.w3.org/2000/svg" xmlns:cc="http://creativecommons.org/ns#" xmlns:dc="http://purl.org/dc/elements/1.1/" xmlns:rdf="http://www.w3.org/1999/02/22-rdf-syntax-ns#">
 <title>McLaren Formula 1 team logo</title>
 <path d="m77.699 28.012c-8.5791-0.03332-17.237 1.5326-25.418 3.6621-10.865 2.7979-21.425 6.6875-31.678 11.225-3.0966 1.3862-6.3485 2.9382-9.4473 4.5078-0.28604 0.17938-1.2818 0.60571-1.3477 0.70898v0.001954 0.001953 0.001953 0.001953 0.001953 0.001953h0.0019531v0.001953h0.0019531v0.001953h0.0019531 0.0019531c0.032813 0.013169 0.16438-0.006896 0.44141-0.078125 8.0025-1.515 16.162-2.359 24.311-2.1445 5.9173 0.27999 12.154 1.2291 17.023 4.8574 3.4375 2.696 5.244 7.2891 4.5039 11.604-0.38952 3.3953-1.6629 6.6259-3.2715 9.6191 7.9437-5.5567 15.918-11.481 23.16-18.072 1.9616-1.7818 3.9309-3.7075 5.6816-5.5332 3.2884-3.5624 6.5788-7.3764 8.1875-12.027 0.61351-1.9008 0.51256-4.3627-1.293-5.5938-3.0716-2.349-7.1813-2.4046-10.861-2.75z" stroke-width="1.21"/>
 <metadata>
  <rdf:RDF>
   <cc:Work rdf:about="">
    <dc:title>McLaren Formula 1 team logo</dc:title>
   </cc:Work>
  </rdf:RDF>
 </metadata>
</svg>
