<?xml version="1.0" encoding="UTF-8"?>
<svg version="1.1" viewBox="0 0 100 100" xmlns="http://www.w3.org/2000/svg">
 <path d="m49.89 20.003c-7.7039-0.03174-15.352 2.7484-20.888 8.4668l-0.45586 0.48633c-2.087 2.1503-3.9525 4.5117-5.2629 7.2176l-0.1793 0.37617c-2.1971 4.6147-3.1395 9.3015-3.102 14.411 0.15905 7.3467 3.2481 14.862 8.5441 19.998 0.16535 0.15555 0.32584 0.30606 0.48633 0.45703 2.1513 2.0917 4.5123 3.9618 7.2176 5.277 0.12809 0.06102 0.25302 0.12008 0.37734 0.1793 4.6136 2.2053 9.2978 3.1549 14.402 3.1242 7.34-0.14928 14.843-3.2304 19.968-8.5242 0.2305-0.2455 0.23109-0.24569 0.45703-0.48633 2.087-2.1503 3.9525-4.5117 5.2629-7.2176 0.06079-0.12812 0.11912-0.25182 0.17812-0.37617 2.1971-4.6147 3.1395-9.3015 3.102-14.411-0.15904-7.3467-3.2481-14.861-8.5441-19.997-0.2456-0.23104-0.2456-0.23174-0.48633-0.4582-2.1513-2.0917-4.5123-3.9618-7.2176-5.277l-0.37617-0.1793c-4.2179-2.0161-8.8612-3.0478-13.484-3.0668zm-2.4668 1.8434c0.78745-0.04142 1.5798-0.04061 2.3754 0.0059 0.01883 0.66676-0.04828 1.2979-0.15352 1.9559-0.02288 0.13858-0.04459 0.2733-0.0668 0.40781-0.04966 0.30901-0.09915 0.61794-0.14883 0.92695-0.14681 0.90336-0.29355 1.8069-0.43828 2.7105-0.03352 0.20974-0.06589 0.41283-0.09844 0.61641-0.30506 1.9079-0.60031 3.8169-0.8918 5.727-0.07789 0.51083-0.15633 1.022-0.23438 1.5328-0.05233 0.3423-0.10472 0.68426-0.15703 1.0266-0.03977 0.2603-0.03952 0.26048-0.07852 0.51562-0.13149 0.86041-0.26332 1.7211-0.39375 2.5816-0.12649 0.83591-0.25296 1.6721-0.38086 2.5078-0.04802 0.31319-0.09631 0.62546-0.14414 0.93867-0.06638 0.44186-0.13258 0.88375-0.20039 1.3254-0.02119 0.13757-0.04155 0.27195-0.06211 0.40547-0.15605 1.0273-0.2362 2.1036-0.98906 2.8688l-0.47811 0.35738c-0.18966 0.14549-0.37372 0.28652-0.55781 0.42773-0.60952 0.4625-1.2014 0.94456-1.793 1.4297-1.1054 0.90656-2.2177 1.8021-3.3504 2.6742-1.7199 1.324-3.4111 2.6851-5.093 4.057-1.2181 0.99372-2.4365 1.9849-3.6832 2.9426-0.57881 0.44284-1.1538 0.8873-1.718 1.3488-0.14721 0.12176-0.28955 0.24042-0.43242 0.35859-0.28798 0.23766-0.57609 0.47553-0.86367 0.71367l-0.41016 0.34453-0.38672 0.31992c-0.46947 0.39344-0.81439 0.58552-1.4203 0.69258-0.46706-0.85573-0.89724-1.7233-1.2867-2.6168-2.8071-6.9309-3.0791-14.781-0.14766-21.744 3.3614-7.1275 8.732-12.9 16.222-15.749l0.52617-0.18398c2.2525-0.79717 4.5728-1.3019 6.9352-1.4262zm3.1195 0.01055c1.5148-0.01703 2.9822-0.05396 4.4684 0.27656 0.30511 0.0737 0.61011 0.14588 0.91641 0.21445 0.27098 0.06029 0.54152 0.12196 0.81211 0.18398l0.41484 0.09609c0.2561 0.05786 0.51229 0.11677 0.76758 0.17812 7.008 1.8546 13.049 6.9933 16.659 13.182 3.5547 6.3303 4.8286 13.936 2.918 21.013-0.06676 0.21096-0.1309 0.41635-0.1957 0.62109-0.4269 1.3637-0.89289 2.7011-1.4578 4.0137l-0.17461 0.39609c-0.31045 0.71778-0.57048 1.3979-1.1965 1.8996-0.15027-0.11735-0.29712-0.23063-0.44297-0.34453-0.20374-0.15911-0.40681-0.31901-0.61055-0.47812-0.45131-0.35255-0.90325-0.70464-1.3547-1.057-1.3614-1.0609-2.7194-2.1254-4.0734-3.1957-0.95462-0.75465-1.9101-1.5078-2.8699-2.2559-0.8141-0.63451-1.6253-1.2726-2.4352-1.9125-0.90955-0.71904-1.8179-1.4391-2.7316-2.1527-0.38013-0.29627-0.76038-0.59284-1.1402-0.88945-0.21215-0.16576-0.42413-0.33118-0.63633-0.49688-0.43664-0.34018-0.8732-0.6806-1.309-1.0219-0.15309-0.11997-0.30141-0.23629-0.45-0.35273-0.14621-0.11374-0.28817-0.22477-0.43008-0.33516-0.20656-0.16224-0.20651-0.16207-0.40898-0.32109-0.74628-0.5833-1.5394-1.1194-1.8082-2.059-0.01784-0.20053-0.03541-0.39482-0.05273-0.58945-0.03739-0.35452-0.03717-0.35446-0.07383-0.70195-0.07094-0.72832-0.16699-1.4515-0.26836-2.1762-0.04784-0.34047-0.09501-0.68126-0.1418-1.0219-0.025-0.18306-0.04957-0.36021-0.07383-0.53789-0.25161-1.8388-0.50231-3.6782-0.75234-5.5172-0.03137-0.2308-0.06096-0.45451-0.09141-0.67852-0.19359-1.4242-0.38788-2.8483-0.58008-4.2727-0.06294-0.46692-0.12567-0.93348-0.18867-1.4004-0.37528-2.7652-0.74039-5.5284-1.0078-8.3062zm-0.55312 32.664c0.41568-0.01057 0.83128 0.10429 1.4227 0.36328 0.3034 0.13502 0.60746 0.26887 0.91172 0.40195 0.16853 0.07343 0.33213 0.14435 0.4957 0.21562 0.88985 0.38831 1.7829 0.76636 2.6789 1.1402 0.19359 0.08054 0.38164 0.15854 0.56953 0.23672 0.3957 0.16475 0.79137 0.32987 1.1871 0.49453 0.62988 0.26176 1.2605 0.52417 1.8902 0.78633 2.2763 0.94782 4.5526 1.892 6.8344 2.8266 0.45369 0.18579 0.90813 0.37178 1.3617 0.55781 0.86419 0.35449 1.7282 0.70952 2.5934 1.0617 0.40464 0.16472 0.80863 0.33004 1.2129 0.4957 0.19167 0.07861 0.37764 0.15457 0.56367 0.23086 0.18077 0.0731 0.35658 0.14467 0.53203 0.21562 0.16606 0.06838 0.32749 0.13401 0.48867 0.20039 0.59202 0.2414 1.0543 0.5247 1.5516 0.92812-2.9238 4.7503-6.9321 8.5137-11.994 10.916-0.11996 0.05612-0.2363 0.1096-0.35273 0.16406-1.9023 0.89483-3.9242 1.5094-5.9648 2.0039-6.804 1.5019-14.547 0.40211-20.484-3.3469l-0.5168-0.34688c-2.9554-1.9744-5.4336-4.1779-7.5891-7.0055-0.1011-0.13456-0.19836-0.26549-0.29648-0.39609-0.622-0.82063-1.0972-1.521-1.357-2.5359 0.34785-0.11324 0.69337-0.23476 1.0336-0.36914 0.19498-0.07935 0.3838-0.1562 0.57305-0.2332 0.3321-0.13496 0.66411-0.27024 0.99609-0.40547 0.2404-0.09792 0.48142-0.1952 0.72188-0.29297 0.50314-0.20448 1.0063-0.40942 1.5094-0.61406 1.0417-0.42381 2.0834-0.84734 3.1254-1.2703 0.22261-0.09033 0.43901-0.17834 0.65508-0.26602 2.0891-0.84777 4.1783-1.6933 6.2695-2.5359 1.2419-0.50028 2.4846-0.9998 3.7242-1.5059 0.5948-0.24304 1.1897-0.48663 1.7848-0.72891 0.2858-0.11631 0.57092-0.2327 0.85664-0.34922 0.40607-0.1668 0.81213-0.33376 1.2188-0.49922 0.18771-0.07627 0.18749-0.07523 0.37148-0.15 0.58963-0.24122 1.0058-0.37733 1.4215-0.38789z" stroke-width=".18612"/>
</svg>
