<?xml version="1.0" encoding="UTF-8"?>
<svg version="1.1" viewBox="0 0 100 100" xmlns="http://www.w3.org/2000/svg">
 <path d="m55.105 25.785v17.863c0.1792-0.1152 0.37777-0.23013 0.57617-0.36133 0.3936-0.2464 0.80607-0.52546 1.2637-0.75586l-0.001953 0.003906 0.066407-0.033203 0.083984-0.03125c0.8064-0.3456 1.7413-0.52539 2.7109-0.52539 0.7072 0 1.4135 0.11605 2.0215 0.31445v-11.047h4.209c1.84 0 3.3359 1.6932 3.3359 3.5332s-1.4927 3.3379-3.3359 3.3379h-2.1855v5.1094c0.1632 0.1152 0.34419 0.22975 0.55859 0.37695l0.068359 0.048829 0.16211 0.13086h3.2383c2.2336 0 3.9277 1.8094 3.9277 4.043-0.032 0.7712-0.21499 1.4607-0.52539 2.0527 0.9376 1.1328 2.1018 2.6469 2.793 3.7637l0.033203 0.048828c0.2944 0.5088 0.57471 1.183 0.75391 1.791 2.3168-1.6608 3.8125-4.2553 3.8125-7.1641 0-3.6-1.2639-6.1479-5.5039-8.1191 1.7248-1.6096 2.7773-3.7629 2.7773-6.1309 0-2.1536-0.82313-4.1243-2.2695-5.6699-1.4944-1.6608-4.1559-2.5801-7.7559-2.5801h-10.814zm-23.404 0.003906v18.799c0.1792 0.1472 0.34499 0.29774 0.49219 0.46094 1.2992 1.4304 1.4317 3.8622 0.26367 5.4238-0.2304 0.2944-0.47746 0.59269-0.75586 0.87109v3.5332c0.1312-0.0832 0.26333-0.14727 0.39453-0.23047 0.08-0.048 0.17814-0.11606 0.27734-0.16406 0.048-0.032 0.23147-0.14587 0.85547-0.63867 1.1488-0.8896 2.5786-2.0075 4.1562-2.3691 0.4608-0.1152 0.74271-0.16489 1.0371-0.21289v-20.049h3.418c2.4832 0 4.3535 1.8402 4.3535 4.125s-2.0063 4.125-4.4863 4.125h-1.5605v7.541l1.8906 2.9258c0.1984-0.1632 0.37777-0.33057 0.57617-0.50977l0.03125-0.03125 0.048828-0.03125c1.4784-1.2 3.0233-1.7613 4.9785-1.7773 0.032-0.048 0.084812-0.082859 0.13281-0.13086l-2.3184-3.2852c4.16-1.0048 7.2324-4.6694 7.2324-9.0566 0-5.1456-4.2564-9.3184-9.498-9.3184h-11.52zm-7.4805 17.764c-0.2944 0.4608-0.39528 0.96892-0.36328 1.5449 0.1504 1.2 1.1531 2.4326 2.2539 2.9414 0.048 0.016001 0.098485 0.030876 0.14648 0.046876 0.3616 0.1472 0.72276 0.16406 1.0684 0.16406h0.46094c0.2144 0 0.47663-7.94e-4 0.70703 0.066406 0.2144 0.064 0.42894 0.27862 0.46094 0.54102 0.016 0.1664-0.063319 0.28211-0.26172 0.44531-0.1824 0.1472-0.38135 0.31374-0.56055 0.46094-0.9536 0.7872-1.9221 1.5925-2.7285 2.5781-1.0688 1.168-1.1178 3.1715-0.625 4.4707 0.64 1.712 2.4009 2.6821 3.8633 2.8613 0.2656 0.0512 0.51262 0.066406 0.79102 0.066406 0.8704 0 1.6881-0.2098 2.4785-0.4082 0.0352-0.016 0.067985-0.017578 0.083985-0.017578 0.032 0 0.099234 4.88e-4 0.11523 0.17969 0.0352 0.3584 0.050406 0.75484 0.066406 1.1484 0.016 0.624 0.05161 1.2321 0.09961 1.4785 0.1152 0.56 0.39697 1.2486 0.57617 1.6934 0.08 0.1792 0.14806 0.32696 0.16406 0.41016 0.0832 0.2464-8.62e-4 0.52821-0.16406 0.69141-0.608 0.5568-1.8243 0.98558-2.0547 1.0176-0.3616 0.0512-0.75871 0.066031-1.0371 0.082031-0.1504 0-0.2453 0.015625-0.3125 0.015625-0.1472 0.016-0.2465 0.064863-0.3457 0.16406-0.1664 0.1792-0.36177 0.6568-0.57617 1.2168-0.1312 0.3296-0.27896 0.67435-0.41016 0.96875-0.3968 0.624-1.0362 1.0017-1.6602 1.3633-0.1472 0.0992-0.31374 0.17814-0.46094 0.27734l-0.015625 0.017578c-0.2464 0.4096-0.51024 0.78958-0.83984 1.084-0.2624 0.2304-0.58874 0.29808-0.90234 0.33008h-0.015625l-0.015625 0.015625c-0.4768 0.56-0.64382 1.2983-0.79102 2.0215-0.0192 0.1152-0.050407 0.21488-0.066407 0.33008l-0.015625 0.09961h0.066407c0.2656 0.016 0.51262 0.063659 0.79102 0.13086 0.3456 0.08 0.74158 0.16406 1.084 0.16406s0.63994-0.067644 0.90234-0.21484c0.4608-0.2144 0.70868-0.64313 0.95508-1.0527 0.1472-0.2784 0.30866-0.55708 0.53906-0.77148 0.1312-0.1472 0.27974-0.21484 0.49414-0.21484 0.1824 0 0.37777 0.051609 0.57617 0.099609 0.1632 0.032 0.34424 0.083609 0.52344 0.099609 0.8544 0.048 1.6767-0.49304 2.0703-0.80664 0.1632-0.1472 0.34656-0.29774 0.50976-0.46094 0.2624-0.2464 0.54387-0.49658 0.82227-0.67578 0.3616-0.1632 0.77403-0.24609 1.2988-0.24609 0.64 0 1.3322 0.13127 1.873 0.23047 0.2944 0.0832 0.59036 0.11523 0.88476 0.11523 0.512 0 1.0048-0.1153 1.3984-0.3457 0.4768-0.2624 0.95406-0.52426 1.3477-0.72266 0.2144-0.1152 0.41297-0.23125 0.57617-0.31445 0.672-0.3776 1.2641-1.4267 1.4785-1.8555 0.2144-0.3968 0.56055-1.2672 0.56055-1.2832l0.015624-0.03125-0.80664-0.60938-0.03125 0.048828s-0.52549 0.87007-0.87109 1.2637c-1.4144 1.9232-3.7147 2.1699-5.5547 2.1699h-0.37891c-2.2848 0-4.1235 0.77476-5.4707 2.2852-0.0672 0.064-0.16684 0.082825-0.21484 0.015625-0.032-0.032-0.031625-0.096863-0.015626-0.16406 0.032-0.1472 0.047285-0.19775 0.14648-0.37695 1.4304-2.0384 3.8628-2.3352 5.834-2.3672 1.4624-0.0992 2.512-0.34547 3.4336-0.82227 1.184-0.592 2.0548-1.9238 2.4004-2.9766 0.2304-0.6912 0.34611-1.4295 0.44531-2.1367 0.0832-0.576 0.1653-1.1526 0.3125-1.6934 0.032-0.0832 0.096863-0.11524 0.16406-0.11524 0.0192 0 0.034406-3.75e-4 0.066406 0.015625 0.0672 0.016 0.21484 0.064488 0.21484 0.17969-0.2144 1.1168-0.47755 2.6426 0.03125 3.9258 0.2304 0.5088 0.74048 0.75586 1.5469 0.75586 0.4768 0 1.0205-0.080862 1.5293-0.16406 0.3936-0.048 0.77001-0.11486 1.0996-0.13086 0.1312-0.016 0.26296-0.015626 0.41016-0.015626 0.64 0 1.2635 0.13089 1.8555 0.24609 0.5088 0.1152 1.0494 0.21409 1.6094 0.24609 0.0992 0 0.19925-3.75e-4 0.31445 0.015625 0.1984 0.016 0.3934 0.033203 0.5918 0.033203 0.4608 0 0.79071-0.096522 1.0371-0.29492 0.1632-0.1472 0.11445-0.34502 0.03125-0.60742l-0.015625-0.048828c-0.016-0.048-0.030875-0.098484-0.046875-0.14648-0.1152-0.3456-0.2784-0.85516 0-1.1016 0.032-0.032 0.098485-0.046875 0.14648-0.046875s0.11486 0.014832 0.13086 0.082032c0.0352 0.096 0.051984 0.19572 0.083984 0.29492 0.1152 0.4096 0.24541 0.85324 0.50781 1.2148 0.56 0.7072 1.4308 1.397 2.5156 1.957 0.6912 0.4928 1.5266 1.2992 1.5938 2.416 0 0.5088-0.49387 0.86958-0.85547 1.084-0.576 0.2784-1.4963 0.63942-2.0371 0.60742-0.3616-0.032-0.67541-0.26134-0.69141-0.27734-0.576-0.5248-0.50949-0.70841-0.87109-1.3164-0.1952-0.3296-0.39385-0.67435-0.65625-0.96875-0.3424-0.3936-0.78691-0.54019-1.3789-0.49219-0.5728 0.048-1.1162 0.16177-1.7402 0.29297-0.1312 0.0352-0.2313 0.099643-0.2793 0.21484-0.0512 0.1152-0.049997 0.27896 0.033203 0.41016 0.3296 0.576 0.65478 1.1158 0.98438 1.6758l0.14844 0.24609c0.08 0.1312 0.26138 0.14844 0.39258 0.14844 0.0832 0 0.16289-0.015625 0.24609-0.015625 0.08-0.016 0.1801-0.017578 0.2793-0.017578 0.2784 0 0.4766 0.067644 0.5918 0.21484 0.099201 0.1472 0.1961 0.31336 0.2793 0.47656 0.2144 0.3936 0.44467 0.80716 0.82227 1.1016 0.3456 0.2976 0.83848 0.47656 1.3633 0.47656 0.2272 0 0.44185-0.032409 0.65625-0.099609 1.5104-0.4768 2.9727-0.96978 4.3711-1.709h0.46094c0.0992-0.016 0.2133-0.03125 0.3125-0.03125 0.4768-0.035199 0.97043-0.067712 1.332-0.44531 0.4448-0.64 0.83837-1.2951 1.168-1.9863 0.2944-0.608 0.2944-1.2166 0-1.6934-0.8896-1.4304-1.0525-1.8077-1.4141-2.7773l-0.017578-0.03125h-0.03125c-0.0992-0.032-0.21525-0.083235-0.31445-0.11524-0.2144-0.096-0.44463-0.17969-0.70703-0.17969h-0.03125c-0.2976 0.016-0.5086 0.11414-0.5918 0.27734l-0.015625 0.033203 1.6094 3.1875c0.1152 0.2464 0.22931 0.49154 0.16211 0.86914-0.064 0.3776-0.86921 1.6141-1.0996 1.7773-0.064 0.0512-0.11644 0.066406-0.14844 0.066406-0.016 0-0.094875-0.020018-0.046875-0.19922 0.1632-0.5088 0.34097-1.7236 0.29297-2.1172-0.048-0.4608-1.4129-2.6957-1.4609-2.7949l-0.033203-0.03125c-0.2112-0.3296-0.4242-0.69196-0.4082-1.1016 0-0.1984 0.1813-0.32895 0.3125-0.37695 0.2464-0.096 0.46063-0.13169 0.70703-0.17969 0.5728-0.1152 1.1645-0.24657 1.3789-0.57617 0.6432-0.9856 1.0368-2.0192 1.2832-3.4336 0.016-0.064001 0.049237-0.17774 0.14844-0.17774 0.064 0 0.11486 0.031284 0.13086 0.14648 0.2304 1.3472-0.080319 2.7621-0.88672 3.8789-0.032 0.0672-0.062875 0.1973-0.046875 0.3125s0.14648 0.21484 0.14648 0.21484c0.3136 0.2144 1.4471 0.083096 2.2695-0.3457 0.624 0 1.215-0.099643 1.791-0.21484 0.1792-0.032 0.36182-0.065657 0.54102-0.097657 0.0672 0.032 0.099234 0.08286 0.11523 0.13086-0.4768 0.544-0.77468 1.1686-0.92188 1.9238-0.1344 0.1472-0.28053 0.277-0.42773 0.4082-0.5248 0.4768-1.0852 1.0178-1.1172 1.709 0 0-0.016306 0.24572 0.24609 0.26172 0.0832 0 0.16252-0.050031 0.26172-0.082031 0.0992-0.0352 0.1961-0.08436 0.2793-0.068359 0.08 0.016 0.14648 0.080862 0.14648 0.16406l-0.5918 0.88672c-0.2112 0.3616-0.13045 0.75521-0.03125 1.1328 0.0672 0.2144 0.049656 0.38135 0.097656 0.56055 0.1472 0.4256 0.68839 0.63867 1.1172 0.63867 0.7872-0.032 1.4943-0.29462 2.1855-0.54102 0.1312-0.048 0.24771-0.082859 0.37891-0.13086 0.7552-0.3296 1.7551-0.39567 2.9551-0.19727 0.9696-0.0672 1.6932-0.69241 2.4004-1.3164 0.3136 0 0.6239 0.17979 0.9375 0.52539 1.0336 1.12 2.3166 1.6602 3.9102 1.6602h0.17969l0.16406-0.015625c0.1664-0.0512 0.19884-0.13127 0.21484-0.23047 0.016-0.1152-0.084472-0.24688-0.26367-0.33008l-0.88672-0.47656c-0.7072-0.4448-1.477-0.98578-1.6914-1.709-0.2304-0.7712-0.67273-1.5455-0.98633-2.0703-0.0672-0.0992-0.13164-0.2133-0.21484-0.3125-0.1312-0.1824-0.2465-0.36215-0.3457-0.56055 0.9696 0.3456 1.5139 1.052 2.1699 2.252 0.4928 0.8864 1.757 1.8418 2.957 1.8418 0.1664 0 0.31374-0.016828 0.46094-0.048828 0.1312-0.016 0.21447-0.099644 0.23047-0.21484l0.003906 0.013672c0.016001-0.0992-3.4e-5 -0.18047-0.11523-0.26367-0.3296-0.1632-0.72461-0.36133-0.72461-0.36133-0.8544-0.4928-1.363-1.3303-1.8398-2.1367-0.1824-0.3136-0.3774-0.6431-0.5918-0.9375-0.1472-0.2144-0.3774-0.43018-0.5918-0.60938-0.1792-0.1632-0.34495-0.30938-0.37695-0.39258-0.7872-2.1376-1.643-4.6689-1.8574-7.4785-0.0352-0.4416-0.32981-1.3783-0.69141-1.9863-1.12-1.824-3.7981-4.9485-3.9453-5.0957-0.08-0.0992-0.19414-0.19414-0.27734-0.27734l-0.06836-0.068359-4.8145-3.9922c-0.9536-0.6592-1.2483-0.79071-1.9395-1.0371-0.4416-0.1632-0.97092-0.24609-1.5117-0.24609-0.6912 0-1.3619 0.13055-1.9219 0.37695-0.3776 0.1984-0.75559 0.44538-1.1172 0.67578-0.608 0.3968-1.2483 0.80476-1.9395 1.0352-0.544 0.2464-1.1158 0.4126-1.6758 0.5918-1.1008 0.3424-2.2386 0.68932-3.125 1.5117-0.2624 0.2464-0.4751 0.44422-0.6543 0.60742-0.8224 0.7712-0.91855 0.85547-1.5938 0.85547-1.5616 0-2.68 0.39248-3.832 1.3301-0.9056 0.8224-1.8222 1.6091-2.875 1.9707-0.4768 0.1632-1.0025 0.2313-1.5625 0.2793-0.7904 0.0832-0.92058 0.082519-1.6758 0.26172-1.136 0.2656-2.3535 1.2014-3.3711 2.0078-0.3456 0.2624-0.78755 0.60708-1.002 0.73828-0.0992 0.0672-0.22855 0.14764-0.34375 0.21484-1.264 0.7392-2.4642 1.4453-4.0098 1.4453h-0.11524c-1.1488-0.0832-2.2032-0.86908-2.5488-1.9219-0.3296-1.1808 0.017478-2.3808 0.95508-3.3184 0.4448-0.4448 0.93689-0.8736 1.4297-1.2832 0.7904-0.656 1.5459-1.2971 2.0547-1.9883 0.592-0.8064 0.52872-2.169-0.14648-2.9082s-2.1861-1.1168-2.7461-1.248l-0.099609-0.015625c-0.0672-0.016-0.16684-0.017203-0.21484-0.033203-0.3616-0.0832-0.70713-0.12969-1.0527-0.21289-0.9056-0.2464-1.5924-0.93448-2.3828-1.3633zm36.406 6.6387c0.0832 0 0.16327 0.016828 0.23047 0.048828 0.2464 0.1152 0.49188 0.42908 0.73828 0.92188h0.003906c0.624 1.264 0.13124 3.0563 0.11524 3.0723-0.032 0.08-0.081238 0.14648-0.14844 0.14648-0.016 0-0.099234-0.015659-0.11523-0.13086-0.2464-1.2832-0.39701-1.9236-0.69141-2.5156-0.0992-0.1984-0.2133-0.34499-0.3125-0.49219-0.2144-0.2944-0.41362-0.54112-0.19922-0.88672 0.048-0.096 0.21571-0.16406 0.37891-0.16406zm9.0703 7.9395c0.009493-2.68e-4 0.013672 0 0.013672 0 0.083199 0 0.36218-0.031897 0.67578 0.3457 0.3616 0.4448 0.27775 0.39735 0.37695 0.56055s0.19779 0.32702 0.49219 0.64062c0.2976 0.3136 0.62578 0.93685 0.70898 1.3145l-0.003906-0.00586c0.096 0.3808 0.078874 0.70556 0.046874 1.0352-0.047999 0.2944-0.13011 0.44257-0.16211 0.50977-0.0352 0.0672-0.11568 0.23047-0.33008 0.23047-0.2464 0-0.23047-0.29808-0.23047-0.33008 0 0-0.032487-0.78759-0.17969-1.1172-0.1664-0.3616-0.95326-1.3937-1.4141-1.3457-0.1152 0-0.40827 0.18216-0.63867 0.47656-0.2624 0.3456-0.2625 0.39536-0.3457 0.44336-0.0832 0.0512-0.19847 0.036665-0.23047-0.17773-0.051199-0.2112-0.083574-0.37788 0.015626-0.77148 0.0992-0.4096 0.1973-0.49308 0.3125-0.77148-1e-6 0 0.23088-0.56021 0.33008-0.69141 0.2156-0.3164 0.49604-0.34382 0.5625-0.3457zm-0.25195 8.0742c0.077063 0.00225 0.16751 0.017347 0.25391 0.060547v0.003906c0.2304 0.1152 0.11523 0.70233 0.11523 0.76953 0 0-0.051644 0.37819-0.21484 0.52539-0.1632 0.1632-0.77196 0.24647-1.1016 0.23047s-0.44061-0.06291-0.50781-0.16211c-0.0672-0.1152 0.046875-0.33008 0.046875-0.33008 0.0512-0.0832 0.42839-0.86996 1.1836-1.0684 0 0 0.096172-0.033047 0.22461-0.029297zm-14.777 1.1699c-0.024134 8.84e-4 -0.049572 0.003812-0.076172 0.007812-0.624 0.083201-1.2174 0.13086-1.8926 0.13086-0.016 0-0.21334-7.16e-4 -0.27734 0.14648-0.0832 0.1632 0.098144 0.33094 0.27734 0.49414 0.0992 0.0992 0.2153 0.19697 0.2793 0.29297 0.0992 0.1792 0.2305 0.44501 0.3457 0.69141l0.001953 0.003906c0.1792 0.3936 0.34619 0.75544 0.52539 0.80664 0.0832 0.016 0.16447 0.03125 0.26367 0.03125 0.4096 0 1.0013-0.23095 1.4141-0.56055 0.2304-0.1984 0.16208-0.32861 0.046875-0.50781-0.032-0.048-0.067234-0.11602-0.11523-0.19922-0.1152-0.2144-0.17927-0.44347-0.23047-0.63867-0.108-0.384-0.2005-0.71248-0.5625-0.69922zm-29.625 0.82812c-0.0924 4e-3 -0.18617 0.032431-0.25977 0.082031-0.1152 0.0672-0.21488 0.14764-0.33008 0.21484-0.3456 0.2304-0.70638 0.45946-1.084 0.78906-0.1312 0.1152-0.21447 0.33094-0.23047 0.49414-0.016 0.1312 0.015206 0.2453 0.066406 0.3125 0.048 0.032 0.31491 0.32895 0.37891 0.37695 0.0992 0.0832 0.22896 0.17969 0.44336 0.17969 0.1152 0 0.24613-0.03241 0.36133-0.09961 0.6752-0.3296 1.3649-1.5773 1.3809-1.6445 0.0672-0.1984-0.16371-0.37702-0.44531-0.60742l-0.033203-0.03125c-0.0656-0.0496-0.15565-0.070406-0.24805-0.066406zm-2.7891 2.3027c-0.01665 7.5e-4 -0.038334 0.003625-0.052734 0.015625-0.3616 0.1472-0.77182 0.60832-0.79102 0.88672-0.0832 1.2-0.13171 1.3318-0.44531 1.6934-0.0992 0.0992-0.14608 0.34416-0.046875 0.44336s1.264 0.46094 1.3984 0.46094h0.03125c0.0992-0.032 0.19929-0.29441 0.42969-1.1328 0.1312-0.4448 0.27696-0.95326 0.44336-1.4141 0.016-0.032 0.017544-0.067268-0.097656-0.23047-0.1312-0.1984-0.59307-0.72266-0.85547-0.72266-4e-3 0-0.008122-2.5e-4 -0.013672 0z" stroke="#000" stroke-width=".32"/>
</svg>
