<?xml version="1.0" encoding="UTF-8"?>
<svg version="1.1" viewBox="0 0 100 100" xmlns="http://www.w3.org/2000/svg" xmlns:cc="http://creativecommons.org/ns#" xmlns:dc="http://purl.org/dc/elements/1.1/" xmlns:rdf="http://www.w3.org/1999/02/22-rdf-syntax-ns#">
 <title>Red Bull Racing logo</title>
 <g transform="matrix(.36864 0 0 .36864 32.747 31.486)">
  <circle cx="51.868" cy="49.87" r="36.81" fill="none" stroke="#000" stroke-width="3"/>
  <path d="m-38.344 22.725-0.87109 1.3906a5.23 5.23 0 0 0-0.86914 3.6484v0.11133a8.33 8.33 0 0 0 4.6895 6.0801c0.29109 0.11979 0.51516 0.2095 0.68359 0.27734-0.21889-0.07744-0.45012-0.14573-0.50391-0.12305l-8e-3 8e-3v4e-3h-2e-3c-1.28e-4 8.4e-4 0 3e-3 0 0.0039a5.07 5.07 0 0 0 0.91992 0.26758c0.02014 0.0074 0.02968 0.01096 0.0332 0.01172-0.0029-0.0015-0.0071-0.0049-0.01367-0.0078a5.07 5.07 0 0 0 0.62109 0.07813 24.12 24.12 0 0 0-3.6504 3.6504c-2.26 2.43-2.2587 6.2496-1.3887 8.8496a9.23 9.23 0 0 0 7.6387 5.7305c0.52 0 1.0005 0.16992 1.5605 0.16992a13.4 13.4 0 0 0 2.5996-0.35156c0 1.22 0.16992 2.0816 0.16992 2.6016a16.5 16.5 0 0 0 1 3.1289 8.31 8.31 0 0 1-1.9102 0.87109c-0.52 0-0.99867 0.16992-1.3887 0.16992h-0.69141a2.59 2.59 0 0 0-1.5586 0.68945 8.73 8.73 0 0 0-1.3906 2.5996 12 12 0 0 1-0.51953 1.3906c-0.17 0.17-0.35148 0.51945-0.52148 0.68945a4 4 0 0 0-1.2188-1.2207 2.35 2.35 0 0 0-3 0c-0.17 0.17-0.34961 0.17156-0.34961 0.35156h-0.25c-0.52 0.35-1.2202 0.86867-1.9102 1.3887a2.34 2.34 0 0 0-0.87109 1.5605 0.64 0.64 0 0 0-0.51953 0.16992 4.59 4.59 0 0 0-2.4297 3c0 0.52-0.16992 1.2205-0.16992 1.5605l-0.16992 0.16992a2.38 2.38 0 0 0 0 3.1289 7.61 7.61 0 0 0 3.4688 1.2207h0.69141a0.61 0.61 0 0 0 0.34961-0.16992h0.56055c0.35 0 0.69 0.16992 1 0.16992a8.71 8.71 0 0 0 2.0801 0.34961 4.81 4.81 0 0 0 2.2598-0.51953 5 5 0 0 0 2.2598-2.4297c0.17-0.17 0.16961-0.51945 0.34961-0.68945h0.16992a2.57 2.57 0 0 0 1.2207 0.16992 6.74 6.74 0 0 0 4.5098-1.7402c0.35-0.35 0.68914-0.52109 0.86914-0.87109 0.35-0.35 0.69109-0.51914 0.87109-0.86914a2.57 2.57 0 0 1 1.2188-0.16992 13.4 13.4 0 0 1 2.6016 0.34961 7.62 7.62 0 0 0 4.8594-0.51953 22.14 22.14 0 0 0 2.0801-1.2207h0.16992a3.79 3.79 0 0 0 0.86914-0.51953c1.39-0.69 2.4309-2.4304 3.1309-3.6504a8.91 8.91 0 0 0 0.86914-2.0801h0.34961a15.2 15.2 0 0 0 2.7812-0.34961 5.36 5.36 0 0 1 1.5605-0.16992h0.51953c0.87 0 2.08 0.16992 3 0.16992 0.69 0 1.2198 0.16992 2.2598 0.16992h1.5608a5.8 5.8 0 0 0 2.5801-0.52959c0.17 0.17 0.51945 0.68914 0.68945 0.86914h-0.16992a3.08 3.08 0 0 0-1.7402 0.68945 3.71 3.71 0 0 0-2.4297-0.16992 8.82 8.82 0 0 0-3 0.52148 2.51 2.51 0 0 0-1.7402 1.2188 2.13 2.13 0 0 0 0.16992 2.2598c0.52 0.87 1.0005 1.7412 1.5605 2.7812l0.16992 0.34961a2.35 2.35 0 0 0 2.0801 1h0.51953a0.17 0.17 0 0 0 0.16992 0.16992 6.58 6.58 0 0 0 1.7402 2.2598 5.48 5.48 0 0 0 3.2988 1.2207 4.81 4.81 0 0 0 1.5605-0.16992 47.57 47.57 0 0 0 6.9395-2.6016h1a4.61 4.61 0 0 0 3.3008-1.2188l0.16992-0.16992v-0.16992c0.35-0.52 0.8707-1.2202 1.2207-1.7402v0.16992a3.54 3.54 0 0 0 3.4688 2.2598 9.69 9.69 0 0 0 4-1c0.17 0 0.35148-0.16992 0.52148-0.16992h0.16992a6.75 6.75 0 0 1 3.8184-0.16992h0.35156a7.63 7.63 0 0 0 4-1.7402 9.83 9.83 0 0 0 7.4688 3.1309h1a2.21 2.21 0 0 0 1.7402-1.9102v-0.52148a0.64 0.64 0 0 0 0.51953-0.16992 2.22 2.22 0 0 0 1.7402-1.9102c1.22-1.22 0.87-2.0797 0-2.4297l0.13086-0.01953-1-0.51953a7.51 7.51 0 0 1-2.2598-2.7812l-1-1.5586a8 8 0 0 0-1.2207-1.2207l-0.16992-0.16992a43.42 43.42 0 0 1-2.7793-11.109 10 10 0 0 0-1.3906-4 78.73 78.73 0 0 0-6.5996-8.5098l-0.51953-0.52148-0.16992-0.16992-7.8105-6.4199-0.16992-0.16992a11.78 11.78 0 0 0-3.4707-1.9102 10.05 10.05 0 0 0-6.7695 0.16992h-0.16992a7.17 7.17 0 0 0-1.9102 1.2207 8.35 8.35 0 0 1-2.7793 1.3906h-0.35156a10 10 0 0 1-2.4297 0.86914 13.51 13.51 0 0 0-5.7305 2.7812l-1 1c-0.35 0.35-0.87 0.68914-1 0.86914h-0.34961a10.22 10.22 0 0 0-7.2891 2.5996 13.89 13.89 0 0 1-4 2.7812 6.48 6.48 0 0 1-2.0801 0.34961 13.16 13.16 0 0 0-2.7812 0.51953c-2.26 0.52-4.3381 2.2607-6.0781 3.4707a8.71 8.71 0 0 1-1.3906 1c-0.17 0.17-0.34953 0.16961-0.51953 0.34961-1.91 1-3.4705 2.0801-5.5605 2.0801h-0.16992a3.25 3.25 0 0 1-2.4297-1.7402 3.43 3.43 0 0 1 1-3.4707 12 12 0 0 1 2.2598-1.9102 21.82 21.82 0 0 0 3.4688-3.4688 5.51 5.51 0 0 0-0.34961-6.9414c-1.22-1.39-3.469-2.0796-5.209-2.5996h-0.69141a0.64 0.64 0 0 1-0.51953-0.16992c-0.35 0-0.69-0.16992-1-0.16992a5.22 5.22 0 0 1-1.9102-1l-1.5586-1zm4.0723 11.68c2.53e-4 5.5e-5 0.0037 0.0019 0.0039 2e-3v-2e-3c-4.13e-4 -3.31e-4 -0.0025 7.28e-4 -0.0039 0zm120.4-10.77a7.94 7.94 0 0 0-3.8203 1.9102c-1.91 1.74-4.0001 3.1295-6.0801 4.6895a54.94 54.94 0 0 0-9.2012 7.8105c-3 3.13-4 6.9402-5 10.24a5.07 5.07 0 0 0-0.34961 1.5586c-0.17 0.87-0.51945 1.9112-0.68945 2.7812-1.22 4.69-2.2596 9.2-6.5996 12a2.47 2.47 0 0 0-1 2.0801 2.69 2.69 0 0 0 1.3887 1.9102 3.74 3.74 0 0 0 1.6914 0.25977 1.58 1.58 0 0 0 0.51953 1.2188 2.48 2.48 0 0 0 1.9102 0.87109c3 0 5.2095-1.7407 6.9395-3.4707a6.26 6.26 0 0 0 2.6309 1.3809h0.68945a8.7 8.7 0 0 1 3-0.16992c0.87 0.35 1.7393 0.69 2.7793 1 0.69 0.17 1.3901 0.51945 2.0801 0.68945l0.34961 0.16992h0.35156a4.28 4.28 0 0 0 3.4688-2.4297v-0.25977c0-0.17 0.16992-0.35148 0.16992-0.52148l0.16992 0.35156a6.85 6.85 0 0 0 1 2.5996 2.8 2.8 0 0 0 2.2598 1h1l0.16992 0.16992a5 5 0 0 0 1.7402 1.2188 12.79 12.79 0 0 0 2.4316 0.69141 19 19 0 0 1 3 0.86914h0.16992a10.6 10.6 0 0 0 2.2598 0.51953 4.48 4.48 0 0 0 2.7793-1 5 5 0 0 0 1.7402-2.7793 0.64 0.64 0 0 0 0.51953-0.16992c1.39-0.52 2.5996-3 2.5996-3 0.17-0.17 0.17157-0.34953 0.35157-0.51953a2.8 2.8 0 0 0 0.51953-1.5605 2.59 2.59 0 0 0-2.2598-2.4297h-3.4707a1.57 1.57 0 0 0-0.86914 0.16992c-0.17-0.17-0.35141-0.68914-0.69141-0.86914h2.2598a35.79 35.79 0 0 0 4.5117-0.52148 26.88 26.88 0 0 1 3.8184-0.16992h0.35157a6.51 6.51 0 0 1 1.7383 0.16992c0.52 0 1.2202 0.16992 1.9102 0.16992h0.69141a7.38 7.38 0 0 0 1.9102-0.34961c0 0.35 0.16992 0.6907 0.16992 1.2207l0.16992 0.34961a8.12 8.12 0 0 0 3.2988 5.209l0.34961 0.17188a10.06 10.06 0 0 0 3.6504 1.5586h1.8613a8.27 8.27 0 0 1 6.5996 1.5605l0.68945 0.68945a15 15 0 0 0 1.7109 1.2012 5.07 5.07 0 0 0 1.5586 0.34961 4.41 4.41 0 0 0 2.0801-0.51953c0 0.17 0.16992 0.16961 0.16992 0.34961a9.54 9.54 0 0 0 1.2207 1.5605 4.61 4.61 0 0 0 3.3008 1.2188h2.2598c0.35 0 0.51953 7.9e-5 0.51953-0.16992a2.14 2.14 0 0 0 1.2207 0.34961h0.51953l2.0801-0.68945a3.09 3.09 0 0 0 1.3887-1.2207c0.35-2.43 4.6e-4 -3.3-0.51954-4l0.041 0.03125c0-0.17-0.16992-0.16961-0.16992-0.34961a1.31 1.31 0 0 0-0.16992-0.69141 6.17 6.17 0 0 0-0.35157-1.7402 3 3 0 0 0-2.2598-1.7383 1.33 1.33 0 0 0-0.34961-0.87109 7.35 7.35 0 0 0-2.2598-1.9102c-0.17-0.17-0.34953-0.34961-0.51953-0.34961l-0.16992-0.16992a2.8 2.8 0 0 0-1.5606-0.51953 3.3 3.3 0 0 0-2.5996 1.3887 3.22 3.22 0 0 1-0.3496-1.2188 5.37 5.37 0 0 1-0.35157-1.3906v-0.16992a3.51 3.51 0 0 0-2.5996-2.5996c-0.52 0-1.0006-0.16992-1.3906-0.16992a6.57 6.57 0 0 1-1.3887-0.16992 0.54 0.54 0 0 1 0.16992-0.34961 2.47 2.47 0 0 0 0.34961-1 9.61 9.61 0 0 0 0.34961-4.5117c0.35 0 0.87062 0.16992 1.3906 0.16992a12.88 12.88 0 0 0 4.3398-0.86914 8.56 8.56 0 0 0 5-7.8105v-0.21875c-0.35-3.13-2.0809-6.08-5.3809-9a8.18 8.18 0 0 0 2.6016-1c2.43-1.56 3.4693-4.5105 2.7793-7.8105v-0.16992a2.16 2.16 0 0 0-2.0801-1.9102 2 2 0 0 0-1.3906 0.51953l-0.16992 0.16992-0.51953 0.51953a5.86 5.86 0 0 1-2.0801 0.69141c-0.52 0.17-1.2202 0.34953-1.9102 0.51953-3 1-4.8605 2.5995-5.5605 4.6895-0.52 1.22-0.16852 2.7798 0.52148 4.3398v0.16992a16.52 16.52 0 0 0 3.2988 3.6504c1.56 1.56 3.1307 2.9995 3.4707 4.6895 0 0.35 0.17086 0.87024-0.86914 1.7402a4.15 4.15 0 0 1-1.5605 0.35156 8.17 8.17 0 0 1-2.7812-0.69141c-1.22-0.69-2.5984-1.5597-3.8184-2.4297a30.48 30.48 0 0 0-6.6016-3.6504 12.74 12.74 0 0 0-3.4688-0.86914 9.07 9.07 0 0 1-3.4707-1.2207l-0.16992-0.16992a5.28 5.28 0 0 1-1.2207-0.86914 12.12 12.12 0 0 0-4.1699-2.2598 7.64 7.64 0 0 0-1.7383-0.35156c-0.69-0.17-1.0007-0.16961-1.2207-0.34961-0.35-0.17-0.52109-0.34953-0.87109-0.51953a23.85 23.85 0 0 0-3.4688-2.2598 27.79 27.79 0 0 0-6.4199-2.0801c-0.17 0-0.35141-0.34945-0.69141-0.68945a10.29 10.29 0 0 0-1.3887-1.3906 9.75 9.75 0 0 0-6.25-2.5996zm-61.561 34.689c0.21875 0.10625 0.30322 0.08125 0.33398 0.08789h4e-3l6e-3 6e-3v2e-3l2e-3 2e-3v2e-3c0.0037 0.01177 0.0039 0.03312 0.0039 0.07031h-0.0098a0.61 0.61 0 0 1-0.34961 0.16992 15.65 15.65 0 0 0-1.5605 1.7402 10.23 10.23 0 0 1-0.68945-1.3906 8.6 8.6 0 0 0 2.2598-0.68945zm56.561 0.65039c0.69 0 1.2182 0.16992 1.9082 0.16992l-0.87891 1.5703-0.16992-0.16992c0-0.17-0.16992-0.17156-0.16992-0.35156a10 10 0 0 1-0.68945-1.2188z"/>
 </g>
 <metadata>
  <rdf:RDF>
   <cc:Work rdf:about="">
    <dc:title>Red Bull Racing logo</dc:title>
   </cc:Work>
  </rdf:RDF>
 </metadata>
</svg>
