<?xml version="1.0" encoding="UTF-8"?>
<!-- Created with Inkscape (http://www.inkscape.org/) -->
<svg width="31.544mm" height="83.172mm" version="1.1" viewBox="0 0 31.544 83.172" xml:space="preserve" xmlns="http://www.w3.org/2000/svg"><path d="m0.28768 69.597c0.1868-1.9066 0.79715-2.2963 3.5997-2.2985 0.80424-5.08e-4 1.4623-0.06922 1.4622-0.15239-1.27e-5 -0.08319-0.12705-0.83198-0.28229-1.664-0.15916-0.85291-0.33853-3.668-0.41127-6.4541-0.07097-2.7178-0.22607-6.6205-0.34471-8.6728-0.39533-6.8387 0.12274-11.11 1.5597-12.858 0.52139-0.63434 0.52493-0.6555 0.10956-0.6555-0.97184 0-0.29281-1.6711 0.76499-1.8826 0.92382-0.18476 1.7803-2.4789 2.1346-5.7176 0.13037-1.1918 0.68298-2.4819 0.69862-1.631 0.00381 0.20125 0.21998 0.40272 0.51065 0.47568 0.63634 0.15971 0.65098 0.03366-0.30254 2.604-0.44372 1.1961-0.80676 2.2685-0.80676 2.3831 0 0.46304 1.0314-0.7994 1.2505-1.5306 0.23354-0.7795 0.23761-0.78201 0.56396-0.34935 0.37271 0.4941 0.61578 0.33 0.9972-0.67321 0.11714-0.3081 0.29186-0.51143 0.38828-0.45185 0.2147 0.1327 0.43054-1.3404 0.43054-2.9384 0-1.1845 0-1.1845-1.1301-1.6843-0.62157-0.27489-1.564-0.81831-2.0944-1.2076-1.067-0.78323-1.2127-0.83521-1.2127-0.43247 0 0.85554-0.79222 1.3283-2.2801 1.3608-5.6948 0.12415-5.2679 0.55707-5.3374-5.4126-0.06876-5.9023-0.2271-5.6022 2.9557-5.6022 2.7528 0 2.99 0.15764 3.2077 2.1316 0.15287 1.3862 2.3348 1.9911 5.3244 1.4762 1.3017-0.22419 1.5584-0.68328 0.38201-0.68328-0.82358 0-0.82358 0-0.82358-1.4118 0-1.4118 0-1.4118 0.88879-1.4118s0.88879 0 1.01-1.9665c0.06662-1.0816 0.16903-2.6823 0.22753-3.5571 0.15208-2.2746-1.7667-1.6676-6.7629 2.1394-2.4859 1.8942-3.9037 2.4745-4.3361 1.7749-0.077323-0.12512-0.26109-0.11076-0.50119 0.039178-0.52122 0.32551-1.5136-0.1068-1.332-0.58021 0.068759-0.17921 0.20978-1.3655 0.31335-2.6363 0.10357-1.2707 0.27442-2.4153 0.37964-2.5436 0.10524-0.12824 0.22273-0.45789 0.26109-0.73256 0.057554-0.41226 0.21765-0.52451 0.91742-0.64336 0.46622-0.079173 3.1437-1.2705 5.9499-2.6474 7.8337-3.8437 6.7761-3.832 14.271-0.15799 3.0028 1.472 5.8127 2.7237 6.2442 2.7815 0.65184 0.087436 0.80095 0.19498 0.88168 0.63592 0.05341 0.29188 0.19254 0.80298 0.30911 1.1358 0.94477 2.6971 0.61485 5.7057-0.59651 5.4397-0.29666-0.06515-0.59286-0.03191-0.65824 0.07385-0.29951 0.48461-2.2386-0.26918-3.427-1.3322-0.90995-0.81394-4.9103-3.4244-6.0293-3.9344-1.6835-0.76732-1.714-0.66581-1.3813 4.5936 0.12758 2.0169 0.12758 2.0169 1.0352 2.1178 1.4163 0.15736 1.4312 2.6636 0.01689 2.8237-1.3234 0.14984-0.63202 0.59738 1.1255 0.7285 3.3024 0.24638 4.3862-0.09033 4.5513-1.4141 0.2656-2.1294 0.87812-2.4813 4.0112-2.3042 2.3638 0.13357 2.3967 0.208 2.3967 5.4313 0 5.6786-0.27286 6.1085-3.6305 5.7203-0.72105-0.08338-1.7831-0.1337-2.3602-0.11185-1.0389 0.03933-1.0533 0.03164-1.4716-0.78837-0.42247-0.82811-0.42247-0.82811-1.3711-0.1372-1.1069 0.80614-2.5189 1.5483-2.9457 1.5483-0.50301 0-0.56096 0.34043-0.41306 2.4265 0.10558 1.4892 0.21357 2.0107 0.4164 2.0107 0.15062 0 0.41738 0.34036 0.5928 0.75634 0.31895 0.75634 0.31895 0.75634 0.70625 0.28314 0.38154-0.46616 0.79545-0.05977 0.79545 0.78102 0 0.21518 0.84482 1.0324 0.9542 0.92298 0.06315-0.06315-0.97009-3.1794-1.4613-4.4074-0.09931-0.24829-0.04511-0.35296 0.18294-0.35296 0.17826 0 0.50426-0.18014 0.72443-0.40031 0.47214-0.47212 0.40986-0.63546 0.90757 2.3798 0.57429 3.479 1.2205 4.8781 2.2532 4.8781 0.51815 0 0.87616 0.53027 0.87616 1.2977 0 0.32552-0.11222 0.51749-0.30254 0.51749-0.44616 0-0.37545 0.20588 0.41015 1.1942 0.38982 0.49041 0.74534 1.0804 0.79005 1.311 0.32005 1.6513 0.5565 6.7203 0.43469 9.3188-0.07736 1.6502-0.22014 5.9501-0.31729 9.5553-0.15528 5.7623-0.27776 7.2187-0.73361 8.7232-0.09504 0.31368 0.0573 0.35309 1.3689 0.35409 3.6981 0.0031 3.8342 0.21682 3.7555 5.9055-0.07835 5.6663-0.09134 5.6852-3.8221 5.5521-2.3905-0.08523-2.3905-0.08523-2.3905 2.2109 0 2.2961 0 2.2961-1.3614 2.1547-1.4824-0.15396-1.8657-0.34376-1.8657-0.92386 0-0.74601-12.148-0.55598-12.431 0.19446-0.20056 0.53137-0.31604 0.58246-1.5843 0.7009-1.8361 0.17145-1.7949 0.22821-1.6435-2.2648 0.13009-2.1419 0.13009-2.1419-2.0459-2.0674-4.2578 0.14574-4.8746-1.2336-4.0976-9.164zm0.92729-45.736c0.16639 0.06388 0.30253 0.23194 0.30253 0.37353 0 0.45608 2.5431 0.71098 3.7817 0.37905 0.80025-0.21446 0.68766-3.7857-0.12831-4.0702-1.0172-0.35461-0.92543-2.3871 0.15118-3.347 0.75879-0.67654 0.62355-2.4514-0.19935-2.6159-1.6204-0.32408-3.3619-0.054852-3.6095 0.55807-0.094487 0.23385-0.17896 0.33442-0.18768 0.22348-0.0087675-0.11093-0.10385-0.065551-0.21139 0.10085-0.34935 0.54057-0.25664 8.2609 0.10085 8.3981zm-0.10085 53.723c0.1285 0 0.20169-1.6511 0.20169-4.55 0-2.982-0.069522-4.507-0.20169-4.4253-0.12455 0.07699-0.2017 1.8173-0.2017 4.55 0 2.8157 0.073333 4.4253 0.2017 4.4253zm0.084349-65.348c0.046437 0 0.25061 0.05395 0.4538 0.11987 0.27008 0.08763 0.29745 0.06827 0.10177-0.07195-0.2137-0.15313-0.22386-0.42881-0.050375-1.3671 0.27898-1.5092 0.28946-3.7436 0.015564-3.3198-0.10754 0.1664-0.20214 0.80172-0.21023 1.4118-8e-3 0.61012-0.089799 1.4723-0.18159 1.9161-0.20668 0.99927-0.23734 1.311-0.12891 1.311zm0.63806 65.831c0.41481 0.15918 3.9894 0.15918 4.4042 0 0.59712-0.22914 0.46759-9.8753-0.13477-10.037-0.72263-0.19366-3.5038-0.14613-4.0711 0.069604-0.65412 0.24869-0.84257 9.7199-0.19833 9.9672zm0.76557-69.865c0.26375 0 0.59571-0.13999 0.73772-0.31109 0.16182-0.19499 0.32921-0.24006 0.44849-0.12077 0.35861 0.35862 3.8269-1.0927 4.0595-1.6987 0.066549-0.17342 0.21512-0.25715 0.33015-0.18606 0.64668 0.39968 6.0933-3.5524 6.3599-4.6148 0.1857-0.73991 0.22442-0.75239-4.0894 1.3186-4.9278 2.3657-7.3059 3.3942-7.8477 3.3942-0.4452 0-0.47822 0.0766-0.47822 1.1093 0 1.0336 0.032715 1.1093 0.47953 1.1093zm-0.20292 2.9708c0.1121 0.06928 0.23943 0.01914 0.28295-0.11143 0.087906-0.26372 0.65059-0.33026 0.65059-0.07693 0 0.67769 2.1506 0.07279 3.0094-0.84643 0.64801-0.69365 0.40882-0.8769-0.451-0.3455-0.37945 0.23452-0.81535 0.42397-0.96865 0.42102-0.1533-0.002888 0.25401-0.29435 0.90513-0.64754 0.65112-0.35319 1.468-0.91166 1.8152-1.241 0.34725-0.32938 0.77262-0.61147 0.94523-0.62687 0.17263-0.015396 0.7172-0.29992 1.2102-0.63226 0.49296-0.33234 1.3274-0.85182 1.8543-1.1544 0.54385-0.3123 0.9608-0.69906 0.96445-0.8946 5e-3 -0.30598 0.03386-0.30985 0.25212-0.034583 0.58679 0.74007 1.1533-0.068518 1.1533-1.6461 0-0.78372 0.05578-0.80606-2.8124 1.1259-2.6307 1.772-5.2212 3.1489-6.6459 3.5325-0.45536 0.12262-0.82793 0.28991-0.82793 0.37176 0 0.081855-0.36332 0.11418-0.80737 0.071829-0.79366-0.075687-1.2515 2.2885-0.52956 2.7346zm1.2361-0.90305c0.44372 0.0023 0.60149 0.04354 0.35061 0.09178-0.25088 0.04824-0.61392 0.04641-0.80677-4e-3 -0.19283-0.05047 0.012451-0.08995 0.45616-0.08771zm-1.0566 1.9281c0.24203 0.04662 0.35065-0.06201 0.35065-0.35065 0-0.28864-0.12954-0.41817-0.41818-0.41817-0.51686 0-0.45823 0.66756 0.06754 0.76882zm1.0061 0.36676c0.2496-0.06689 0.56255-0.12286 0.69545-0.12437 0.1329-0.0015 0.78753-0.45704 1.4547-1.0123 1.3072-1.0878 4.6265-3.2981 6.0184-4.0075 0.69734-0.35541 1.1897-1.0338 0.75028-1.0338-0.26151 0-3.9684 2.3729-5.3398 3.4181-1.7667 1.3466-2.2452 1.6242-2.7994 1.6242-0.22365 0-0.49914 0.15883-0.6122 0.35296-0.19579 0.33615-0.20587 0.33615-0.21172 0-0.00317-0.19413-0.096889-0.35296-0.20782-0.35296-0.11094 0-0.20169 0.28287-0.20169 0.6286 0 0.55346 0.05425 0.61406 0.4538 0.50699zm1.5499 7.7318c1.1473 0.61404 1.4251 0.3383 1.4251-1.4148 0-1.6236 0-1.6236-0.90762-0.8649-1.0316 0.86227-1.2628 1.8808-0.51749 2.2797zm0.22574-2.2173c0.40409-0.21626 1.1971-1.3305 1.1986-1.6841 0.00127-0.21395-1.5927 1.5216-1.6045 1.7474-0.00444 0.08711 0.17811 0.05863 0.4059-0.06327zm-0.11164 21.99c0.37926-0.98482 0.37618-1.4253-0.00635-0.91949-0.16287 0.21533-0.28922 0.66914-0.28077 1.0085 0.01531 0.61694 0.01531 0.61694 0.28719-0.08897zm0.30404 15.544c0.54854 3.5344 1.4102 6.783 2.5334 9.5517 0.15567 0.38373 0.15966 0.38373 0.31501 0 0.11537-0.285 0.14972-0.2004 0.12876 0.31729-0.031636 0.78052 1.1581 3.4288 1.5403 3.4288 0.36777 0 1.7337-1.0004 1.7311-1.2678-0.0033-0.28957-0.80799-5.1243-1.401-8.4134-0.23002-1.2757-0.52382-3.9028-0.65288-5.838-0.27018-4.0512-0.37429-4.3371-2.3643-6.4932-1.3419-1.4538-1.3549-1.4535-1.6028 0.041037-0.18183 1.0962-0.18183 1.0962-0.2054-0.26578-0.023567-1.362-0.023567-1.362 0.56694-1.1093 0.57121 0.24443 3.0399 2.9952 3.0399 3.3872 0 0.10635 0.099163 0.19337 0.22036 0.19337 0.14832 0 0.17942-0.37911 0.095096-1.1597-0.50684-4.6926-0.38752-6.0224 0.78715-8.7736 0.13635-0.31935-0.0031-0.35296-1.4676-0.35296-1.5777 0-1.6238 0.01398-1.838 0.55466-0.21971 0.55465-0.21971 0.55465-0.11381 0 0.21594-1.131-0.47787-0.61826-0.8187 0.60508-0.1777 0.63785-0.4467 1.5682-0.59778 2.0673-0.15108 0.49918-0.32238 1.0891-0.38068 1.311-0.26468 1.0074 0.07562 9.5782 0.48501 12.216zm0.33377-11.762c0.055966 0.13866 0.055966 0.36557 0 0.50424-0.055965 0.13866-0.10173 0.02528-0.10173-0.25212 0-0.27732 0.045738-0.39078 0.10173-0.25212zm0.012324 7.0592c0.044722 0.36052 0.044722 0.95047 0 1.311s-0.081337 0.06556-0.081337-0.6555c0-0.72104 0.03659-1.016 0.081337-0.65549zm0.18936-8.0677c0.055965 0.13866 0.055965 0.36557 0 0.50423-0.055965 0.13866-0.10173 0.02528-0.10173-0.25212 0-0.27732 0.045802-0.39077 0.10173-0.25211zm0.00902 10.692c0.048279 0.25088 0.046436 0.61393-0.00381 0.80677-0.050439 0.19283-0.089964-0.01245-0.087715-0.45616 0.00254-0.44372 0.043515-0.6015 0.091781-0.35061zm0.19682-11.486c0.058252 0.14559 0.051074 0.31956-0.015881 0.38657-0.067006 0.067-0.11469-0.05216-0.10593-0.26472 0.00966-0.23497 0.057491-0.28275 0.12185-0.12185zm0.00254 13.202c0.051138 0.19625 0.047771 0.46852-0.00762 0.60508-0.055267 0.13656-0.097091-0.02401-0.092975-0.3568 0.00381-0.33279 0.049295-0.44452 0.10045-0.24828zm0.19639-13.904c0.073943 0.07394 0.073943 0.19496 0 0.26892-0.073943 0.07394-0.13446 0.01341-0.13446-0.13446 0-0.14791 0.06054-0.20842 0.13446-0.13446zm0.00318 15.022c0.058252 0.1456 0.051074 0.31956-0.015945 0.38658-0.067006 0.067-0.1147-0.05216-0.10593-0.26471 0.00966-0.23497 0.057491-0.28276 0.12184-0.12187zm-0.036972 0.84459c0.055521 0 0.10085 0.04536 0.10085 0.10084 0 0.05552-0.045357 0.10084-0.10085 0.10084-0.055521 0-0.10084-0.04536-0.10084-0.10084 0-0.05552 0.045357-0.10084 0.10084-0.10084zm0.2353-17.077c0.073943 0.07394 0.073943 0.19496 0 0.26891-0.073943 0.07394-0.13446 0.01341-0.13446-0.13446 0-0.14791 0.06054-0.20842 0.13446-0.13446zm0.00318 17.846c0.058253 0.1456 0.051074 0.31956-0.015881 0.38658-0.067006 0.067-0.11469-0.05216-0.10593-0.26472 0.00966-0.23496 0.05749-0.28276 0.12187-0.12187zm0.2656 1.0463c0.22085 0.68961 0.22085 1.2199 0 0.70592-0.095338-0.22186-0.17067-0.58491-0.16741-0.80677 0.00444-0.32428 0.037543-0.30449 0.16741 0.10084zm0.33616 1.2774c0.073943 0.07394 0.073943 0.19498 0 0.26892-0.073943 0.07394-0.13446 0.0134-0.13446-0.13446 0-0.14791 0.060539-0.20841 0.13446-0.13446zm-0.033605 0.53785c0.055521 0 0.10084 0.04536 0.10084 0.10084 0 0.05552-0.045357 0.10084-0.10084 0.10084-0.055521 0-0.10084-0.04536-0.10084-0.10084 0-0.05552 0.045357-0.10084 0.10084-0.10084zm0.50423 1.311c0.20466 0.55465 0.37428 1.19 0.37691 1.4118 0.0019 0.22186-0.17052-0.14119-0.38478-0.80677-0.49179-1.5277-0.48635-1.9445 0.00788-0.60508zm0.54116 2.0799c0.058253 0.1456 0.051074 0.31956-0.015944 0.38658-0.067006 0.067-0.1147-0.05216-0.10593-0.26472 0.00979-0.23496 0.05749-0.28275 0.12185-0.12185zm-2.87-1.9791c0.6369 0 0.66866-0.5976 0.14677-2.7618-0.48435-2.0085-0.54006-1.9572-0.60412 0.55647-0.056156 2.2054-0.056156 2.2054 0.45735 2.2054zm0.046182 3.5843c0.21414 1.0194 0.42459 1.5289 0.69026 1.6711 0.46068 0.24656 0.46613 0.17835 0.17856-2.2352-0.27232-2.2855-0.34333-2.5512-0.72044-2.696-0.72957-0.27997-0.7585 0.35572-0.14838 3.2601zm1.7671-29.493c1.3861-0.14844 1.6036-0.27241 1.4015-0.79896-0.28452-0.74144-2.2316-0.52956-2.6387 0.28717-0.32713 0.65616-0.28267 0.67455 1.2372 0.51179zm-1.1655-20.548c0.073943-0.07395 0.073943-0.19497 0-0.26892s-0.13446-0.01347-0.13446 0.13446c0 0.14791 0.06054 0.20842 0.13446 0.13446zm0.067235 7.8324c0.11094-0.06852 0.20169-0.70924 0.20169-1.4237 0-0.7316-0.088096-1.2991-0.20169-1.2991-0.11541 0-0.20169 0.60904-0.20169 1.4237 0 0.8978 0.074476 1.3777 0.20169 1.2991zm1.0057 44.468c0.23344 0.45755 0.40615 1.192 0.40615 1.7271 0 0.93099 0 0.93099 0.55466 0.50361 0.30506-0.23506 0.7702-0.5878 1.0336-0.78385 0.47898-0.35647 0.47898-0.35647-0.31362-1.7562-0.43593-0.76981-1.0919-2.1258-1.4577-3.0132-0.36577-0.88744-0.72561-1.6788-0.79962-1.7587-0.34465-0.37169 0.18747 4.3187 0.57646 5.0812zm-0.29674-43.157c0.83598 0 1.3101-1.6732 0.6678-2.3569-0.61139-0.65079-0.7372-0.5913-0.82562 0.39039-0.16537 1.8361-0.15491 1.9665 0.15782 1.9665zm-0.11774 13.606c0.22263 0.1376 0.31644-0.0044 0.49412-0.74773 0.15968-0.66809-0.12983-0.7351-0.43572-0.10084-0.27984 0.58024-0.28852 0.70636-0.058379 0.84858zm1.3209-20.171c0.6429-0.09641 0.86377-0.19889 0.67983-0.31545-0.32599-0.20658-1.6607-0.23607-1.8557-0.04098-0.31054 0.31054 0.28278 0.49039 1.1759 0.35646zm1.7496 1.1169c3.1568-0.5254 4.1029-0.95609 3.2463-1.4778-0.10594-0.06453-5.5261 0.71171-6.036 0.86443-0.13025 0.03901-0.16985 0.74859-0.049676 0.88898 0.08121 0.09482 1.3589-0.02922 2.8393-0.27558zm-2.8549 56.073c0.12655 0 0.2017-1.2774 0.2017-3.4288 0-2.1514-0.075163-3.4288-0.2017-3.4288-0.12655 0-0.20169 1.2774-0.20169 3.4288 0 2.1514 0.075163 3.4288 0.20169 3.4288zm0.15127 6.9571c0.76756-0.31599 1.0733-0.33865 1.3599-0.10078 0.36536 0.30322 0.90911 0.1268 0.90911-0.29497 0-0.24568-0.26818-0.30886-1.311-0.30886-1.1987 0-1.311 0.03639-1.311 0.42496 0 0.32562 0.08252 0.39099 0.35296 0.27966zm1.3084-73.923c0.69473-0.47994 1.301-0.90233 1.3472-0.93865 0.046183-0.036325 0.029031-0.12102-0.038115-0.18822-0.10967-0.10968-1.4971 0.7574-2.417 1.5105-0.8414 0.68885-0.045611 0.41334 1.108-0.38364zm-0.098273 14.325c2.192 2.1367 4.319 3.1008 4.4459 2.0152 0.05311-0.45456-5.0016-4.2345-5.6626-4.2345-0.55885 0 0.016453 1.0493 1.2168 2.2193zm-1.1653 56.974c0.31869 0.19695 17.22 0.11381 17.42-0.0857 1.6547-1.6547 0.18442-3.7874-2.6969-3.9121-5.7783-0.2501-5.4397-0.31577-5.4397 1.0551 0 0.89776-0.07806 1.2185-0.31902 1.311-0.61297 0.23522-0.68944 0.11387-0.68944-1.0941 0-1.5476 0.2161-1.4855-4.5452-1.3069-3.5663 0.13371-5.9202 2.6789-3.7297 4.0327zm0.00508 1.1379c0.72109 0.09015 0.90968 0.03621 0.97006-0.27732 0.06853-0.35589-0.7314-0.52439-1.0373-0.2185-0.19929 0.1993-0.16298 0.46704 0.067235 0.49582zm0.40978-60.428c0.25716 0.15894 3.8878 0.68683 4.7838 0.69557 0.82423 8e-3 0.99747-0.92509 0.20168-1.0863-2.397-0.48561-5.9525-0.20695-4.9855 0.39074zm1.3731 18.047c1.608 0 2.0493-0.26267 2.0493-1.2196 0-0.3804-3.1848-0.23037-3.4126 0.16076-0.52338 0.89857-0.31698 1.0589 1.3633 1.0589zm-0.92566 44.102c0.13866-0.05598 0.02522-0.10174-0.25211-0.10174-0.27734 0-0.39078 0.04574-0.25212 0.10174 0.13866 0.05595 0.36556 0.05595 0.50423 0zm0.10085-10.089c0.30506-0.05742 1.0992-0.15799 1.7648-0.22362 2.0648-0.20357 2.7288-0.33805 2.6109-0.52877-0.14998-0.24267-1.3867-0.23342-2.725 0.02038-2.3363 0.44306-2.0591-0.53945 0.60688-2.1513 1.813-1.0961 1.6969-1.0004 1.5335-1.2647-0.08603-0.13918-0.32064-0.08338-0.6757 0.16068-0.29915 0.20564-1.0105 0.6617-1.5808 1.0135-2.0828 1.2848-3.1071 3.2695-1.5347 2.9738zm3.0145 0.57792c2.6577-0.13285 2.885-0.17465 2.885-0.53047 0-0.29304-0.10952-0.36432-0.4538-0.29536-0.2496 0.05-1.5883 0.19592-2.975 0.3243-4.3851 0.40594-4.0334 0.73035 0.54379 0.50154zm-2.6015 1.4357c0.075772 0.51981 2.532 0.94439 4.3339 0.74916 1.8167-0.19683 1.2896-0.51264-1.6853-1.0097-2.7037-0.45176-4.3254-0.59864-3.2129-0.29099 0.29295 0.08101 0.5294 0.31212 0.56431 0.55156zm-0.66515 0.89488c0.11094 0 0.23041-0.22972 0.26551-0.5105 0.045548-0.36383-0.03081-0.51051-0.26551-0.51051-0.23471 0-0.31099 0.14668-0.26552 0.51051 0.035193 0.28078 0.15459 0.5105 0.26552 0.5105zm0.45381-40.999c0.55381-0.27929 2.8707-1.349 3.3279-1.5365 0.49664-0.20367 0.87515-1.4463 0.44054-1.4463-0.24935 0-1.0496 0.50714-2.1171 1.3416-0.61702 0.48236-1.2221 0.87701-1.3446 0.87701s-0.26854 0.11344-0.32449 0.25211c-0.15648 0.38781-0.14928 0.59619 0.01766 0.51198zm7.5161 46.46c7.0838-0.07036 7.8685-0.13413 7.5712-0.61525-0.15273-0.24713-14.664-0.32288-14.909-0.07785-0.71964 0.71965-0.20731 0.76804 7.3382 0.69308zm-6.8228-5.5373c0.16089-0.06442 0.1131-0.11217-0.12187-0.12185-0.21261-0.0088-0.33173 0.03888-0.26472 0.10592 0.067006 0.067 0.24098 0.07417 0.38658 0.01588zm1.7601-53.548c1.9252 0.50025 2.0034 0.50543 2.0991 0.13925 0.11376-0.43502 0.01097-0.46904-2.3485-0.77749-1.889-0.24693-1.7502-0.24346-1.7502-0.04376 0 0.08935 0.89984 0.39626 1.9996 0.68204zm-1.7979 13.703c0 0.11184 0.6193 0.16893 1.4623 0.13477 2.2972-0.0931 2.1958-0.83862-0.12586-0.92539-1.3975-0.05222-1.573-0.01995-1.4623 0.26861 0.069217 0.18039 0.12586 0.41528 0.12586 0.522zm0.87954 35.971c2.3123-0.28891 2.965-0.70983 2.26-1.4576-0.04669-0.04955-1.6705 0.49367-2.7866 0.93229-0.96315 0.37852-0.66657 0.67435 0.52658 0.52528zm0.22976-35.19c0.61012 0 1.1093-0.09076 1.1093-0.20169 0-0.2222-1.8689-0.28249-2.0841-0.06723-0.24254 0.24255-0.14693 0.26893 0.97484 0.26893zm-0.76388-5.7239c0.15764-0.15763 0.86431-1.9497 0.86456-2.1925 5.08e-4 -0.61511-0.79198-0.05832-0.86137 0.60508-0.14682 1.4036-0.14749 1.7317-0.00318 1.5874zm0.56219 13.388c0.44276 0 0.50423-0.08693 0.50423-0.71302 0-0.63969-0.03964-0.69179-0.38581-0.50654-0.74294 0.39761-0.82276 1.2196-0.11842 1.2196zm1.2606-9.5769c0.36052-0.06738 0.6555-0.15642 0.6555-0.19778 0-0.04142 0.05513-0.21878 0.12242-0.39425 0.16411-0.42767-0.46587-0.42044-1.5614 0.01791-1.0003 0.40023-0.44854 0.80451 0.78352 0.57412zm-1.4018 8.1651c0.28503 0 0.64541-0.47301 0.64541-0.84711 0-0.46277-0.32204-0.46829-0.58892-0.01008-0.24885 0.42726-0.27718 0.85719-0.056473 0.85719zm0.040339 3.4288c0.26128-0.40432 0.26128-1.6742 0-1.5127-0.11094 0.06852-0.20031 0.50503-0.1986 0.96993 0.00254 0.62007 0.055203 0.76468 0.1986 0.54276zm0.20168 27.833c0.11094 0 0.2017-0.04003 0.2017-0.08894s-0.09076-0.14503-0.2017-0.2136c-0.11093-0.06852-0.20169-0.02852-0.20169 0.08895 0 0.11748 0.090764 0.2136 0.20169 0.2136zm1.327-67.197c1.4089-0.75121 1.3947-0.74109 1.2465-0.88933-0.13012-0.13013-1.1748 0.36975-2.0305 0.97159-0.91989 0.647-0.5014 0.60309 0.78399-0.082271zm-1.0245 34.119c0.33866-0.28107 0.40058-0.60508 0.11563-0.60508-0.1028 0-0.22841 0.15883-0.27914 0.35296-0.05075 0.19413-0.10277 0.38677-0.11564 0.42808-0.012832 0.04129 0.11274-0.03791 0.27914-0.17596zm0.15127 12.063c0.30065 0.05768 0.35783-0.1063 0.38582-1.1068 0.03291-1.1745 0.03291-1.1745 0.15127-0.06517 0.3525 3.3027 1.8328 1.5202 1.8328-2.207 0-2.9236-0.04542-3.4404-0.30254-3.4404-0.16639 0-0.3706-0.01754-0.4538-0.03901-0.08319-0.0214-0.19723 0.22815-0.25341 0.55465-0.07188 0.4178-0.23354 0.61239-0.54573 0.65692-0.39801 0.0568-0.45081 0.20186-0.51385 1.4118-0.04282 0.82167-0.08569 0.38968-0.10977-1.1057-0.0451-2.7973-0.27324-3.8248-0.46287-2.0838-0.28113 2.581-0.10627 7.3518 0.2721 7.4244zm0.80407-29.918c1.2101 0.81496 1.5658 0.88256 1.5658 0.29761 0-0.43272-0.70118-0.8221-1.9665-1.0921-0.90676-0.19345-0.8247-0.03082 0.4007 0.79446zm-0.615 30.296c0.1609-0.06442 0.1131-0.11217-0.12185-0.12185-0.21262-0.0088-0.33174 0.03888-0.26473 0.10594 0.067 0.067 0.24099 0.07417 0.38658 0.01594zm-0.11831 1.6123c0.35416 0.13589 0.67765-0.23954 0.68249-0.79207 2e-3 -0.24286-0.15421-0.35296-0.50115-0.35296-0.59353 0-0.74087 0.93031-0.18134 1.145zm0.58473 15.262c0.49919-0.1701 0.90762-0.43687 0.90762-0.59284 0-0.38219-0.08219-0.36408-1.0125 0.22319-1.0404 0.65677-1.0137 0.75079 0.10486 0.36965zm-0.36978-38.458c0.07394-0.07394 0.01341-0.13446-0.13446-0.13446-0.1479 0-0.20841 0.06054-0.13447 0.13446 0.07394 0.07394 0.19498 0.07394 0.26893 0zm-0.06548 24.647c0.3403 0.28241 0.53609 0.09565 0.53609-0.5114 0-0.33616-0.11525-0.47062-0.40338-0.47062-0.46894 0-0.55436 0.63207-0.13272 0.98201zm0.35791 1.64c0.28763 0 0.37988-0.14695 0.37988-0.60508 0-0.5641-0.49058-0.85404-0.84512-0.49949-0.25415 0.25415 0.10404 1.1046 0.46524 1.1046zm0.37522 16.116c2.2271 0.47763 2.6115 0.49583 2.7517 0.13029 0.2636-0.68692-0.31108-0.8998-2.0916-0.77475-1.9004 0.13347-2.1062 0.33434-0.66016 0.64446zm0.50889-54.235c0.61013 0 1.1093-0.09076 1.1093-0.20169 0-0.11093-0.49919-0.20169-1.1093-0.20169-0.61011 0-1.1093 0.09076-1.1093 0.20169 0 0.11094 0.49919 0.20169 1.1093 0.20169zm-0.63316 20.976c0.42393 0 0.48987-0.11597 0.60139-1.0576 0.59876-5.0556 8.0918-4.5032 8.1914 0.60378 0.0063 0.3248 0.13014 0.45381 0.43548 0.45381 1.3177 0-0.0343-3.2511-2.1331-5.1295-1.7261-1.5449-2.0524-2.054-2.297-3.5842-0.17078-1.0683-0.17078-1.0683-0.32961 5.08e-4 -0.20347 1.3699-0.88574 2.3733-2.5436 3.7408-1.4071 1.1607-1.9398 2.0175-2.1955 3.5316-0.24093 1.4264-0.23831 1.4404 0.27057 1.4404zm-0.07272 6.1516c0.25174 0 0.312-0.47147 0.35888-2.8077 0.05438-2.7083-0.06111-3.3501-0.54844-3.0489-0.37781 0.23349-0.1958 5.8566 0.18956 5.8566zm0.58822 18.152c0.45077 2.8842 0.8205 5.3174 0.82161 5.4072 5.08e-4 0.08974 0.09278 0.10709 0.20372 0.03849 0.11339-0.07005 0.20168 0.09052 0.20168 0.36679 0 0.68319 0.4429 0.98128 1.3474 0.90681 1.2831-0.10566 1.2047-4.0473-0.22398-11.257-0.38468-1.9413-0.82173-4.3918-0.97122-5.4457-0.27182-1.9161-0.27182-1.9161-1.17-1.9502-0.49401-0.01874-0.73422 0.01156-0.53379 0.06738 0.34474 0.09609 0.85687 1.0313 0.6681 1.2201-0.04847 0.0484-0.14786-0.1003-0.22093-0.33051-0.19714-0.62114-0.50905-0.50687-0.50905 0.18649 0 0.46827 0.09016 0.60508 0.39873 0.60508 0.42031 0 1.1644 0.92435 0.93158 1.1572-0.07485 0.07485-0.18977-0.06884-0.25529-0.31942-0.1766-0.67532-0.9539-0.50976-1.038 0.22108-0.06009 0.52223-0.01721 0.55466 0.73283 0.55466 0.65185 0 0.81779 0.08088 0.91301 0.445 0.15675 0.59938 0.01531 0.69518-0.26177 0.17735-0.26544-0.49596-0.92229-0.55682-1.097-0.10163-0.27182 0.70833-0.13586 0.89112 0.66276 0.89112 0.52993 0 0.82499 0.10371 0.90761 0.31904 0.19667 0.51252 0.12901 0.82262-0.09542 0.43731-0.57559-0.98823-1.6331-0.42778-1.5223 0.80677 0.10408 1.1597 0.10408 1.1597-0.10923 0-0.25363-1.3789-0.91392-1.7524-0.71314-0.40338 0.06188 0.41599 0.48138 3.1161 0.93214 6.0003zm0.1559-4.0843c0.05077 0.19413 0.05077 0.5118 0 0.70592-0.05069 0.19413-0.09224 0.03526-0.09224-0.35296 0-0.38826 0.04155-0.54708 0.09224-0.35296zm0.205 1.7144c0.04808 0.2496 0.04808 0.65802 0 0.90762-0.04815 0.24959-0.08741 0.04536-0.08741-0.45381 0-0.49919 0.03933-0.70341 0.08741-0.45381zm0.202 2.0193c0.04823 0.25088 0.04644 0.61394-0.0038 0.80677-0.05044 0.19283-0.08995-0.01245-0.08771-0.45616 0.0025-0.44372 0.04358-0.6015 0.09178-0.35061zm0.19808 1.712c0.05076 0.19412 0.05076 0.51179 0 0.70592-0.05075 0.19413-0.09224 0.03532-0.09224-0.35296 0-0.38826 0.04155-0.54709 0.09224-0.35296zm0.2053 1.515c0.04822 0.25088 0.04644 0.61394-0.0038 0.80677-0.05044 0.19284-0.08995-0.01245-0.08771-0.45616 0.0019-0.44372 0.04358-0.6015 0.09178-0.35061zm0.19262 1.4095c0.05596 0.13866 0.05596 0.36556 0 0.50422-0.05598 0.13866-0.10174 0.02528-0.10174-0.25212 0-0.27732 0.04586-0.39077 0.10174-0.2521zm-0.63784-52.692c0.3496 0 0.41144-0.15462 0.46387-1.1597 0.05895-1.13 0.04708-1.1597-0.46387-1.1597-0.51091 0-0.52281 0.02976-0.46387 1.1597 0.05247 1.0051 0.11426 1.1597 0.46387 1.1597zm0.08724 25.312c0.59835 0 0.99786-0.55809 0.72064-1.0067-0.21235-0.34357-1.0729-0.23392-1.1731 0.14947-0.19387 0.74184-0.13299 0.85719 0.45245 0.85719zm-0.41137 3.2271c0.09907 0 0.23236-0.13614 0.2962-0.30254 0.06388-0.1664 0.24538-0.30253 0.40339-0.30253 0.40598 0 0.50706-0.38792 0.38447-1.4755-0.20959-1.8595-1.2642-1.3858-1.2642 0.56792 0 0.83199 0.08106 1.5127 0.18012 1.5127zm0.57623-4.6759c0.53156-0.06111 0.55715-0.1163 0.6147-1.3244 0.07151-1.5015-0.20686-1.6471-0.7714-0.40338-0.5812 1.2804-0.53342 1.8072 0.1567 1.7278zm-0.21849-5.4759c0.07394-0.07394 0.07394-0.19497 0-0.26892-0.07394-0.07394-0.13447-0.01341-0.13447 0.13446 0 0.1479 0.06053 0.20841 0.13447 0.13446zm-0.0336 0.874c0.05552 0 0.10084-0.04536 0.10084-0.10085 0-0.05552-0.04536-0.10084-0.10084-0.10084-0.05552 0-0.10085 0.04536-0.10085 0.10084 0 0.05552 0.04536 0.10085 0.10085 0.10085zm0.90472 9.8829c0.55306 0 1.3965-0.10457 1.8744-0.23239 0.60199-0.161 1.052-0.17037 1.4652-0.03049 0.5549 0.18788 0.52628 0.20226-0.41216 0.20719-2.1177 0.01109-3.1262 0.26125-3.1262 0.77535 0 0.62356 0.35728 0.81981 0.43939 0.24134 0.10695-0.75341 4.8171-0.70897 5.0275 0.04739 0.13074 0.47002 0.14162 0.46058 0.16036-0.1391 0.01874-0.59929-0.03164-0.64874-0.73624-0.72244-0.56788-0.05939-0.47034-0.08756 0.39148-0.113 1.2571-0.0371 1.5467-0.23511 1.0582-0.72356-0.40951-0.40952-6.505-0.47728-6.9055-0.07678-0.51493 0.51495-0.26439 0.76644 0.76354 0.76644zm-0.02122-11.356c0.29056-0.26935 0.70981-0.58986 0.93166-0.71226 0.34156-0.18844 0.25867-0.2235-0.54062-0.22869-0.82502-5e-3 -0.95326 0.05107-1.0174 0.44767-0.1392 0.86016 0.06073 1.0176 0.6264 0.49328zm0.01208-28.579c0.39571 0 0.74657-0.34103 0.55153-0.53606-0.15838-0.15838-0.94301 0.13114-0.94301 0.34796 0 0.10345 0.17617 0.1881 0.39148 0.1881zm0.11274 0.80677c0.31374 0 0.50424-0.1143 0.50424-0.30254 0-0.18825-0.1905-0.30254-0.50424-0.30254-0.31374 0-0.50423 0.1143-0.50423 0.30254 0 0.18825 0.19049 0.30254 0.50423 0.30254zm0.40615 26.522c0.804 0 0.804 0 0.9224-1.1093 0.1184-1.1093 0.1184-1.1093 0.15769 0.2017 0.03595 1.1999 0.06442 1.2778 0.33541 0.91949 0.36806-0.48662 0.4017-2.1243 0.04403-2.1424-0.13866-0.0068-0.0479-0.09487 0.20169-0.19519 0.45978-0.18481 0.6732-1.2039 0.25212-1.2039-0.11093 0-0.2017-0.08226-0.2017-0.1828 0-0.10055 0.18153-0.13533 0.40339-0.07733 0.3713 0.0971 0.40338 0.0064 0.40338-1.143 0-1.341-0.51881-1.7248-0.82824-0.61276-0.12784 0.45945-0.14176 0.46499-0.16012 0.06374-0.01109-0.24166 0.11604-0.57554 0.28243-0.74193 0.8459-0.84589 0.37871-1.7432-0.90761-1.7432-0.66559 0-1.2174 0.02274-1.2262 0.05037-0.04967 0.1558-0.53178 7.3618-0.50945 7.6139 0.019 0.21384 0.26252 0.30254 0.83082 0.30254zm-0.54473 2.1178c0.09018 0 0.42482-0.27228 0.74366-0.60508 0.66204-0.69102 0.41848-0.81214-0.37618-0.18705-0.51835 0.40773-0.69668 0.79213-0.36747 0.79213zm0.4579 21.178c0.2103 1.3866 0.66426 3.8826 1.0088 5.5465 0.46494 2.2456 0.65447 3.7909 0.73528 5.9954 0.22638 6.1759 0.45776 2.3723 0.45776-7.525 0-11.565 0.15168-10.673-1.8136-10.673-1.1301 0-1.2045 1.2742-0.38826 6.6558zm-0.28105-40.994c0.05075-0.19412 0.05075-0.5118 0-0.70592-0.05069-0.19413-0.09224-0.0353-0.09224 0.35296 0 0.38825 0.04155 0.54708 0.09224 0.35296zm0.0032 33.584c0.0479-0.24806 0.0491-0.70187 0.0033-1.0085-0.04637-0.30658-0.08553-0.10362-0.08705 0.45103-0.0013 0.55466 0.03647 0.8055 0.08428 0.55743zm2.3291-24.058c2.9421-0.0038 2.7473 0.23414 2.5551-3.1231-0.08886-1.553-0.16691-3.0733-0.17342-3.3783-0.03704-1.7373-4.4286-0.65492-4.5007 1.1093-0.237 5.8037-0.39736 5.3956 2.119 5.3922zm-1.7517 19.37c0.84871 0.32268 3.5599 0.24469 4.0767-0.11727 0.7494-0.52489 0.68999-6.7275-0.07013-7.3254-1.0093-0.7939-3.2167-0.74193-4.1443 0.09757-0.68706 0.62179-0.56593 7.0776 0.13782 7.3452zm1.9198-26.729c2.101 0 2.101 0 2.0367-4.2355-0.08549-5.6355-0.3757-10.697-0.64186-11.194-0.30296-0.5661-1.2996-0.5658-1.1515 3.392e-4 0.07013 0.26821 0.0064 0.40338-0.19085 0.40338-0.18856 0-0.27339-0.15822-0.23323-0.43506 0.08331-0.57436-0.27393-0.67308-0.82168-0.22707-0.57965 0.47199-1.513 13.234-1.1326 15.486 0.02014 0.11938 0.89155 0.2017 2.135 0.2017zm-1.7312 31.867c0.36736 0 0.40225-0.13023 0.3907-1.4581-0.0136-1.5664-0.09519-1.7859-0.59259-1.5951-0.53587 0.20564-0.34758 3.0532 0.20189 3.0532zm0.44157 24.657c0.05075-0.19413 0.05075-0.5118 0-0.70593-0.05076-0.19413-0.09224-0.03525-0.09224 0.35296 0 0.38826 0.04148 0.54709 0.09224 0.35296zm0.67233-24.454c1.3257 0.42078 1.8825-0.24928 1.7732-2.1342-0.0634-1.0943-0.0634-1.0943-1.1223-1.1553-1.1666-0.06716-1.7611 2.9371-0.65097 3.2895zm0.71541-48.307c0.84041 0 0.91597-0.039995 0.85719-0.45381-0.1131-0.7964-1.7788-0.75511-1.7788 0.044099 0 0.35205 0.12971 0.40971 0.92163 0.40971zm-0.62293 72.609c0.16429 0 0.34227 0.20422 0.39554 0.45381 0.05329 0.24959 0.13521 0.63533 0.18213 0.85719 0.04688 0.22187 0.09583 0.01766 0.1087-0.4538 0.01689-0.61709 0.10814-0.85719 0.32593-0.85719 0.2185 0 0.30254-0.2241 0.30254-0.80677 0-0.78752-0.93764-1.2137-1.4791-0.6723-0.27627 0.27627-0.14271 1.4791 0.16423 1.4791zm-0.09701 1.2102c0.11094 0 0.20169-0.18152 0.20169-0.40338 0-0.22187-0.09076-0.40339-0.20169-0.40339-0.11093 0-0.20168 0.18153-0.20168 0.40339 0 0.22186 0.09076 0.40338 0.20168 0.40338zm0.60508 2.4203c0.14049 0.2174 0.19552 0.01874 0.19552-0.70592 0-0.72468-0.05501-0.92333-0.19552-0.70592-0.10752 0.1664-0.19552 0.48406-0.19552 0.70592 0 0.22186 0.088 0.53952 0.19552 0.70592zm0.10085-6.0508c0.05552 0 0.10084-0.04536 0.10084-0.10084 0-0.05552-0.04536-0.10085-0.10084-0.10085-0.05552 0-0.10085 0.04536-0.10085 0.10085 0 0.05552 0.04536 0.10084 0.10085 0.10084zm0.30255-44.675c0.11093 0.06852 0.20169 0.65851 0.20169 1.311 0 0.65249-0.09076 1.2424-0.20169 1.311-0.24619 0.15216-0.27091 1.311-0.02795 1.311 0.09555 0 0.13328 0.21153 0.08386 0.47005-0.11165 0.5841 0.29412 2.1519 0.55694 2.1519 0.10665 0 0.19381-0.06807 0.19366-0.15126-1.47e-4 -0.0832 0.38559-0.15127 0.85719-0.15127 1.0065 0 0.9324 0.48708 0.68308-4.4876-0.17437-3.4792-0.17437-3.4792-1.3614-3.4792-1.1542 0-1.8371 1.188-0.98536 1.7144zm0.70592 4.1347c0.05552 0 0.10084 0.04536 0.10084 0.10084 0 0.05552-0.04536 0.10084-0.10084 0.10084-0.05552 0-0.10085-0.04536-0.10085-0.10084 0-0.05552 0.04536-0.10084 0.10085-0.10084zm-0.73056 39.128c0.1066-0.90761 0.1066-0.90761 0.21687 0.30254 0.11029 1.2102 0.11029 1.2102 0.81621 1.2696 1.2342 0.10383 1.3121-0.08121 1.808-4.2949 0.24808-2.1077 0.5781-4.7782 0.73335-5.9346 0.421-3.1356 0.40943-3.2424-0.35098-3.2424-0.3641 0-0.74989 0.15001-0.90767 0.35296-0.24526 0.31546-0.256 0.29939-0.10112-0.15127 0.13166-0.38309 0.35133-0.52846 0.91436-0.60508 0.78005-0.10614 0.83499-0.17301 0.66776-0.81253-0.12995-0.49689-0.84946-0.52489-1.1476-0.04467-0.20035 0.32269-0.21404 0.31837-0.15961-0.05044 0.0453-0.30693 0.23998-0.41836 0.81419-0.46599 0.68641-0.05692 0.75466-0.11621 0.75466-0.6555 0-0.70635-0.69736-0.85196-0.90761-0.18952-0.07043 0.22187-0.20573 0.40339-0.30068 0.40339s-0.03684-0.27229 0.12921-0.60508c0.21111-0.42316 0.44901-0.60507 0.79131-0.60507 0.40938 0 0.48945-0.09899 0.48945-0.60508 0-0.68562-0.31113-0.81008-0.50423-0.20168-0.07043 0.22186-0.20975 0.40338-0.30963 0.40338-0.34423 0 0.14898-0.90705 0.63321-1.1646 0.44725-0.23782 0.41571-0.25282-0.42442-0.20168-1.04 0.06327-0.86538-0.39124-1.6099 4.1899-0.22536 1.3866-0.54456 2.975-0.70935 3.5296-0.33276 1.12-0.3245 1.0543 0.40539-3.2271 0.94099-5.5196 0.92389-7.7651-0.05914-7.7651-2.0208 0-1.8636-0.93395-1.8239 10.836 0.01937 5.7434 0.0832 10.034 0.14182 9.5349zm0.4313-5.1431c0.08124-0.44372 0.10121 0.23699 0.04434 1.5127-0.05685 1.2757-0.1362 2.3573-0.17635 2.4035-0.12953 0.14911-0.02058-3.0829 0.13198-3.9162zm0.4001-2.622c0.21343-0.83876 0.2229-0.01328 0.01156 1.0085-0.14031 0.67831-0.16676 0.71042-0.1662 0.20169 3.61e-4 -0.33279 0.06998-0.87736 0.15462-1.2101zm-0.40338 12.807c0.11093 0 0.20169-0.18152 0.20169-0.40338 0-0.22187-0.09076-0.40339-0.20169-0.40339-0.11093 0-0.20169 0.18153-0.20169 0.40339 0 0.22186 0.09076 0.40338 0.20169 0.40338zm0.72692-73.535c0.067 0.17462 0.74594 0.7324 1.5087 1.2395 0.76279 0.5071 1.4498 1.0238 1.5268 1.1483 0.07691 0.12447-0.40173-0.1536-1.0637-0.61793-1.5573-1.0924-1.6517-1.0792-1.5382 0.21463 0.10464 1.1934 0.58021 1.8103 0.9771 1.2675 0.29344-0.40131 0.41613-0.39051 0.53047 0.04669 0.0512 0.1959 0.83204 0.79251 1.7351 1.3258 1.4559 0.85971 2.6042 1.7617 1.4702 1.1547-0.23524-0.12591-0.42773-0.15282-0.42773-0.059829 0 0.16431 2.2897 1.862 2.5113 1.862 0.36087 0-0.0038-0.47082-0.7109-0.91697-0.71395-0.45069-0.78662-0.56109-0.55465-0.84258 0.24015-0.29142 0.27333-0.28071 0.33059 0.10665 0.18519 1.2527 4.8185 3.0605 5.7859 2.2576 0.79524-0.66 0.33602-1.5817-0.84603-1.6981-1.2772-0.12572-5.2548-1.8951-6.4296-2.8601-0.21609-0.1775-0.05259-0.13478 0.36769 0.096062 0.41626 0.22864 0.88104 0.36804 1.0329 0.30979 0.15181-0.058258 0.32886 0.031751 0.39342 0.20001 0.23911 0.62311 3.5684 2.0536 3.9323 1.6897 0.14811-0.14811 0.31128-0.11259 0.54184 0.11798 0.69873 0.69874 1.1081 0.42868 1.1051-0.72897-0.003255-1.0589-0.003255-1.0589-1.1128-1.4113-0.61054-0.19384-3.3165-1.3964-6.0133-2.6724-5.6778-2.6864-5.6051-2.6688-5.0525-1.2287zm3.6747 2.7218c0.22907 0.12259 0.47788 0.32223 0.55291 0.44363 0.09773 0.15815 0.01836 0.15754-0.28007-0.00216-0.22907-0.12259-0.47789-0.32223-0.55291-0.44363-0.09773-0.15815-0.01837-0.15754 0.28007 0.00216zm-2.3331 30.028c0.44819 0.39185 0.63893 0.2097 0.47295-0.4516-0.11582-0.46145-0.22586-0.51281-1.0831-0.50555-0.95419 0.0081-0.95419 0.0081-0.34911 0.32778 0.33279 0.17584 0.76447 0.45906 0.95927 0.62937zm-0.07508 0.61781c0.10036-0.30108-0.71179-0.98085-1.1586-0.96977-0.22725 5e-3 -0.11043 0.19637 0.37365 0.61006 0.44427 0.37967 0.73406 0.51246 0.78497 0.35972zm-0.98501 13.602c0.44283-0.11579 0.61038-1.9236 0.20169-2.1762-0.40465-0.25009-0.60507 0.14843-0.60507 1.2032 0 0.97922 0.0371 1.0688 0.40338 0.97303zm0.30253 0.74833c0.38936 0 0.50353-0.10338 0.50114-0.45381-0.0025-0.3259-0.0512-0.37789-0.17382-0.18446-0.0939 0.14813-0.22865 0.26159-0.29945 0.25211-0.37735-0.05044-0.5321 0.0031-0.5321 0.18447 0 0.11093 0.2269 0.20169 0.50422 0.20169zm1.5287 23.628c2.2274 0.17214 4.923 0.20239 4.7742 0.05361-0.23035-0.23035-5.5205-0.80834-6.4709-0.707-0.87237 0.09302 0.30315 0.5457 1.6967 0.6534zm-1.0198 1.3032c3.1862-0.5095 3.5541-0.82224 1.1604-0.9863-1.8948-0.12988-1.9718-0.10654-1.9718 0.59795 0 0.49199 0.04098 0.51156 0.81143 0.38835zm-0.08687 1.0026c1.6668 0.3127 4.9228-0.30386 4.9228-0.93218 0-0.29326 0.14351-0.39974 0.55465-0.41153 0.30506-0.0088 0.43048-0.06526 0.27872-0.1256-0.23329-0.09273-5.4666 0.62945-6.2286 0.85951-0.4939 0.14911-0.24062 0.47604 0.47244 0.60981zm0.08222-69.5c0.22185 0 0.40338-0.09076 0.40338-0.20169 0-0.11093-0.03799-0.20169-0.08435-0.20169-0.04643 0-0.22792-0.055089-0.40339-0.12243-0.20935-0.080333-0.31903-0.011053-0.31903 0.20169 0 0.18965 0.16734 0.32412 0.40338 0.32412zm0.05038 0.78522c0.24959-0.027731 0.8873 0.21537 1.4171 0.54022 2.7801 1.7045 5.2041 3.3435 6.1603 4.1651 1.4905 1.2808 2.9304 1.4799 2.4757 0.3423-0.14031-0.35103-0.19865-0.38893-0.20785-0.13504-0.01556 0.42905-0.41617 0.47759-0.41617 0.05043 0-0.17129-0.18076-0.30254-0.41665-0.30254-0.57168 0-1.0176-0.25502-3.0863-1.7651-2.227-1.6256-4.9675-3.3014-5.1821-3.1687-0.08884 0.054909-0.21854 0.00762-0.28822-0.10515-0.20193-0.32673-0.90965-0.2396-0.90965 0.112 0 0.20919 0.15431 0.29983 0.45381 0.26656zm0.4402 9.8972c0.8464 0.45298 1.1525 0.15645 1.0831-1.0493-0.08224-1.4297-1.1492-1.8032-1.1969-0.41904-0.02655 0.76974-0.02655 0.76974-0.17514 0.06383-0.14778-0.70205-0.14874-0.70086-0.17514 0.21803-0.02255 0.78642 0.0465 0.96304 0.46408 1.1865zm1.9297 2.659c4.2045 0.6597 4.0338 0.65572 4.0338 0.09406 0-0.56048 0.02852-0.55104-3.1262-1.034-1.1093-0.16983-2.2734-0.36089-2.5868-0.42459-0.52908-0.10752-0.5652-0.0747-0.50423 0.45821 0.06471 0.56562 0.09675 0.5789 2.1835 0.90632zm-1.1212 0.57533c0.60357 0 1.1535-0.09076 1.222-0.20169 0.07787-0.12598-0.33405-0.20169-1.0974-0.20169-0.68023 0-1.222 0.08942-1.222 0.20169 0 0.11094 0.49382 0.20169 1.0974 0.20169zm-0.79545 1.3387c0.7632 0.29287 5.5471-0.51311 5.5471-0.93455 0-0.53576-5.161-0.38583-5.5969 0.1626-0.33198 0.41759-0.31822 0.63071 0.04988 0.77195zm0.30312 19.436c0.70071 0 0.70174-0.0044 0.3019-1.3511-0.52065-1.7532-0.90698-1.7896-0.90698-0.08548 0 1.4365 0 1.4365 0.60508 1.4365zm0 1.4118c0.67147 0 0.91181-0.90341 0.30254-1.1372-0.50318-0.19309-0.90761 0.08614-0.90761 0.62665 0 0.43283 0.09212 0.51056 0.60508 0.51056zm-0.36884 2.622c0.12993 0 0.39426 0.14301 0.58739 0.31779 0.37149 0.33619 0.82913-1.9834 0.49726-2.5204-0.50898-0.82354-1.3209-0.2135-1.3209 0.99247 0 0.79026 0.08197 1.2102 0.23623 1.2102zm0.31842-22.235c2.2448-0.60777 3.6809-1.0883 3.6809-1.2316 0-0.09651-0.20421-0.12709-0.45381-0.068-0.2496 0.05907-1.0891 0.17086-1.8656 0.24838-1.658 0.16554-1.7144 0.1896-1.7144 0.73182 0 0.29719 0.10021 0.38788 0.35296 0.31944zm-0.20281 1.4604c0.20632 0 2.6718-1.6825 2.5882-1.7661-0.0916-0.09159-1.9472 0.36904-2.3854 0.59215-0.33893 0.17258-0.51192 1.174-0.20281 1.174zm0.64472 29.044c0.43717 0 0.85367-0.09517 0.92557-0.21149 0.08889-0.14383 0.22447-0.13366 0.42383 0.03184 0.73986 0.61402 1.1411-3.8212 0.61321-6.7787-0.28799-1.6135-0.28799-1.6135-0.33268 0.10085-0.04815 1.8463-0.3493 3.392-0.38776 1.99-0.01512-0.55429-0.1187-0.7586-0.42483-0.83866-0.24851-0.06503-0.45098-0.33717-0.5246-0.70523-0.33674-1.6838-0.87086-0.51731-0.93711 2.0465-0.03474 1.3468-0.08289 2.8799-0.10687 3.4068-0.04358 0.95803-0.04358 0.95803 0.75125 0.95803zm1.3676-2.8786c0.04459 0.35805 0.04529 0.99338 0.0013 1.4118-0.04364 0.41847-0.08012 0.12551-0.08102-0.651-5.08e-4 -0.7765 0.03487-1.1189 0.07938-0.76084zm-0.61016-43.322c1.1867 0.64276 1.5864 0.76307 1.3696 0.41226-0.17405-0.28162-2.1531-1.4034-2.48-1.4057-0.46598-0.00347-0.06091 0.35906 1.1104 0.99349zm-0.79598 18.68c1.5944-0.38688 5.2944-3.4369 5.2944-4.3642 0-0.27048-0.09747-0.39129-0.26411-0.32735-2.7086 1.0394-7.1851 5.2144-5.0303 4.6916zm-0.41562 44.413c0.05077-0.19412 0.05077-0.5118 0-0.70592-0.05076-0.19413-0.09224-0.03532-0.09224 0.35296 0 0.38825 0.04147 0.54708 0.09224 0.35296zm0.48985-33.632c0.11094 0 0.1456-0.09076 0.07704-0.20169-0.06852-0.11094-0.21541-0.2017-0.32634-0.2017-0.11093 0-0.1456 0.09076-0.07704 0.2017 0.06852 0.11094 0.21541 0.20169 0.32634 0.20169zm-0.31968 32.372c0.0416-0.11093 0.39992-2.1984 0.79622-4.6389 0.3963-2.4405 0.77072-4.6868 0.83203-4.9919 0.08236-0.40969 0.03176-0.55465-0.19347-0.55465-0.39969 0-0.4524 0.21736-0.83164 3.4288-0.17684 1.4976-0.3976 3.3582-0.49058 4.1347-0.17765 1.4836-0.24124 2.965-0.11256 2.622zm-0.05711 3.5365c4.5921 0.62469 4.9919 0.6102 4.9919-0.18088 0-0.72179-3.4858-3.6581-4.3427-3.6581-0.5118 0 0.18744 0.72462 1.3677 1.4173 1.7971 1.0548 2.1682 1.3678 2.1682 1.8291 0 0.56758-0.26125 0.60832-2.0568 0.32079-1.7041-0.27289-2.1787-0.25544-2.1787 0.08004 0 0.10167 0.02274 0.18797 0.05038 0.19174zm0.40338-39.183c0.13866 0.1117 0.56979 0.27013 0.95804 0.35208 0.38826 0.08194 1.1597 0.38688 1.7144 0.67763 0.55465 0.29076 1.0694 0.55704 1.1439 0.59175 0.07448 0.03468 0.08656-0.12361 0.02693-0.35181-0.05971-0.2282-0.26362-0.41489-0.4532-0.41489s-0.56265-0.23201-0.82905-0.51557c-0.60541-0.64442-2.1874-1.703-2.5451-1.703-0.34403 0-0.35669 1.0893-0.01589 1.3639zm-0.15127 2.0649c0.05552 0 0.10085-0.04536 0.10085-0.10085 0-0.05552-0.04536-0.10084-0.10085-0.10084-0.05552 0-0.10084 0.04536-0.10084 0.10084 0 0.05552 0.04536 0.10085 0.10084 0.10085zm0.95803 36.395c0.58239 0.07051 1.4101 0.17958 1.8393 0.2424 1.3167 0.19273 0.77663-0.32945-0.98325-0.95063-1.7372-0.61317-1.9149-0.60327-1.9149 0.10663 0 0.42035 0.11866 0.48776 1.0589 0.60159zm-0.72285-40.294c0.07394-0.07394 0.07394-0.19496 0-0.26892-0.07394-0.07394-0.13446-0.0134-0.13446 0.13446 0 0.14791 0.06053 0.20841 0.13446 0.13446zm0.8471 3.2971c0.40305 0.0013 0.95973 0.06263 1.2371 0.13583 0.90449 0.2387 0.08952-0.47354-0.94529-0.82614-1.0417-0.35495-1.2814-0.29463-1.13 0.28438 0.08083 0.30906 0.27651 0.40382 0.83826 0.40593zm0.64879 1.3082c1.3977 0 1.5001-0.02986 1.5603-0.45381 0.07569-0.53314-2.8465-0.726-3.0562-0.20169-0.21567 0.53918 0.04974 0.6555 1.4959 0.6555zm-1.0757 34.257c0.87717 0.44624 1.5356 0.61503 1.373 0.35199-0.13014-0.21058-1.576-1.0272-1.8188-1.0272-0.3194 0-0.0352 0.43054 0.44577 0.6752zm0.44948-1.6096c0.44135 0.29206 0.89401 0.53102 1.0059 0.53102 0.36883 0 1.5722-2.6792 1.5854-3.5296 0.0068-0.44372 0.19319-1.3967 0.41404-2.1178 0.70236-2.2931 1.0732-3.8636 1.5478-6.555 0.2543-1.4421 0.46778-2.3951 0.4744-2.1178 0.02179 0.9123-0.5538 3.9822-1.1997 6.3987-1.3472 5.0399-1.3198 5.7621 0.05902 1.557 2.2612-6.8963 2.9096-16.874 1.4077-21.662-0.51351-1.6371-1.3893-3.0631-0.98205-1.5989 0.90785 3.2637 1.1369 5.1077 1.0954 8.8167-0.04225 3.7656-0.04225 3.7656-0.15127 0.7566-0.12973-3.579-0.1754-3.6265-1.7219-1.7904-1.7903 2.1256-2.0523 2.8677-2.1924 6.2112-0.06662 1.5895-0.34929 4.1461-0.64668 5.8491-0.29057 1.664-0.7357 4.2507-0.98917 5.7482-0.25347 1.4976-0.47163 2.7789-0.4848 2.8473-0.01316 0.06846 0.33715 0.36343 0.7785 0.6555zm5.1911-15.957c0.04618 0.30506 0.04618 0.80425 0 1.1093-0.04619 0.30506-0.08403 0.05552-0.08403-0.55465 0-0.61012 0.03779-0.85972 0.08403-0.55466zm-5.6876-5.7482c0.42209 1.8216 1.1373-2.3542 0.78284-4.5708-0.09151-0.57235-0.23191-0.82428-0.45902-0.82377-0.33533 5.08e-4 -0.5901 4.2453-0.32381 5.3945zm0.6017 11.043c0.26477 0 0.42553-0.15595 0.46784-0.45381 0.05292-0.37225-0.03119-0.4538-0.46784-0.4538-0.43663 0-0.5207 0.08155-0.46783 0.4538 0.0423 0.29786 0.20306 0.45381 0.46783 0.45381zm0.81867-21.278c0.69611 0 1.0739-0.07647 0.99656-0.20169-0.21929-0.35483-2.1178-0.23429-2.1178 0.13446 0 0.03697 0.50454 0.06723 1.1212 0.06723zm-0.93772 20.057c0.35143 0.21719 0.82496-0.13604 0.82496-0.6154 0-0.38036-0.10685-0.48265-0.50423-0.48265-0.51477 0-0.75679 0.82856-0.32073 1.0981zm0.24234-18.466c0.22414 0.64297 0.22414 0.64297 1.8657 0.58476 1.7324-0.06142 1.7798-0.09827 1.4366-1.1171-0.07577-0.22485-3.5264-0.40232-3.5264-0.18136 0 0.03888 0.10085 0.36008 0.22413 0.71371zm0.16566 16.964c0.40408 0 0.73925-0.65017 0.51894-1.0067-0.2979-0.482-0.90873-0.21206-0.90873 0.40158 0 0.46358 0.09114 0.60508 0.38979 0.60508zm0.2531-1.6774c0.1609-0.06442 0.1131-0.11217-0.12185-0.12185-0.21262-0.0088-0.33174 0.03888-0.26472 0.10594 0.067 0.067 0.24098 0.07417 0.38658 0.01594zm-0.13866-21.517c0.05552 0 0.10085-0.04536 0.10085-0.10085 0-0.05552-0.04536-0.10084-0.10085-0.10084-0.05552 0-0.10084 0.04536-0.10084 0.10084 0 0.05552 0.04536 0.10085 0.10084 0.10085zm0.43794 9.2231c0.15056 0.04955 0.1966-0.07386 0.12692-0.34031-0.15469-0.59154-0.51222-0.75582-0.43055-0.19783 0.03704 0.25322 0.17369 0.49538 0.30362 0.53814zm0.06632 1.4665c0.35407 0.1895 0.40338 0.15339 0.40338-0.29544 0-0.28124-0.03799-0.51133-0.08435-0.51133-0.04637 0-0.22791-0.05513-0.40338-0.12242-0.48499-0.18611-0.40765 0.66587 0.08435 0.92919zm-0.28096 1.2945c0.17364 0.45253 0.88603 0.40984 0.88603-0.05304 0-0.42056-0.66708-1.1122-0.87356-0.9057-0.16782 0.16781-0.17268 0.54131-0.01258 0.95878zm0.60176-3.1842c0.67361 1.7861 0.86109 4.509 0.42308 6.1446-0.47639 1.7789-0.19939 2.7162 0.49335 1.6694 0.79631-1.2033 2.4038-2.899 2.7483-2.899 0.41015 0 0.26221-1.3667-0.47484-4.3868-0.55376-2.269-0.55376-2.269-2.1331-2.269-1.8016 0-1.7471-0.08964-1.0568 1.7408zm0.10045-10.615c0.5537 1.4588 0.65187 1.5188 0.49421 0.30253-0.21219-1.6369-0.30206-1.9161-0.61678-1.9161-0.39959 0-0.377 0.29741 0.12257 1.6135zm-0.22232 15.782c0.0013 0.19413 0.09899 0.35296 0.21661 0.35296 0.31907 0 0.13852-1.4651-0.19403-1.5745-0.21078-0.06937-0.24996 0.0293-0.15402 0.3878 0.07075 0.26444 0.12992 0.63964 0.13144 0.83377zm0.0031 28.186c0.11093 0 0.20168-0.09076 0.20168-0.20169 0-0.11093-0.09076-0.20169-0.20168-0.20169-0.11094 0-0.20169 0.09076-0.20169 0.20169 0 0.11093 0.09076 0.20169 0.20169 0.20169zm1.2102-4.0581c0.44372 0.24939 0.80676 0.53838 0.80676 0.64222 0 0.10384 0.08965 0.18878 0.19923 0.18878 0.11248 0 0.17835-0.47371 0.15127-1.088-0.03507-0.79535 0.04511-1.1909 0.29803-1.4705 0.35165-0.3887 0.77756-3.1403 0.74346-4.8033-0.01632-0.7959-0.01893-0.79861-0.19455-0.20168-0.09792 0.33279-0.75522 1.7396-1.4607 3.1262-1.5543 3.0551-1.5519 3.0395-0.54352 3.6062zm-0.2185 12.731c0.21261 0 0.42354-0.11089 0.46871-0.24642 0.06334-0.18998 0.25202-0.1943 0.82358-0.01893 0.67441 0.20698 0.74142 0.19279 0.74142-0.15695 0-0.33549-0.15426-0.3845-1.2102-0.3845-1.0757 0-1.2102 0.04484-1.2102 0.40338 0 0.26308 0.13446 0.40339 0.38658 0.40339zm1.6807-64.15c0.19413 0.0063 0.35296-0.12452 0.35296-0.29092 0-0.32825-1.2563-0.42976-1.95-0.15756-0.35922 0.14096 0.62146 0.41634 1.597 0.44847zm-1.563 57.09c0.05552 0 0.10085-0.04536 0.10085-0.10084 0-0.05552-0.04536-0.10084-0.10085-0.10084-0.05552 0-0.10084 0.04536-0.10084 0.10084 0 0.05552 0.04536 0.10084 0.10084 0.10084zm1.4826-39.251c1.4133 0.20364 1.599 0.12335 1.2888-0.55732-0.30432-0.66793-2.0089-0.95473-2.4105-0.40557-0.42624 0.58293-0.20654 0.77152 1.1217 0.96289zm-0.57501 39.251c0.4278 0 0.57784-0.67514 0.2017-0.90761-0.30132-0.18622-0.60508 0.07288-0.60508 0.51613 0 0.25702 0.13855 0.39148 0.40338 0.39148zm0.13398-51.548c0.70706 1.4827 1.3156 1.0917 1.0001-0.64271-0.22983-1.2635-0.22983-1.2635-0.78282-0.71051-0.6542 0.6542-0.62811 0.49178-0.21732 1.3532zm0.16856 56.994c0.31374 0 0.50424-0.1143 0.50424-0.30254 0-0.18824-0.19049-0.30254-0.50424-0.30254s-0.50423 0.1143-0.50423 0.30254c0 0.18824 0.19048 0.30254 0.50423 0.30254zm0.15127 1.7471c0.13866-0.05598 0.02521-0.10173-0.25211-0.10173-0.27734 0-0.39078 0.04574-0.25212 0.10173 0.13866 0.05595 0.36556 0.05595 0.50423 0zm0.27839-44.758c0.13066 0.48756 0.47795 0.62548 0.47795 0.18982 0-0.30782-0.59046-1.1454-0.59591-0.84532-0.0025 0.11093 0.05107 0.40591 0.11797 0.6555zm0.23491 37.363c0.07066-0.1664 0.22233 0.37817 0.33703 1.2102 0.20567 1.4918 3.0284 2.3314 4.7467 1.4118 0.71786-0.38419 0.61142-9.612-0.11404-9.8879-1.3375-0.50851-4.7266-0.13843-4.7266 0.51613 0 0.17569-0.09075 0.26335-0.20169 0.19479-0.13171-0.08142-0.19617 1.0865-0.18577 3.3664 0.0088 1.9201 0.07371 3.3549 0.14442 3.1885zm0.69685-65.129c1.2377 0.98493 2.5805 1.2979 3.01 0.70147 0.08065-0.11201 0.26154-0.08445 0.44497 0.06779 0.35108 0.29136 0.73013 0.13855 0.73013-0.29435 0-0.22254-0.3001-0.29064-1.281-0.29064-0.979 0-1.5045-0.11886-2.2293-0.50423-1.4676-0.78032-1.8372-0.60506-0.67486 0.31995zm0.03729 10.269c1.4933 0 2.1904-1.5274 0.97256-2.131-0.24883-0.12334-0.61902-0.37501-0.82264-0.55929-0.58519-0.52958-0.64102-0.42702-0.64102 1.1776 0 1.4683 0.01435 1.5127 0.49111 1.5127zm-0.21326 46.994c0.53505 0 1.3357-2.5877 1.3357-4.3169 0-1.9798-0.96719-0.62903-1.3001 1.8156-0.35641 2.6177-0.35476 2.5013-0.0357 2.5013zm0.65095-49.826c1.032 0.9061 1.1027 0.59069 0.10916-0.48714-0.62926-0.68266-0.83626-0.81367-0.83626-0.52925 0 0.20789 0.32719 0.66527 0.72709 1.0164zm-0.12202-1.2009c0 0.17791 0.31767 0.63138 0.70592 1.0077 1.1954 1.1587 1.0189 2.7663-0.35296 3.2135-0.74434 0.24265-1.2575 3.2407-0.55466 3.2407 0.11093 0 0.20169 0.12643 0.20169 0.28096 0 0.53996 2.7607 0.7698 3.9258 0.32684 1.2662-0.48142 0.69102-9.8037-0.61702-9.9999-2.1088-0.31623-4.2371 0.54997-3.4771 1.4152 0.09259 0.10538 0.16832 0.33717 0.16832 0.51509zm0.30254 45.783c0.50423 0 0.50423 0 0.49312-2.3699-0.0112-2.3699-0.0112-2.3699-0.3841-0.94763-0.75657 2.8847-0.77078 3.3175-0.10902 3.3175zm0.30978-22.066c0.11316 0.2976 0.25947 0.48736 0.32514 0.42168 0.21114-0.21113-0.13042-1.5005-0.47202-1.7819-0.36068-0.29711-0.31206 0.15312 0.14688 1.3602zm2.766-27.992c0.19412-0.03739 0.35296-0.20163 0.35296-0.36499s-0.15883-0.3276-0.35296-0.36499c-0.24765-0.04768-0.35296 0.06122-0.35296 0.36499 0 0.30378 0.10531 0.41268 0.35296 0.36499zm0.95556-0.31456c0.27536 0.6649 0.45232 0.35336 0.28642-0.50423-0.0912-0.47146-0.17616-1.3564-0.18878-1.9665-0.01271-0.61012-0.10796-1.2908-0.21182-1.5127-0.22599-0.48271-0.11373 3.433 0.1142 3.9834zm0.45521 9.7821c0.0357-1.1925 0.0357-3.1439 0-4.3364s-0.0648-0.21682-0.0648 2.1682c0 2.385 0.02916 3.3607 0.0648 2.1682zm0.04307 51.583c0.06175-2.3295 0.04619-4.3717-0.03455-4.5381-0.08074-0.16639-0.13127 1.7396-0.11228 4.2355 0.03449 4.5381 0.03449 4.5381 0.14679 0.30254z"/></svg>
